<svg width="89" height="89" viewBox="0 0 89 89" fill="none" xmlns="http://www.w3.org/2000/svg">
    <g clip-path="url(#clip0_15_8)">
        <path d="M35.911 88.4869C28.1265 86.8774 20.8626 83.2869 15.1601 78.2299C0.520341 65.2475 -4.00413 44.8528 3.72971 26.7061C5.62894 22.2497 8.71658 17.7272 12.5422 13.7981L15.915 10.3342L16.1529 30.6084C16.3806 50.0145 16.4319 50.9921 17.3513 53.4376C19.1905 58.3299 21.1623 61.4447 24.5568 64.8202C33.3253 73.5394 46.1869 75.7155 57.1205 70.3296C67.3972 65.2673 73.8761 54.2598 73.1232 43.1411C72.6175 35.6726 70.102 30.196 64.6711 24.7394C60.5645 20.6134 55.733 17.9183 50.4728 16.8194C45.1209 15.7013 45.3777 15.5379 45.3777 20.061V23.9659L48.3117 24.5057C59.6745 26.5962 67.1895 37.7372 64.8211 48.9808C64.0646 52.5719 62.3774 55.7429 59.6689 58.664C55.5528 63.1031 49.7618 65.2249 44.7053 65.2152C36.3443 65.1991 29.3627 60.4551 25.9789 53.4398C25.9789 53.4398 25.0925 51.4346 24.8076 50.1954C23.1324 42.9083 24.2032 27.5685 24.2032 27.5685L24.0735 5.13895L25.3996 4.45424C26.129 4.07764 26.8285 3.76952 26.9541 3.76952C27.0797 3.76952 27.2391 14.0714 27.3083 26.6625C27.3083 26.6625 25.698 43.1679 27.688 49.4929C27.9751 50.4055 28.5202 51.9664 28.5202 51.9664C30.2647 55.5151 33.0607 58.6367 36.6935 60.3548C39.4512 61.6591 40.8396 62.2493 44.9194 62.2493C47.585 62.2493 49.9464 61.4092 52.6636 60.1614C55.8668 58.6905 59.5412 54.7905 60.899 51.2298C64.6401 41.4192 59.4309 30.8644 49.3955 27.9213C45.2941 26.7184 45.3777 26.6522 45.3777 31.1052V34.9948L47.3465 35.5206C54.4429 37.4157 56.6083 46.9131 51.0374 51.7931C49.0691 53.5173 47.2955 54.2794 44.193 54.2794C40.8779 54.2794 37.6957 52.2759 36.0597 49.2029C35.077 47.357 34.9941 45.6061 34.9941 44.8041C34.9941 37.3966 34.8334 24.0745 34.8334 24.0745L34.7006 1.22218L35.7195 0.969511C36.2798 0.830542 38.5446 0.486682 40.7524 0.205374C48.2398 -0.748661 59.317 1.69796 66.7588 5.94941C76.9047 11.7456 84.5816 21.7027 87.778 33.2114C88.8775 37.1701 89 38.3212 89 44.6894C89 51.0292 88.8747 52.2184 87.7985 56.0905C83.4511 71.7324 72.3923 82.9141 56.5798 87.6564C53.2519 88.6544 51.693 88.8447 45.8208 88.9698C41.0819 89.0707 38.0105 88.9211 35.911 88.4869Z" fill="#C60C30"/>
    </g>
    <defs>
        <clipPath id="clip0_15_8">
            <rect width="89" height="89" fill="white"/>
        </clipPath>
    </defs>
</svg>
