<svg width="115" height="114" viewBox="0 0 115 114" fill="none" xmlns="http://www.w3.org/2000/svg">
    <path d="M85.1607 25.2917H28.9964C28.0351 25.2927 27.1134 25.675 26.4335 26.3545C25.7535 27.0341 25.3708 27.9555 25.3693 28.9169V85.0832C25.3708 86.0445 25.7535 86.9659 26.4335 87.6455C27.1134 88.3251 28.0351 88.7073 28.9964 88.7083H85.1607C86.122 88.7073 87.0437 88.3251 87.7236 87.6455C88.4036 86.9659 88.7863 86.0445 88.7879 85.0832V28.9169C88.7863 27.9555 88.4036 27.0341 87.7236 26.3545C87.0437 25.675 86.122 25.2927 85.1607 25.2917ZM86.1207 85.0832C86.1201 85.3374 86.0188 85.5811 85.8388 85.7607C85.6588 85.9403 85.415 86.0411 85.1607 86.0411H28.9964C28.8705 86.0414 28.7457 86.0168 28.6292 85.9688C28.5127 85.9208 28.4069 85.8502 28.3177 85.7612C28.2286 85.6723 28.1578 85.5666 28.1096 85.4502C28.0613 85.3339 28.0365 85.2091 28.0365 85.0832V28.9169C28.0365 28.7909 28.0613 28.6662 28.1096 28.5498C28.1578 28.4334 28.2286 28.3278 28.3177 28.2388C28.4069 28.1498 28.5127 28.0793 28.6292 28.0312C28.7457 27.9832 28.8705 27.9586 28.9964 27.9589H85.1607C85.415 27.9589 85.6588 28.0598 85.8388 28.2394C86.0188 28.419 86.1201 28.6626 86.1207 28.9169V85.0832Z" fill="white"/>
    <path d="M108.849 55.0105C109.577 55.0244 110.3 54.8931 110.976 54.6243C111.652 54.3555 112.268 53.9546 112.787 53.4451C113.306 52.9355 113.719 52.3275 114.001 51.6567C114.282 50.9858 114.427 50.2656 114.427 49.538C114.427 48.8104 114.282 48.0902 114.001 47.4193C113.719 46.7484 113.306 46.1405 112.787 45.6309C112.268 45.1214 111.652 44.7205 110.976 44.4517C110.3 44.1829 109.577 44.0516 108.849 44.0655H99.0472V40.0905H108.849C109.577 40.1043 110.3 39.973 110.976 39.7043C111.652 39.4355 112.268 39.0346 112.787 38.525C113.306 38.0155 113.719 37.4075 114.001 36.7366C114.282 36.0658 114.427 35.3455 114.427 34.618C114.427 33.8904 114.282 33.1701 114.001 32.4993C113.719 31.8284 113.306 31.2204 112.787 30.7109C112.268 30.2013 111.652 29.8004 110.976 29.5316C110.3 29.2629 109.577 29.1316 108.849 29.1454H99.0472V18.6555C99.0472 17.6937 98.6654 16.7712 97.9857 16.0907C97.3059 15.4102 96.3839 15.0274 95.422 15.0263H85.2859V5.57783C85.2997 4.85039 85.1684 4.12748 84.8996 3.45139C84.6308 2.77529 84.23 2.15956 83.7204 1.64021C83.2109 1.12087 82.6029 0.708312 81.932 0.426683C81.2612 0.145054 80.5409 0 79.8133 0C79.0858 0 78.3655 0.145054 77.6946 0.426683C77.0238 0.708312 76.4158 1.12087 75.9063 1.64021C75.3967 2.15956 74.9958 2.77529 74.727 3.45139C74.4582 4.12748 74.3269 4.85039 74.3408 5.57783V15.0263H70.3658V5.57783C70.3658 4.12616 69.7891 2.73394 68.7627 1.70745C67.7362 0.680968 66.344 0.104299 64.8923 0.104299C63.4406 0.104299 62.0484 0.680968 61.0219 1.70745C59.9954 2.73394 59.4188 4.12616 59.4188 5.57783V15.0263H55.4438V5.57783C55.4577 4.85039 55.3264 4.12748 55.0576 3.45139C54.7888 2.77529 54.3879 2.15956 53.8783 1.64021C53.3688 1.12087 52.7608 0.708312 52.09 0.426683C51.4191 0.145054 50.6988 0 49.9713 0C49.2437 0 48.5234 0.145054 47.8526 0.426683C47.1817 0.708312 46.5737 1.12087 46.0642 1.64021C45.5546 2.15956 45.1537 2.77529 44.8849 3.45139C44.6162 4.12748 44.4849 4.85039 44.4987 5.57783V15.0263H40.5238V5.57783C40.5238 4.12616 39.9471 2.73394 38.9206 1.70745C37.8941 0.680968 36.5019 0.104299 35.0502 0.104299C33.5986 0.104299 32.2063 0.680968 31.1798 1.70745C30.1534 2.73394 29.5767 4.12616 29.5767 5.57783V15.0263H18.7449C17.7836 15.0274 16.8619 15.4096 16.182 16.0892C15.502 16.7687 15.1193 17.6902 15.1177 18.6515V29.1375H5.57781C4.85037 29.1236 4.12748 29.2549 3.45139 29.5237C2.77529 29.7925 2.15956 30.1934 1.64021 30.7029C1.12086 31.2125 0.708312 31.8205 0.426683 32.4913C0.145054 33.1622 0 33.8824 0 34.61C0 35.3376 0.145054 36.0578 0.426683 36.7287C0.708312 37.3996 1.12086 38.0075 1.64021 38.5171C2.15956 39.0266 2.77529 39.4275 3.45139 39.6963C4.12748 39.9651 4.85037 40.0964 5.57781 40.0825H15.1177V44.0575H5.57781C4.85037 44.0436 4.12748 44.175 3.45139 44.4437C2.77529 44.7125 2.15956 45.1134 1.64021 45.623C1.12086 46.1325 0.708312 46.7405 0.426683 47.4114C0.145054 48.0822 0 48.8025 0 49.53C0 50.2576 0.145054 50.9779 0.426683 51.6487C0.708312 52.3196 1.12086 52.9276 1.64021 53.4371C2.15956 53.9467 2.77529 54.3476 3.45139 54.6163C4.12748 54.8851 4.85037 55.0164 5.57781 55.0026H15.1177V58.9776H5.57781C4.12614 58.9776 2.73392 59.5542 1.70744 60.5807C0.68095 61.6072 0.104299 62.9994 0.104299 64.4511C0.104299 65.9028 0.68095 67.295 1.70744 68.3215C2.73392 69.3479 4.12614 69.9246 5.57781 69.9246H15.1177V73.8996H5.57781C4.85037 73.8857 4.12748 74.017 3.45139 74.2858C2.77529 74.5546 2.15956 74.9555 1.64021 75.465C1.12086 75.9746 0.708312 76.5826 0.426683 77.2534C0.145054 77.9243 0 78.6445 0 79.3721C0 80.0997 0.145054 80.82 0.426683 81.4908C0.708312 82.1617 1.12086 82.7696 1.64021 83.2792C2.15956 83.7887 2.77529 84.1896 3.45139 84.4584C4.12748 84.7272 4.85037 84.8585 5.57781 84.8447H15.1177V95.3286C15.1193 96.2899 15.502 97.2114 16.182 97.891C16.8619 98.5705 17.7836 98.9528 18.7449 98.9538H29.5767V108.406C29.5767 109.858 30.1534 111.25 31.1798 112.277C32.2063 113.303 33.5986 113.88 35.0502 113.88C36.5019 113.88 37.8941 113.303 38.9206 112.277C39.9471 111.25 40.5238 109.858 40.5238 108.406V98.9697H44.4987V108.422C44.4849 109.15 44.6162 109.873 44.8849 110.549C45.1537 111.225 45.5546 111.84 46.0642 112.36C46.5737 112.879 47.1817 113.292 47.8526 113.573C48.5234 113.855 49.2437 114 49.9713 114C50.6988 114 51.4191 113.855 52.09 113.573C52.7608 113.292 53.3688 112.879 53.8783 112.36C54.3879 111.84 54.7888 111.225 55.0576 110.549C55.3264 109.873 55.4577 109.15 55.4438 108.422V98.9697H59.4188V108.422C59.4188 109.141 59.5603 109.853 59.8354 110.517C60.1105 111.181 60.5137 111.784 61.0219 112.293C61.5302 112.801 62.1336 113.204 62.7977 113.479C63.4617 113.754 64.1735 113.896 64.8923 113.896C65.6111 113.896 66.3228 113.754 66.9869 113.479C67.651 113.204 68.2544 112.801 68.7627 112.293C69.2709 111.784 69.6741 111.181 69.9492 110.517C70.2243 109.853 70.3658 109.141 70.3658 108.422V98.9697H74.3408V108.422C74.3269 109.15 74.4582 109.873 74.727 110.549C74.9958 111.225 75.3967 111.84 75.9063 112.36C76.4158 112.879 77.0238 113.292 77.6946 113.573C78.3655 113.855 79.0858 114 79.8133 114C80.5409 114 81.2612 113.855 81.932 113.573C82.6029 113.292 83.2109 112.879 83.7204 112.36C84.23 111.84 84.6308 111.225 84.8996 110.549C85.1684 109.873 85.2997 109.15 85.2859 108.422V98.9697H95.422C96.3832 98.9687 97.3046 98.5864 97.9843 97.9068C98.6639 97.2271 99.0462 96.3057 99.0472 95.3445V84.8606H108.849C109.577 84.8744 110.3 84.7431 110.976 84.4743C111.652 84.2055 112.268 83.8046 112.787 83.2951C113.306 82.7855 113.719 82.1776 114.001 81.5067C114.282 80.8359 114.427 80.1156 114.427 79.388C114.427 78.6605 114.282 77.9402 114.001 77.2693C113.719 76.5985 113.306 75.9905 112.787 75.4809C112.268 74.9714 111.652 74.5705 110.976 74.3017C110.3 74.0329 109.577 73.9016 108.849 73.9155H99.0472V69.9405H108.849C110.301 69.9405 111.693 69.3638 112.72 68.3373C113.746 67.3109 114.323 65.9187 114.323 64.467C114.323 63.0153 113.746 61.6231 112.72 60.5966C111.693 59.5701 110.301 58.9934 108.849 58.9934H99.0472V55.0185L108.849 55.0105ZM99.397 46.7307H108.849C109.594 46.7307 110.308 47.0263 110.834 47.5526C111.36 48.0789 111.656 48.7927 111.656 49.537C111.656 50.2813 111.36 50.9951 110.834 51.5214C110.308 52.0477 109.594 52.3433 108.849 52.3433H99.397V46.7307ZM99.397 31.8067H108.849C109.224 31.7967 109.597 31.8619 109.946 31.9984C110.295 32.1349 110.613 32.3399 110.882 32.6014C111.151 32.8629 111.364 33.1755 111.51 33.5208C111.655 33.8662 111.73 34.2372 111.73 34.612C111.73 34.9868 111.655 35.3578 111.51 35.7031C111.364 36.0485 111.151 36.3611 110.882 36.6226C110.613 36.8841 110.295 37.0891 109.946 37.2256C109.597 37.3621 109.224 37.4273 108.849 37.4173H99.397V31.8067ZM15.0144 37.4173H5.56192C5.18724 37.4273 4.81434 37.3621 4.46526 37.2256C4.11618 37.0891 3.798 36.8841 3.52946 36.6226C3.26092 36.3611 3.04748 36.0485 2.90175 35.7031C2.75601 35.3578 2.68092 34.9868 2.68092 34.612C2.68092 34.2372 2.75601 33.8662 2.90175 33.5208C3.04748 33.1755 3.26092 32.8629 3.52946 32.6014C3.798 32.3399 4.11618 32.1349 4.46526 31.9984C4.81434 31.8619 5.18724 31.7967 5.56192 31.8067H15.0144V37.4173ZM15.0144 52.3433H5.56192C4.81764 52.3433 4.10383 52.0477 3.57754 51.5214C3.05126 50.9951 2.7556 50.2813 2.7556 49.537C2.7556 48.7927 3.05126 48.0789 3.57754 47.5526C4.10383 47.0263 4.81764 46.7307 5.56192 46.7307H15.0144V52.3433ZM15.0144 67.2693H5.56192C4.81764 67.2693 4.10383 66.9737 3.57754 66.4474C3.05126 65.9211 2.7556 65.2073 2.7556 64.463C2.7556 63.7187 3.05126 63.0049 3.57754 62.4786C4.10383 61.9523 4.81764 61.6567 5.56192 61.6567H15.0144V67.2693ZM15.0144 82.1934H5.56192C5.18724 82.2033 4.81434 82.1381 4.46526 82.0016C4.11618 81.8651 3.798 81.6601 3.52946 81.3986C3.26092 81.1371 3.04748 80.8245 2.90175 80.4792C2.75601 80.1338 2.68092 79.7628 2.68092 79.388C2.68092 79.0132 2.75601 78.6422 2.90175 78.2969C3.04748 77.9515 3.26092 77.6389 3.52946 77.3774C3.798 77.1159 4.11618 76.9109 4.46526 76.7744C4.81434 76.6379 5.18724 76.5727 5.56192 76.5827H15.0144V82.1934ZM99.397 76.5827H108.849C109.224 76.5727 109.597 76.6379 109.946 76.7744C110.295 76.9109 110.613 77.1159 110.882 77.3774C111.151 77.6389 111.364 77.9515 111.51 78.2969C111.655 78.6422 111.73 79.0132 111.73 79.388C111.73 79.7628 111.655 80.1338 111.51 80.4792C111.364 80.8245 111.151 81.1371 110.882 81.3986C110.613 81.6601 110.295 81.8651 109.946 82.0016C109.597 82.1381 109.224 82.2033 108.849 82.1934H99.397V76.5827ZM99.397 61.6567H108.849C109.594 61.6567 110.308 61.9523 110.834 62.4786C111.36 63.0049 111.656 63.7187 111.656 64.463C111.656 65.2073 111.36 65.9211 110.834 66.4474C110.308 66.9737 109.594 67.2693 108.849 67.2693H99.397V61.6567ZM77.01 5.57783C77.01 4.83354 77.3057 4.11974 77.8319 3.59345C78.3582 3.06717 79.072 2.7715 79.8163 2.7715C80.5606 2.7715 81.2744 3.06717 81.8007 3.59345C82.327 4.11974 82.6226 4.83354 82.6226 5.57783V15.0263H77.01V5.57783ZM62.084 5.57783C62.084 4.83354 62.3797 4.11974 62.9059 3.59345C63.4322 3.06717 64.146 2.7715 64.8903 2.7715C65.6346 2.7715 66.3484 3.06717 66.8747 3.59345C67.401 4.11974 67.6966 4.83354 67.6966 5.57783V15.0263H62.084V5.57783ZM47.16 5.57783C47.15 5.20314 47.2152 4.83026 47.3517 4.48118C47.4882 4.1321 47.6932 3.81389 47.9547 3.54536C48.2162 3.27682 48.5288 3.06338 48.8741 2.91764C49.2195 2.77191 49.5905 2.69682 49.9653 2.69682C50.3401 2.69682 50.7111 2.77191 51.0565 2.91764C51.4018 3.06338 51.7144 3.27682 51.9759 3.54536C52.2374 3.81389 52.4424 4.1321 52.5789 4.48118C52.7154 4.83026 52.7806 5.20314 52.7706 5.57783V15.0263H47.16V5.57783ZM32.234 5.57783C32.234 4.83354 32.5296 4.11974 33.0559 3.59345C33.5822 3.06717 34.296 2.7715 35.0403 2.7715C35.7846 2.7715 36.4984 3.06717 37.0247 3.59345C37.5509 4.11974 37.8466 4.83354 37.8466 5.57783V15.0263H32.2399L32.234 5.57783ZM37.8466 108.422C37.8466 109.166 37.5509 109.88 37.0247 110.407C36.4984 110.933 35.7846 111.229 35.0403 111.229C34.296 111.229 33.5822 110.933 33.0559 110.407C32.5296 109.88 32.234 109.166 32.234 108.422V98.9697H37.8466V108.422ZM52.7706 108.422C52.7806 108.797 52.7154 109.17 52.5789 109.519C52.4424 109.868 52.2374 110.186 51.9759 110.455C51.7144 110.723 51.4018 110.937 51.0565 111.082C50.7111 111.228 50.3401 111.303 49.9653 111.303C49.5905 111.303 49.2195 111.228 48.8741 111.082C48.5288 110.937 48.2162 110.723 47.9547 110.455C47.6932 110.186 47.4882 109.868 47.3517 109.519C47.2152 109.17 47.15 108.797 47.16 108.422V98.9697H52.7706V108.422ZM67.6966 108.422C67.6966 109.166 67.401 109.88 66.8747 110.407C66.3484 110.933 65.6346 111.229 64.8903 111.229C64.146 111.229 63.4322 110.933 62.9059 110.407C62.3797 109.88 62.084 109.166 62.084 108.422V98.9697H67.6966V108.422ZM82.6226 108.422C82.6226 109.166 82.327 109.88 81.8007 110.407C81.2744 110.933 80.5606 111.229 79.8163 111.229C79.072 111.229 78.3582 110.933 77.8319 110.407C77.3057 109.88 77.01 109.166 77.01 108.422V98.9697H82.6226V108.422ZM96.382 95.3445C96.3815 95.5988 96.2801 95.8424 96.1001 96.022C95.9202 96.2016 95.6763 96.3025 95.422 96.3025H18.735C18.4807 96.3025 18.2368 96.2016 18.0569 96.022C17.8769 95.8424 17.7755 95.5988 17.775 95.3445V18.6555C17.7755 18.4012 17.8769 18.1576 18.0569 17.978C18.2368 17.7984 18.4807 17.6975 18.735 17.6975H95.422C95.6763 17.6975 95.9202 17.7984 96.1001 17.978C96.2801 18.1576 96.3815 18.4012 96.382 18.6555V95.3445Z" fill="white"/>
    <path d="M45.5244 61.2691C44.97 61.7614 44.2504 62.0268 43.5091 62.0124C43.0177 62.0274 42.5293 61.9297 42.0815 61.7268C41.6336 61.5238 41.2382 61.2211 40.9254 60.8418C40.2629 60.0614 39.9316 58.751 39.9316 56.9105C39.9316 55.1775 40.2675 53.9234 40.9393 53.1482C41.2629 52.7708 41.6672 52.4711 42.1224 52.2712C42.5776 52.0713 43.0719 51.9764 43.5688 51.9935C44.2877 51.9661 44.9925 52.1976 45.5553 52.6458C46.118 53.0941 46.5013 53.7293 46.6355 54.4361L49.5451 53.7405C49.2139 52.5758 48.7177 51.6828 48.0565 51.0614C46.9435 50.008 45.4973 49.4813 43.7178 49.4813C41.6813 49.4813 40.037 50.1518 38.7849 51.4927C37.5328 52.8335 36.9074 54.7144 36.9087 57.1351C36.9087 59.4247 37.5308 61.2293 38.7749 62.549C40.0191 63.8687 41.6091 64.5312 43.5449 64.5365C45.1071 64.5365 46.3956 64.1509 47.4106 63.3798C48.4255 62.6087 49.1542 61.4288 49.5968 59.8401L46.7467 58.9378C46.495 59.9951 46.0876 60.7722 45.5244 61.2691Z" fill="white"/>
    <path d="M60.3134 49.9425C59.7701 49.7981 58.6061 49.7252 56.8214 49.7239H52.115V64.2762H55.0545V58.7868H56.9684C57.9886 58.8135 59.0091 58.747 60.0172 58.5881C60.5655 58.4617 61.0831 58.2273 61.5396 57.8984C62.0613 57.5267 62.4854 57.0344 62.7759 56.4634C63.1207 55.7642 63.2879 54.9908 63.2628 54.2116C63.2628 53.0522 62.9812 52.1075 62.4181 51.3775C61.9017 50.6721 61.1587 50.1655 60.3134 49.9425ZM59.892 55.3723C59.667 55.6997 59.3463 55.9496 58.9738 56.0878C58.5843 56.2388 57.8104 56.3144 56.6524 56.3144H55.0445V52.1923H56.4636C57.17 52.1729 57.8768 52.2061 58.5783 52.2917C59.0334 52.3664 59.4497 52.5934 59.7588 52.9356C60.0752 53.2977 60.2416 53.7669 60.2239 54.2474C60.2315 54.6476 60.1156 55.0403 59.892 55.3723Z" fill="white"/>
    <path d="M74.309 57.7752C74.3291 58.6007 74.2859 59.4266 74.1798 60.2456C74.0922 60.7453 73.8198 61.1938 73.4166 61.5017C72.9926 61.8409 72.3639 62.0112 71.5305 62.0125C70.6971 62.0138 70.0505 61.8336 69.5907 61.4719C69.1235 61.1217 68.8033 60.6102 68.6924 60.0369C68.6182 59.6673 68.5817 58.857 68.5831 57.6062V49.7239H65.6436V57.487C65.6436 59.1154 65.7396 60.3463 65.9318 61.1797C66.0802 61.7729 66.3624 62.3242 66.7566 62.7916C67.2165 63.3373 67.7996 63.7658 68.4578 64.0417C69.1747 64.3637 70.2287 64.5247 71.6199 64.5247C72.77 64.5247 73.7028 64.3769 74.4183 64.0815C75.0759 63.8255 75.6631 63.4167 76.1315 62.889C76.5719 62.3628 76.8739 61.735 77.01 61.0625C77.169 60.3404 77.2485 59.1061 77.2485 57.3598V49.7239H74.309V57.7752Z" fill="white"/>
</svg>
