<svg width="109" height="94" viewBox="0 0 109 94" fill="none" xmlns="http://www.w3.org/2000/svg">
    <path fill-rule="evenodd" clip-rule="evenodd" d="M46.6762 68.1179C47.5146 68.9581 47.5146 70.3205 46.6762 71.1606C45.8378 72.0007 44.4782 72.0007 43.6398 71.1606L36.865 64.3717C36.0266 63.5315 36.0266 62.1692 36.865 61.329L43.6398 54.5401C44.4782 53.7 45.8378 53.7 46.6762 54.5401C47.5146 55.3802 47.5146 56.7426 46.6762 57.5828L41.4194 62.8505L46.6762 68.1179ZM65.3599 71.1606C64.5216 72.0007 63.162 72.0007 62.3236 71.1606C61.4852 70.3205 61.4852 68.9581 62.3236 68.1179L67.5801 62.8502L62.3236 57.5825C61.4852 56.7424 61.4852 55.38 62.3236 54.5399C63.162 53.6997 64.5216 53.6997 65.3599 54.5399L72.1348 61.3288C72.9732 62.1689 72.9732 63.5313 72.1348 64.3714L65.3599 71.1604V71.1606ZM55.6928 50.0863C55.9984 48.9397 57.174 48.2586 58.3181 48.5651C59.4621 48.8717 60.142 50.0495 59.8361 51.1959L53.3068 75.6148C53.0011 76.7614 51.8255 77.4425 50.6815 77.136C49.5374 76.8295 48.8575 75.6517 49.1634 74.5052L55.6928 50.0863ZM15.3645 14.0214C14.1787 14.0214 13.2172 13.0579 13.2172 11.8696C13.2172 10.6813 14.1787 9.71781 15.3645 9.71781H15.4185C16.6044 9.71781 17.5658 10.6813 17.5658 11.8696C17.5658 13.0579 16.6044 14.0214 15.4185 14.0214H15.3645ZM25.3902 14.0214C24.2044 14.0214 23.2429 13.0579 23.2429 11.8696C23.2429 10.6813 24.2044 9.71781 25.3902 9.71781H25.4443C26.6301 9.71781 27.5916 10.6813 27.5916 11.8696C27.5916 13.0579 26.6301 14.0214 25.4443 14.0214H25.3902ZM35.9104 14.0214C34.7245 14.0214 33.763 13.0579 33.763 11.8696C33.763 10.6813 34.7245 9.71781 35.9104 9.71781H93.6353C94.8211 9.71781 95.7826 10.6813 95.7826 11.8696C95.7826 13.0579 94.8211 14.0214 93.6353 14.0214H35.9104ZM6.21506 0C4.50375 0 2.94936 0.699964 1.82416 1.82796C0.698737 2.95573 0 4.51313 0 6.228V87.772C0 89.4869 0.69851 91.0445 1.82416 92.172C2.94959 93.2998 4.50375 94 6.21506 94H102.785C104.496 94 106.05 93.3 107.176 92.172C108.301 91.0443 109 89.4869 109 87.772V6.228C109 4.51313 108.301 2.95551 107.176 1.82796C106.05 0.700192 104.496 0 102.785 0H6.21506ZM104.705 23.4224H4.29461V87.772C4.29461 88.299 4.51125 88.7799 4.86027 89.1294C5.2093 89.4791 5.68913 89.6962 6.21506 89.6962H102.785C103.311 89.6962 103.79 89.4791 104.14 89.1294C104.489 88.7796 104.705 88.2988 104.705 87.772V23.4224ZM4.29461 19.1189H104.705V6.228C104.705 5.70098 104.489 5.22015 104.14 4.87039C103.791 4.52064 103.311 4.30355 102.785 4.30355H6.21506C5.68913 4.30355 5.2093 4.52087 4.86027 4.87039C4.51125 5.21992 4.29461 5.70098 4.29461 6.228V19.1189ZM35.8257 37.1313C32.411 40.5531 30.1399 45.1208 29.6363 50.209H29.5656C25.0174 50.209 20.884 52.072 17.8888 55.0735C14.8935 58.075 13.0344 62.2169 13.0344 66.7747C13.0344 71.3324 14.8935 75.4744 17.8888 78.4759C20.884 81.4773 25.0174 83.3403 29.5656 83.3403H79.4341C83.9824 83.3403 88.1158 81.4773 91.111 78.4759C94.1063 75.4744 95.9654 71.3324 95.9654 66.7747C95.9654 63.0518 94.7212 59.6035 92.6286 56.8261C90.8085 54.4106 88.3438 52.5053 85.4959 51.3711C85.2604 48.6921 84.0776 46.285 82.2852 44.4889C80.2748 42.4744 77.4974 41.228 74.4299 41.228C73.2055 41.228 72.0144 41.4337 70.8901 41.8131C70.5722 41.9205 70.2602 42.042 69.9554 42.1772C68.3075 39.107 65.9376 36.4837 63.0737 34.5356C59.6284 32.192 55.48 30.8228 51.0232 30.8228C45.0884 30.8228 39.7149 33.2337 35.8254 37.1313H35.8257ZM51.0235 35.1263C46.274 35.1263 41.9742 37.0553 38.862 40.174C35.7498 43.2927 33.8248 47.6014 33.8248 52.3608C33.8248 53.5493 32.8633 54.5126 31.6775 54.5126H29.5659C26.203 54.5126 23.1442 55.8927 20.9251 58.1161C18.7063 60.3396 17.329 63.4048 17.329 66.7749C17.329 70.145 18.7063 73.21 20.9251 75.4337C23.1439 77.6573 26.2027 79.0372 29.5659 79.0372H79.4344C82.7973 79.0372 85.8561 77.6571 88.0751 75.4337C90.2942 73.2102 91.6712 70.145 91.6712 66.7749C91.6712 64.0171 90.7525 61.4662 89.2069 59.415C87.6196 57.3083 85.3749 55.7254 82.7877 54.982C81.7629 54.6898 81.1255 53.6988 81.2431 52.6716L81.249 52.5713C81.2515 52.4921 81.2451 52.5863 81.2451 52.3608C81.2451 50.4748 80.4824 48.7674 79.2493 47.5318C78.0162 46.2962 76.3124 45.5318 74.4304 45.5318C73.6544 45.5318 72.9214 45.6547 72.2494 45.8816C71.5375 46.1216 70.8813 46.4737 70.3017 46.9154C69.3614 47.6301 68.0207 47.4458 67.3072 46.5035C67.1873 46.3451 67.0926 46.1751 67.0229 45.9988H67.022C65.7401 42.7647 63.5097 40.0108 60.675 38.0827C57.9318 36.2168 54.6103 35.1266 51.0235 35.1266V35.1263Z" fill="#3498DB"/>
</svg>
