<svg width="94" height="94" viewBox="0 0 94 94" fill="none" xmlns="http://www.w3.org/2000/svg">
    <path d="M32.0615 0C34.0589 1.67032e-05 36.0082 0.61979 37.6387 1.77344C39.2687 2.92692 40.5013 4.55746 41.166 6.44043L41.5312 7.47461H45.1318C47.197 7.47461 49.1783 8.29564 50.6387 9.75586C52.0238 11.141 52.8324 12.9947 52.9121 14.9443H54.4688C57.0291 14.9443 59.4854 15.9612 61.2959 17.7715C63.1062 19.5819 64.1239 22.0384 64.124 24.5986V54.3418C65.6901 53.5908 67.3517 53.0329 69.0732 52.6904C73.1189 51.8858 77.3121 52.2996 81.123 53.8779C84.9342 55.4566 88.1925 58.1297 90.4844 61.5596C92.633 64.7752 93.8425 68.5213 93.9854 72.376L94 73.1484C93.994 78.6783 91.7941 83.9804 87.8838 87.8906C83.9734 91.8008 78.6716 93.999 73.1416 94.0049C69.1036 94.0047 65.1556 92.831 61.7734 90.6318C61.1565 91.349 60.4369 91.9773 59.6309 92.4902C58.086 93.4732 56.2939 93.9988 54.4629 94.0059H9.65332C7.09319 94.0056 4.63745 92.988 2.82715 91.1777C1.01701 89.3673 2.44559e-05 86.9117 0 84.3516V24.5986C0.000122676 22.0383 1.01673 19.5819 2.82715 17.7715C4.63745 15.9612 7.0932 14.9446 9.65332 14.9443H11.2109C11.2906 12.9948 12.0993 11.141 13.4844 9.75586C14.9446 8.29573 16.9253 7.47474 18.9902 7.47461H22.5928L22.958 6.44043C23.6228 4.55739 24.8552 2.9269 26.4854 1.77344C28.1158 0.619832 30.0642 6.24085e-05 32.0615 0ZM9.65332 19.3145C8.25226 19.3147 6.90869 19.8716 5.91797 20.8623C4.92713 21.8531 4.37024 23.1974 4.37012 24.5986V84.3516C4.37014 85.7527 4.9273 87.097 5.91797 88.0879C6.90866 89.0784 8.2524 89.6355 9.65332 89.6357H54.4766C55.4752 89.6305 56.4523 89.3423 57.2939 88.8047C57.6988 88.546 58.0629 88.233 58.3809 87.8789C56.4606 85.9544 54.9226 83.666 53.8721 81.1299C52.2935 77.3188 51.8799 73.125 52.6846 69.0791C53.4894 65.033 55.4765 61.3165 58.3936 58.3994C58.8289 57.9641 59.2835 57.5513 59.7529 57.1582V24.5986C59.7528 23.1974 59.1958 21.8531 58.2051 20.8623C57.2142 19.8716 55.87 19.3145 54.4688 19.3145H51.7812C51.4619 19.8384 51.0797 20.3276 50.6387 20.7686C49.1784 22.2287 47.1969 23.0488 45.1318 23.0488H18.9902C16.9252 23.0487 14.9446 22.2288 13.4844 20.7686C13.0434 20.3276 12.6621 19.8383 12.3428 19.3145H9.65332ZM73.1426 56.6602C69.8816 56.6602 66.6928 57.6278 63.9814 59.4395C61.2703 61.2511 59.157 63.8263 57.9092 66.8389C56.6615 69.8514 56.3347 73.1662 56.9707 76.3643C57.6069 79.5624 59.1777 82.5008 61.4834 84.8066C63.7892 87.1123 66.7276 88.6822 69.9258 89.3184C73.124 89.9544 76.4395 89.6287 79.4521 88.3809C82.4647 87.1329 85.04 85.0189 86.8516 82.3076C88.6629 79.5965 89.6288 76.409 89.6289 73.1484C89.6289 68.7757 87.8927 64.5813 84.8008 61.4893C81.7089 58.3975 77.5151 56.6603 73.1426 56.6602ZM80.585 67.2744C81.1575 67.2796 81.7054 67.5093 82.1104 67.9141C82.5154 68.3192 82.745 68.8676 82.75 69.4404C82.755 70.0132 82.5345 70.5645 82.1367 70.9766L70.9521 82.1621C70.5426 82.5718 69.9866 82.8025 69.4072 82.8027H69.4043C69.29 82.8029 69.1753 82.7931 69.0625 82.7744L69.0566 82.7734C68.7148 82.7181 68.3904 82.5829 68.1113 82.3779C67.8321 82.1728 67.6052 81.9036 67.4502 81.5938L63.7158 74.124C63.4573 73.6056 63.4153 73.0056 63.5986 72.4561C63.7823 71.9061 64.1767 71.4505 64.6953 71.1914C65.2141 70.9323 65.8152 70.8897 66.3652 71.0732C66.9152 71.2569 67.3698 71.6522 67.6289 72.1709L70.0059 76.9297L79.0469 67.8877C79.459 67.4897 80.012 67.2694 80.585 67.2744ZM47.001 67.2285C47.5801 67.2288 48.1354 67.4587 48.5449 67.8682C48.9546 68.2778 49.1854 68.8337 49.1855 69.4131C49.1855 69.9926 48.9547 70.5492 48.5449 70.959C48.1354 71.3684 47.58 71.5984 47.001 71.5986H17.123C16.5439 71.5985 15.9887 71.3683 15.5791 70.959C15.1693 70.5492 14.9385 69.9926 14.9385 69.4131C14.9386 68.8337 15.1694 68.2778 15.5791 67.8682C15.9887 67.4588 16.5439 67.2286 17.123 67.2285H47.001ZM47.001 52.29C47.5802 52.2903 48.1354 52.5211 48.5449 52.9307C48.9545 53.3403 49.1854 53.8954 49.1855 54.4746C49.1855 55.0541 48.9547 55.6107 48.5449 56.0205C48.1354 56.4299 47.5801 56.6599 47.001 56.6602H17.123C16.5439 56.66 15.9887 56.4299 15.5791 56.0205C15.1693 55.6107 14.9385 55.0541 14.9385 54.4746C14.9386 53.8953 15.1695 53.3403 15.5791 52.9307C15.9888 52.521 16.5437 52.2901 17.123 52.29H47.001ZM32.0615 37.3525C32.641 37.3526 33.1976 37.5824 33.6074 37.9922C34.0169 38.4019 34.247 38.9578 34.2471 39.5371C34.247 40.1163 34.0169 40.6724 33.6074 41.082C33.1977 41.4917 32.641 41.7226 32.0615 41.7227H17.123C16.5438 41.7225 15.9888 41.4915 15.5791 41.082C15.1694 40.6723 14.9386 40.1165 14.9385 39.5371C14.9385 38.9576 15.1693 38.402 15.5791 37.9922C15.9888 37.5826 16.5438 37.3526 17.123 37.3525H32.0615ZM32.0615 4.37598C30.6602 4.37606 29.3161 4.93393 28.3252 5.9248C27.3347 6.91559 26.7784 8.25916 26.7783 9.66016C26.7782 10.2395 26.5473 10.7954 26.1377 11.2051C25.728 11.6147 25.1721 11.8456 24.5928 11.8457H18.9902C18.0842 11.8458 17.2149 12.206 16.5742 12.8467C15.9338 13.4874 15.5732 14.3568 15.5732 15.2627C15.5733 15.593 15.622 15.9183 15.7139 16.2295C15.7641 16.3408 15.8049 16.4559 15.8359 16.5742C16.006 16.9832 16.255 17.3595 16.5742 17.6787C17.2149 18.3193 18.0843 18.6786 18.9902 18.6787H45.1318C46.0377 18.6787 46.9072 18.319 47.5479 17.6787C47.8681 17.3585 48.1187 16.9808 48.2891 16.5703C48.3199 16.4537 48.3597 16.3402 48.4092 16.2305C48.5014 15.919 48.5498 15.5933 48.5498 15.2627C48.5498 14.3565 48.1886 13.4874 47.5479 12.8467C46.9071 12.206 46.0379 11.8457 45.1318 11.8457H39.5303C38.951 11.8455 38.396 11.6146 37.9863 11.2051C37.5766 10.7954 37.3458 10.2395 37.3457 9.66016C37.3456 8.25906 36.7885 6.91561 35.7979 5.9248C34.8069 4.93389 33.4629 4.376 32.0615 4.37598Z" fill="#3498DB"/>
</svg>
