<svg width="79" height="89" viewBox="0 0 79 89" fill="none" xmlns="http://www.w3.org/2000/svg">
    <path d="M7.1394 79.9609L0 0H78.5333L71.394 79.9609L39.1796 89" fill="#0C73B8"/>
    <path d="M39.3538 82.0469L65.2994 74.9199L71.394 6.43164H39.3538" fill="#30A9DC"/>
    <path d="M39.3537 36.1562H16.3683L17.239 46.0645H39.3537V36.1562ZM39.3537 16.3398H14.627L15.4977 26.0742H39.3537V16.3398ZM39.3537 61.709L17.7614 55.9727L18.9803 66.4023L39.3537 71.9648V61.709Z" fill="#ECEDEE"/>
    <path d="M39.3538 46.0645H51.3688L50.1499 58.7539L39.3538 61.709V71.9648L59.3789 66.4023L63.9063 16.3398H39.3538V26.0742H53.2843L52.2395 36.1562H39.3538V46.0645Z" fill="white"/>
</svg>
