<svg xmlns="http://www.w3.org/2000/svg" xml:space="preserve" width="307" height="307" class="face" viewBox="0 0 307.3 307.3"><path fill="#f60" d="m153.6 2.8 4.9-2.8 4.6 3.1 5-2.5 4.5 3.4 5.1-2.2 4.2 3.7 5.3-1.9 4 3.9 5.3-1.5 3.8 4.2 5.4-1.2 3.5 4.4 5.5-.8 3.2 4.6 5.5-.5 2.9 4.8 5.6-.2 2.6 5 5.6.2 2.2 5.1 5.6.6 1.9 5.2 5.5.9 1.6 5.4 5.4 1.2 1.3 5.5L269 52l.9 5.5 5.2 1.9.6 5.6 5.1 2.2.2 5.6 5 2.6-.2 5.6 4.8 2.9-.5 5.5 4.6 3.2-.8 5.5 4.4 3.5-1.2 5.4 4.2 3.8-1.5 5.3 3.9 4-1.9 5.3 3.7 4.2-2.2 5.1 3.4 4.5-2.5 5 3.1 4.6-2.8 4.8 2.8 4.9-3.1 4.6 2.5 5-3.4 4.5 2.2 5.1-3.7 4.2 1.9 5.3-3.9 4 1.5 5.3-4.2 3.8 1.2 5.4-4.4 3.5.8 5.5-4.6 3.2.5 5.5-4.8 2.9.2 5.6-5 2.6-.2 5.6-5.1 2.2-.6 5.6-5.2 1.9-.9 5.5-5.4 1.6-1.3 5.4-5.4 1.3-1.6 5.4-5.5.9-1.9 5.2-5.6.6-2.2 5.1-5.6.2-2.6 5-5.6-.2-2.9 4.8-5.5-.5-3.2 4.6-5.5-.8-3.5 4.4-5.4-1.2-3.8 4.2-5.3-1.5-4 3.9-5.3-1.9-4.2 3.7-5.1-2.2-4.5 3.4-5-2.5-4.6 3.1-4.9-2.8-4.8 2.8-4.6-3.1-5 2.5-4.5-3.4-5.1 2.2-4.2-3.7-5.3 1.9-4-3.9-5.3 1.5-3.8-4.2-5.4 1.2-3.5-4.4-5.5.8-3.2-4.6-5.5.5-2.9-4.8-5.6.2-2.6-5-5.6-.2-2.2-5.1-5.6-.6-1.9-5.2-5.5-.9-1.6-5.4-5.5-1.3-1.2-5.4-5.4-1.6-.9-5.5-5.2-1.9-.6-5.6-5.1-2.2-.2-5.6-5-2.6.2-5.6-4.8-2.9.5-5.5-4.6-3.2.8-5.5-4.4-3.5 1.2-5.4-4.2-3.8 1.5-5.3-3.9-4 1.9-5.3-3.7-4.2 2.2-5.1-3.4-4.5 2.5-5-3.1-4.6 2.8-4.9-2.8-4.8 3.1-4.6-2.5-5 3.4-4.5-2.2-5.1 3.7-4.2-1.9-5.3 3.9-4-1.5-5.3 4.2-3.8-1.2-5.4 4.4-3.5-.8-5.5 4.6-3.2-.5-5.5 4.8-2.9-.2-5.6 5-2.6.2-5.6 5.1-2.2.6-5.6 5.2-1.9.9-5.5 5.4-1.6 1.2-5.5 5.5-1.2 1.6-5.4 5.5-.9 1.9-5.2 5.6-.6 2.2-5.1 5.6-.2 2.6-5 5.6.2 2.9-4.8 5.5.5 3.2-4.6 5.5.8 3.5-4.4 5.4 1.2 3.8-4.2 5.3 1.5 4-3.9 5.3 1.9 4.2-3.7 5.1 2.2 4.5-3.4 5 2.5 4.6-3.1z"/><circle cx="153.2" cy="153.6" r="142.7" fill="#962058"/><path fill="#832058" d="M153.2 296.4c-78.8 0-142.7-63.9-142.7-142.7S74.3 10.9 153.2 10.9"/><path fill="#f1c40f" d="M154 93.6h14.1c.9-7 17.5-15.8 19-35.8 1.4-18.8-14.4-34.2-33.3-34.2S119.1 39 120.5 57.8c1.5 20 18.1 28.8 19 35.8H154"/><path fill="#f39c12" d="M153.6 23.6c-18.8.1-34.6 15.4-33.1 34.2 1.5 20 18.1 28.8 19 35.8h14.1z"/><path fill="#95a5a6" d="M139.5 98.7h28.6v5.1h-28.6z"/><path fill="#bdc3c7" d="M139.5 103.7h28.6v5.1h-28.6z"/><path fill="#95a5a6" d="M139.5 108.8h28.6v5.1h-28.6z"/><path fill="#303030" d="M153.6 113.9h-14.1l7.1 6h14.1l7.1-6z"/><path fill="#bdc3c7" d="M153.6 119.9h-7.1s1.1 3 7.1 3 7.1-3 7.1-3z"/><path d="M153.6 113.9h-14.1l7.1 6h7z"/><path fill="#95a5a6" d="M153.6 119.9h-7.1s1.1 3 7.1 3z"/><path fill="#e67e22" d="M172.2 54c-.5-.2-1 .1-1.2.6l-.2.5-2.9-3.6-4.8 4.8-4.7-4.5-4.8 3.9-4.8-3.9-4.7 4.5-4.8-4.8-2.9 3.6-.2-.5c-.2-.5-.7-.7-1.2-.6-.5.2-.7.7-.6 1.2l13.5 38.7c.1.4.5.6.9.6.1 0 .2 0 .3-.1.5-.2.7-.7.6-1.2l-12.3-35.1 2.1-2.5 4.5 4.5 4.9-4.7 4.6 3.7 4.6-3.7 4.9 4.7 4.5-4.5 2.1 2.5-12.3 35.1c-.2.5.1 1 .6 1.2.1 0 .2.1.3.1q.6 0 .9-.6l13.5-38.7c.3-.5.1-1-.4-1.2"/><path fill="#e67e22" d="m137.5 58.1 2.1-2.5 4.5 4.5 4.9-4.7 4.6 3.7v-3.6l-4.8-3.9-4.7 4.5-4.8-4.8-2.9 3.6-.2-.5c-.2-.5-.7-.7-1.2-.6-.5.2-.7.7-.6 1.2l13.5 38.7c.1.4.5.6.9.6.1 0 .2 0 .3-.1.5-.2.7-.7.6-1.2z"/><path fill="#7f8c8d" d="M139.5 98.7h14.1v5.1h-14.1z"/><path fill="#bdc3c7" d="M139.5 93.6h28.6v5.1h-28.6z"/><path fill="#95a5a6" d="M139.5 103.7h14.1v5.1h-14.1z"/><path fill="#7f8c8d" d="M139.5 108.8h14.1v5.1h-14.1z"/><path fill="#95a5a6" d="M139.5 93.6h14.1v5.1h-14.1z"/><path fill="#d98e45" d="m98.6 200.5-14.5 1.4c-4.7.4-8.9-3-9.4-7.8L73 175.3c-.4-4.7 3-8.9 7.8-9.4l14.5-1.4c4.7-.4 8.9 3 9.4 7.8l1.7 18.7c.4 4.8-3 9-7.8 9.5"/><path fill="#ffc389" d="m208.7 200.5 14.5 1.4c4.7.4 8.9-3 9.4-7.8l1.7-18.7c.4-4.7-3-8.9-7.8-9.4l-14.5-1.4c-4.7-.4-8.9 3-9.4 7.8l-1.7 18.7c-.5 4.7 3 8.9 7.8 9.4"/><path fill="#ffc389" d="M153.6 264.1h38.9l18.1-38.2 6.2-89.7-15.8-17.6-47.4-4.7-47.3 4.7-15.8 17.6 6.2 89.7 18.1 38.2z"/><path fill="#ffb064" d="M153.6 264.1h-38.8l-18.1-38.2-6.2-89.7 15.8-17.6 47.3-4.7z"/><path fill="#df712e" d="M165.6 235.1h-23.9c-1.5 0-2.8-1.2-2.8-2.8s1.2-2.8 2.8-2.8h23.9c1.5 0 2.8 1.2 2.8 2.8s-1.3 2.8-2.8 2.8"/><path fill="#303030" d="M153.6 106.5c-53.8 0-70.2 15.1-67.9 48.9s1.6 120.7 42.6 120.7h50.6c41 0 40.3-86.9 42.6-120.7s-14.1-48.9-67.9-48.9m20.6 135.1c0 3.6-2.9 6.6-6.6 6.6h-28c-3.6 0-6.6-2.9-6.6-6.6v-9.1c0-3.6 2.9-6.6 6.6-6.6h28c3.6 0 6.6 2.9 6.6 6.6zm37.9-86.6c-2 45.7-8 94.4-23.8 94.4-6.5 0-6-4.8-6-9.7v-18.2c0-6.3-3.6-8.7-8.3-8.7h-40.6c-4.8 0-8.3 2.3-8.3 8.7v18.2c0 4.9.5 9.7-6 9.7-15.8 0-21.8-48.7-23.8-94.4-1.3-28.9 14.7-32 14.7-32s17.1 9.3 43.8 9.3 43.8-9.3 43.8-9.3 15.8 3.1 14.5 32"/><path fill="#d54e20" d="M153.6 229.6h-11.9c-1.5 0-2.8 1.2-2.8 2.8s1.2 2.8 2.8 2.8h11.9z"/><path d="M153.6 248.2h-14c-3.6 0-6.6-2.9-6.6-6.6v-9.1c0-3.6 2.9-6.6 6.6-6.6h14v-13.1h-20.3c-4.8 0-8.3 2.3-8.3 8.7v18.2c0 4.9.5 9.7-6 9.7-15.8 0-21.8-48.7-23.8-94.4-1.3-28.9 14.7-32 14.7-32s17.1 9.3 43.8 9.3v-25.8c-53.8 0-70.2 15.1-67.9 48.9s1.6 120.7 42.6 120.7h25.3v-27.9z"/><path d="M141.5 171.6h-23.9c-1.5 0-2.8-1.3-2.8-2.8s1.3-2.8 2.8-2.8h23.9c1.5 0 2.8 1.3 2.8 2.8 0 1.6-1.3 2.8-2.8 2.8M189.7 171.6h-23.9c-1.5 0-2.8-1.3-2.8-2.8s1.3-2.8 2.8-2.8h23.9c1.5 0 2.8 1.3 2.8 2.8 0 1.6-1.3 2.8-2.8 2.8"/><path d="M131.2 168.2c-1.6 0-2.8 1.3-2.8 2.8v4.1c0 1.6 1.3 2.8 2.8 2.8 1.6 0 2.8-1.3 2.8-2.8V171c.1-1.5-1.2-2.8-2.8-2.8M176.2 168.2c-1.6 0-2.8 1.3-2.8 2.8v4.1c0 1.6 1.3 2.8 2.8 2.8 1.6 0 2.8-1.3 2.8-2.8V171c.1-1.5-1.2-2.8-2.8-2.8"/></svg>