<svg width="1090" height="1090" viewBox="0 0 1090 1090" fill="none" xmlns="http://www.w3.org/2000/svg">
<g clip-path="url(#clip0_105_537)">
<path d="M1090 6.89435C969.239 79.7209 844.832 167.675 719.097 231.859C616.559 284.154 514.858 319.639 430.525 322.751C347.37 325.741 279.501 297.903 223.737 259.829C168.32 221.986 126.075 177.069 71.4023 153.298C50.8649 144.387 26.6069 140.207 6.30788e-06 140.892" stroke="#1B1919" stroke-width="1.33333"/>
<path d="M1090 36.8639C964.672 110.713 836.6 199.145 707.314 260.141C606.04 307.885 505.582 336.565 425.151 332.169C344.1 327.691 281.035 291.908 228.186 248.141C176.193 204.991 136.408 157.106 81.8899 133.756C59.1598 124.048 31.0814 121.177 5.18364e-06 124.812" stroke="#1B1919" stroke-width="1.33333"/>
<path d="M1090 65.2875C959.607 141.311 827.744 230.829 694.911 288.627C594.742 332.161 495.621 353.97 419.067 342.269C340.287 330.181 281.936 286.685 232.112 237.102C183.522 188.795 146.285 137.878 91.9869 114.93C67.3475 104.544 35.485 103.479 4.00391e-06 110.612" stroke="#1B1919" stroke-width="1.33333"/>
<path d="M1090 91.949C954.137 171.263 818.328 262.459 682.068 317.028C582.85 356.701 485.175 371.645 412.412 352.87C336.058 333.11 282.395 282.067 235.573 226.666C190.476 173.272 155.748 119.353 101.681 96.8213C75.3681 85.8923 39.7668 87.0749 2.77909e-06 98.1075" stroke="#1B1919" stroke-width="1.33333"/>
<path d="M1090 116.654C948.353 200.291 808.448 293.771 668.949 345.101C570.522 381.258 474.459 389.359 405.322 363.793C331.534 336.369 282.414 278.005 238.612 216.792C196.93 158.497 164.784 101.557 110.971 79.4466C83.1943 68.067 43.9125 71.9074 1.52359e-06 87.1456" stroke="#1B1919" stroke-width="1.33333"/>
<path d="M1090 139.337C942.36 228.199 798.189 324.533 655.71 372.653C557.909 405.604 463.544 407.022 397.917 374.877C326.769 339.918 282.027 274.438 241.281 207.456C202.942 144.431 173.366 84.5314 119.849 62.8186C90.7897 51.0775 47.8928 57.8773 2.48826e-07 77.5009" stroke="#1B1919" stroke-width="1.33333"/>
<path d="M1090 159.969C936.263 254.8 787.685 354.535 642.47 399.496C545.153 429.546 452.604 424.446 390.305 385.973C321.89 343.614 281.305 271.296 243.62 198.618C208.562 131.029 181.53 68.2469 128.317 46.9338C98.1272 34.9111 51.7078 44.9536 -1.02487e-06 69.0716" stroke="#1B1919" stroke-width="1.33333"/>
<path d="M1090 178.611C930.155 279.985 777.047 383.611 629.346 425.491C532.387 452.906 441.746 441.486 382.586 396.973C316.908 347.43 280.392 268.456 245.677 190.252C213.769 118.321 189.271 52.7288 136.361 31.8117C105.176 19.571 55.3393 33.0597 -2.28146e-06 61.6886" stroke="#1B1919" stroke-width="1.33333"/>
<path d="M1090 195.352C924.107 303.658 766.395 411.588 616.444 450.515C519.73 475.527 431.031 458.073 374.86 407.755C311.92 351.283 279.213 265.946 247.475 182.337C232.548 142.915 218.81 106.079 201.579 75.4572C186.317 48.4106 168.478 26.9775 143.987 17.4546C111.934 5.03766 58.7891 22.1344 -3.50573e-06 55.234" stroke="#1B1919" stroke-width="1.33333"/>
<path d="M1090 210.35C1041.19 243.054 992.358 275.905 943.123 307.475C824.238 383.682 707.528 449.887 603.851 474.475C507.29 497.304 420.578 474.072 367.203 418.237C306.953 355.115 277.899 263.662 249.052 174.871C235.544 133.314 223.121 94.7702 206.857 62.9386C192.568 35.0782 175.43 13.1546 151.188 3.87511C118.361 -8.66715 62.0373 12.1247 -4.6856e-06 49.597" stroke="#1B1919" stroke-width="1.33333"/>
<path d="M88.3848 -1.59486C61.8052 8.27327 31.5795 24.4652 0.000390501 44.6901" stroke="#1B1919" stroke-width="1.33333"/>
<path d="M1090 223.432C1037.55 259.518 985.171 295.586 932.361 330.007C812.651 408 694.79 474.911 591.654 497.269C495.173 518.099 410.443 489.405 359.695 428.325C302.097 358.846 276.439 261.613 250.433 167.829C238.292 124.253 227.191 84.0592 211.789 51.1158C201.198 28.4565 188.659 9.73026 171.997 -1.59484" stroke="#1B1919" stroke-width="1.33333"/>
<path d="M71.1211 -1.59479C48.9069 9.31248 24.8361 23.6968 0.000489168 40.4137" stroke="#1B1919" stroke-width="1.33333"/>
<path d="M1090 235.06C1034.06 274.535 978.3 313.811 922.071 351.038C801.566 430.801 682.54 498.506 579.92 518.835C483.453 537.857 400.668 504.011 352.401 437.966C297.354 362.467 274.962 259.709 251.643 161.215C240.866 115.698 230.887 74.0293 216.381 39.9995C209.42 23.684 201.425 9.39596 191.613 -1.59488" stroke="#1B1919" stroke-width="1.33333"/>
<path d="M59.92 -1.59476C40.845 9.22167 20.6691 22.218 0.000907286 36.7187" stroke="#1B1919" stroke-width="1.33333"/>
<path d="M1090 245.363C1030.74 288.196 971.76 330.623 912.29 370.586C791.019 452.067 670.866 520.622 568.724 539.103C472.232 556.471 391.317 517.826 345.383 447.091C292.76 365.939 273.447 257.969 252.702 155.029C243.194 107.708 234.303 64.639 220.636 29.6064C216.116 18.0524 211.08 7.50119 205.245 -1.59486" stroke="#1B1919" stroke-width="1.33333"/>
<path d="M51.7188 -1.59486C35.0618 8.78012 17.6963 20.6193 0.000126767 33.4867" stroke="#1B1919" stroke-width="1.33333"/>
<path d="M1090 254.455C1027.59 300.569 965.575 346.066 903.054 388.681C781.049 471.798 659.806 541.229 558.118 558.035C461.568 573.903 382.492 530.752 338.699 455.651C288.376 369.209 271.924 256.374 253.627 149.254C245.265 100.282 237.435 55.9008 224.567 19.9326C221.824 12.2736 218.845 5.056 215.558 -1.59482" stroke="#1B1919" stroke-width="1.33333"/>
<path d="M45.4825 -1.59484C30.7202 8.23696 15.4784 19.1042 0.000381946 30.7" stroke="#1B1919" stroke-width="1.33333"/>
<path d="M1090 262.47C1024.64 311.753 959.774 360.198 894.39 405.337C771.711 490 649.431 560.293 548.172 575.573C451.533 590.075 374.17 542.789 332.394 463.613C284.248 372.259 270.444 254.897 254.437 143.911C247.154 93.404 240.332 47.8057 228.172 10.9982C226.74 6.65278 225.23 2.44718 223.632 -1.5949" stroke="#1B1919" stroke-width="1.33333"/>
<path d="M39.2129 -1.59479C26.5235 7.64659 13.4653 17.6056 0.000149726 28.1386" stroke="#1B1919" stroke-width="1.33333"/>
<path d="M1090 269.463C1021.88 321.772 954.382 373.025 886.344 420.549C763.036 506.652 639.794 577.771 538.923 591.698C490.754 598.299 446.397 590.929 412.253 571.213C375.062 549.722 347.405 514.297 326.506 470.953C280.393 375.064 268.979 253.556 255.147 138.993C248.871 87.0802 242.883 40.4209 231.458 2.80135C231.007 1.32077 230.544 -0.147069 230.074 -1.59495" stroke="#1B1919" stroke-width="1.33333"/>
<path d="M35.6211 -1.59487C24.0635 7.12332 12.1989 16.3974 -5.02234e-06 26.1238" stroke="#1B1919" stroke-width="1.33333"/>
<path d="M1090 275.556C1019.33 330.704 949.414 384.588 878.94 434.342C755.074 521.758 630.919 593.683 530.425 606.36C482.298 612.409 438.278 603.902 404.71 582.936C367.995 559.944 341.116 522.806 321.081 477.636C276.847 377.609 267.66 252.31 255.763 134.513C250.533 82.7312 245.521 36.1846 235.271 -1.59484" stroke="#1B1919" stroke-width="1.33333"/>
<path d="M32.75 -1.5949C22.1026 6.65822 11.1953 15.351 0.00104389 24.4107" stroke="#1B1919" stroke-width="1.33333"/>
<path d="M1090 280.808C1017.02 338.589 944.897 394.902 872.213 446.7C747.829 535.299 622.866 607.948 522.706 619.547C474.631 625.068 430.877 615.585 397.856 593.482C361.551 569.155 335.377 530.478 316.144 483.644C273.561 379.931 266.432 251.182 256.295 130.479C252.15 80.5766 248.057 35.5778 239.473 -1.59479" stroke="#1B1919" stroke-width="1.33333"/>
<path d="M30.418 -1.5949C20.5099 6.24402 10.3783 14.4462 -0.00028491 22.9555" stroke="#1B1919" stroke-width="1.33333"/>
<path d="M1090 285.308C1014.95 345.476 940.861 403.989 866.205 457.629C741.373 547.28 615.672 620.57 515.819 631.223C467.772 636.309 424.297 625.922 391.73 602.834C355.78 577.333 330.314 537.241 311.731 488.961C270.676 381.947 265.262 250.19 256.746 126.894C253.398 78.6545 250.104 34.9873 242.867 -1.59486" stroke="#1B1919" stroke-width="1.33333"/>
<path d="M28.5411 -1.5948C19.2343 5.8935 9.72585 13.687 -0.00058307 21.7421" stroke="#1B1919" stroke-width="1.33333"/>
<path d="M1090 289.095C1013.13 351.385 937.316 411.849 860.927 467.118C735.71 557.682 609.374 631.548 509.782 641.378C461.768 646.076 418.54 634.907 386.363 610.967C350.757 584.422 325.808 543.162 307.856 493.588C268.106 383.718 264.249 249.31 257.133 123.764C254.506 76.9196 251.83 34.4042 245.613 -1.59491" stroke="#1B1919" stroke-width="1.33333"/>
<path d="M27.0391 -1.59481C18.2119 5.59919 9.20313 13.0584 -0.000103239 20.7465" stroke="#1B1919" stroke-width="1.33333"/>
<path d="M1090 292.218C1011.57 356.341 934.288 418.491 856.411 475.167C730.867 566.504 603.975 640.871 504.625 649.996C456.639 654.358 413.626 642.531 381.776 617.874C346.466 590.437 321.992 548.168 304.553 497.512C265.938 385.197 263.391 248.555 257.451 121.103C255.305 75.4517 253.153 33.8955 247.772 -1.59492" stroke="#1B1919" stroke-width="1.33333"/>
<path d="M25.8594 -1.59485C17.4101 5.36117 8.79368 12.5497 -0.000801535 19.9454" stroke="#1B1919" stroke-width="1.33333"/>
<path d="M1090 294.729C1010.28 360.378 931.787 423.926 852.691 481.76C726.874 573.734 599.544 648.485 500.379 657.067C452.41 661.165 409.553 648.799 377.996 623.527C342.903 595.387 318.858 552.263 301.825 500.722C264.127 386.418 262.688 247.921 257.707 118.914C256.003 74.2127 254.21 33.454 249.448 -1.59494" stroke="#1B1919" stroke-width="1.33333"/>
<path d="M24.9864 -1.59486C16.8205 5.17767 8.49463 12.1645 -0.000106497 19.3404" stroke="#1B1919" stroke-width="1.33333"/>
<path d="M1090 296.638C1009.27 363.491 929.819 428.145 849.775 486.901C723.747 579.361 596.056 654.463 497.055 662.573C449.106 666.452 406.368 653.686 375.04 627.942C340.127 599.235 316.362 555.471 299.685 503.226C262.734 387.35 262.071 247.441 257.907 117.21C256.466 73.2553 254.977 33.1016 250.689 -1.59493" stroke="#1B1919" stroke-width="1.33333"/>
<path d="M24.3692 -1.59492C16.3995 5.04681 8.27897 11.8901 0.000419795 18.9115" stroke="#1B1919" stroke-width="1.33333"/>
<path d="M1090 297.997C1008.55 365.715 928.411 431.164 847.68 490.575C721.506 583.394 593.551 658.74 494.668 666.511C446.717 670.263 404.125 657.145 372.918 631.094C338.147 601.974 314.574 557.762 298.153 505.012C261.68 388.047 261.705 247.076 258.043 115.983C256.86 72.5433 255.54 32.8346 251.554 -1.59488" stroke="#1B1919" stroke-width="1.33333"/>
<path d="M24 -1.59489C16.1484 4.96873 8.15145 11.7267 6.9388e-05 18.6554" stroke="#1B1919" stroke-width="1.33333"/>
<path d="M1090 298.804C1008.11 367.047 927.565 432.977 846.418 492.78C720.15 585.806 592.057 661.267 493.234 668.88C445.301 672.521 402.733 659.261 371.639 632.994C336.941 603.637 313.542 559.125 297.238 506.084C261.117 388.423 261.446 246.869 258.123 115.248C257.033 72.131 255.828 32.6857 252.039 -1.59485" stroke="#1B1919" stroke-width="1.33333"/>
<path d="M171.036 1090C175.392 1042.88 180.916 996.436 188.156 951.096C216.49 774.127 270.634 617.06 357.364 516.44C443.001 417.316 561.023 370.507 682.162 349.167C802.556 327.97 919.876 329.903 1017.09 293.711C1043.42 283.891 1067.93 269.065 1090 249.775" stroke="#1B1A1A" stroke-width="1.16267"/>
<path d="M128.98 1090C135.512 1027.02 144.076 965.239 156.008 905.672C190.203 735.289 253.816 587.312 348.237 499.643C443.457 411.355 568.891 379.026 695.909 367.459C821.015 356.174 940.378 364.28 1036.76 327.797C1055.7 320.603 1073.52 310.323 1090 297.279" stroke="#1B1A1A" stroke-width="1.16267"/>
<path d="M85.8721 1090C94.6139 1010.48 106.479 932.929 124.211 859.32C163.894 694.953 236.973 556.243 338.79 481.262C443.645 404.159 576.214 385.945 709.189 384.407C838.795 382.852 960.208 397.31 1055.71 360.625C1067.69 356.01 1079.13 349.955 1090 342.574" stroke="#1B1A1A" stroke-width="1.16267"/>
<path d="M42.659 1090C53.3882 993.319 68.532 899.69 93.0279 812.546C137.814 653.617 220.234 524.31 329.175 461.66C443.581 395.993 583.056 391.673 722.014 400.148C855.91 408.338 979.365 429.069 1073.95 392.18C1079.43 390.035 1084.78 387.544 1090 384.723" stroke="#1B1A1A" stroke-width="1.16267"/>
<path d="M0.690499 1086.3C12.9221 973.19 30.9852 864.606 62.6606 765.825C112.181 611.766 203.725 492.02 319.519 441.201C443.319 387.111 589.488 396.267 734.406 414.761C871.659 432.321 996.516 459.228 1090 423.018" stroke="#1B1A1A" stroke-width="1.16267"/>
<path d="M0.690499 829.682C9.84105 791.67 20.5684 754.875 33.2542 719.555C87.1929 569.828 187.515 459.567 309.954 420.192C442.86 377.626 595.578 399.84 746.345 428.349C879.107 453.457 999.167 484.315 1090 457.697" stroke="#1B1A1A" stroke-width="1.16267"/>
<path d="M0.690499 685.127C2.0966 681.426 3.52636 677.744 4.97969 674.08C63.0004 528.176 171.713 427.344 300.584 398.931C442.293 367.848 601.359 402.55 757.846 441C886.074 472.483 1001.6 506.947 1090 489.21" stroke="#1B1A1A" stroke-width="1.16267"/>
<path d="M0.690499 583.793C66.0923 467.606 171.541 393.641 291.492 377.656C441.635 357.811 606.865 404.69 768.913 452.786C892.63 489.53 1003.86 527.235 1090 517.592" stroke="#1B1A1A" stroke-width="1.16267"/>
<path d="M0.690498 506.527C70.3833 415.786 171.295 362.952 282.752 356.613C440.934 347.728 612.14 406.163 779.539 463.77C858.428 490.974 931.917 516.64 999.321 531.273C1031.65 538.264 1062.17 542.52 1090 542.161" stroke="#1B1A1A" stroke-width="1.16267"/>
<path d="M0.690494 443.751C72.5378 372.351 169.493 334.982 274.415 335.994C440.242 337.696 617.196 407.225 789.696 473.995C870.432 505.233 945.204 534.337 1013.49 551.45C1040.47 558.181 1066.16 562.883 1090 564.414" stroke="#1B1A1A" stroke-width="1.16267"/>
<path d="M0.690491 391.059C73.4698 334.829 166.89 309.214 266.538 315.985C439.588 327.902 622.043 407.848 799.388 483.511C881.85 518.603 957.808 551.082 1026.92 570.444C1048.94 576.615 1070.07 581.353 1090 584.021" stroke="#1B1A1A" stroke-width="1.16267"/>
<path d="M0.690488 345.909C73.6514 301.81 163.9 285.362 259.142 296.73C438.992 318.354 626.674 408.292 808.589 492.354C892.648 531.198 969.739 566.632 1039.59 588.253C1057.02 593.637 1073.88 598.084 1090 601.262" stroke="#1B1A1A" stroke-width="1.16267"/>
<path d="M0.690486 306.769C73.3699 272.481 160.755 263.291 252.264 278.371C438.467 309.162 631.086 408.506 817.269 500.542C902.82 542.878 980.946 581.14 1051.49 604.855C1064.68 609.28 1077.55 613.152 1090 616.314" stroke="#1B1A1A" stroke-width="1.16267"/>
<path d="M0.690484 272.611C72.8103 246.349 157.629 242.985 245.922 261.037C438.031 300.431 635.278 408.546 825.437 508.107C912.375 553.625 991.428 594.586 1062.59 620.274C1071.91 623.631 1081.05 626.701 1090 629.428" stroke="#1B1A1A" stroke-width="1.16267"/>
<path d="M0.690482 242.673C72.0927 222.98 154.611 224.31 240.12 244.805C437.671 292.246 639.24 408.507 833.051 515.058C921.255 563.547 1001.15 607.039 1072.88 634.486C1078.65 636.7 1084.36 638.798 1090 640.77" stroke="#1B1A1A" stroke-width="1.16267"/>
<path d="M0.69048 211.585C70.9373 198.391 150.684 207.031 234.855 229.763C437.401 284.644 642.957 408.332 840.094 521.416C929.441 572.646 1010.12 618.293 1082.33 647.503C1084.9 648.539 1087.46 649.551 1090 650.539" stroke="#1B1A1A" stroke-width="1.16267"/>
<path d="M0.690479 188.874C70.1762 180.271 148.106 191.63 230.128 215.994C437.212 277.693 646.374 408.217 846.547 527.167C936.537 580.644 1017.58 628.212 1090 658.902" stroke="#1B1A1A" stroke-width="1.16267"/>
<path d="M0.690478 169.14C69.415 164.239 145.764 177.813 225.948 203.544C437.096 271.295 649.502 408.072 852.386 532.323C940.069 586.107 1019.16 633.923 1090 666.004" stroke="#1B1A1A" stroke-width="1.16267"/>
<path d="M0.690477 152.148C68.6919 150.274 143.669 165.733 222.289 192.471C437.023 265.712 652.347 407.846 857.592 536.884C943.252 590.706 1020.58 638.746 1090 671.979" stroke="#1B1A1A" stroke-width="1.16267"/>
<path d="M0.690476 137.74C68.0379 138.292 141.858 155.161 219.146 182.796C437.003 260.755 654.848 407.658 862.148 540.847C945.993 594.776 1021.81 642.898 1090 676.957" stroke="#1B1A1A" stroke-width="1.16267"/>
<path d="M0.690475 125.754C67.4639 128.252 140.318 146.268 216.501 174.573C437.007 256.59 656.981 407.53 866.027 544.212C948.38 598.018 1022.88 646.242 1090 681.002" stroke="#1B1A1A" stroke-width="1.16267"/>
<path d="M0.690475 116.066C66.9788 120.067 139.055 139.007 214.363 167.819C437.036 253.126 658.754 407.43 869.228 546.974C950.306 600.767 1023.75 648.944 1090 684.205" stroke="#1B1A1A" stroke-width="1.16267"/>
<path d="M0.690474 108.604C66.6046 113.718 138.087 133.309 212.71 162.539C437.074 250.469 660.184 407.266 871.729 549.122C951.848 602.783 1024.44 650.986 1090 686.631" stroke="#1B1A1A" stroke-width="1.16267"/>
<path d="M0.690474 103.325C66.3357 109.208 137.393 129.24 211.533 158.763C437.11 248.475 661.165 407.252 873.524 550.659C952.913 604.336 1024.93 652.449 1090 688.328" stroke="#1B1A1A" stroke-width="1.16267"/>
<path d="M0.690474 100.167C66.165 106.52 136.966 126.85 210.828 156.498C437.123 247.403 661.779 407.189 874.603 551.582C953.585 605.153 1025.24 653.255 1090 689.309" stroke="#1B1A1A" stroke-width="1.16267"/>
</g>
<defs>
<clipPath id="clip0_105_537">
<rect width="1090" height="1090" fill="white" transform="translate(4.76454e-05 1090) rotate(-90)"/>
</clipPath>
</defs>
</svg>
