<svg width="60" height="89" viewBox="0 0 60 89" fill="none" xmlns="http://www.w3.org/2000/svg">
    <path d="M14.8333 89C23.0213 89 29.6667 82.3546 29.6667 74.1666V59.3333H14.8333C6.64533 59.3333 0 65.9786 0 74.1666C0 82.3546 6.64533 89 14.8333 89Z" fill="#0ACF83"/>
    <path d="M0 44.5C0 36.312 6.64533 29.6667 14.8333 29.6667H29.6667V59.3334H14.8333C6.64533 59.3334 0 52.688 0 44.5Z" fill="#A259FF"/>
    <path d="M0 14.8333C0 6.64533 6.64533 0 14.8333 0H29.6667V29.6667H14.8333C6.64533 29.6667 0 23.0213 0 14.8333Z" fill="#F24E1E"/>
    <path d="M29.6666 0H44.5C52.688 0 59.3333 6.64533 59.3333 14.8333C59.3333 23.0213 52.688 29.6667 44.5 29.6667H29.6666V0Z" fill="#FF7262"/>
    <path d="M59.3333 44.5C59.3333 52.688 52.688 59.3334 44.5 59.3334C36.312 59.3334 29.6666 52.688 29.6666 44.5C29.6666 36.312 36.312 29.6667 44.5 29.6667C52.688 29.6667 59.3333 36.312 59.3333 44.5Z" fill="#1ABCFE"/>
</svg>
