<svg width="122" height="94" viewBox="0 0 122 94" fill="none" xmlns="http://www.w3.org/2000/svg">
    <path d="M71.0817 43.9446C81.1993 33.8328 97.6726 33.8331 107.79 43.9446C116.643 52.7973 117.752 66.528 111.102 76.6008L109.916 78.3996L120.226 88.7098C121.437 89.9208 121.437 91.8815 120.226 93.0924C119.62 93.6987 118.831 94 118.035 94C117.238 94 116.45 93.6985 115.844 93.0924L105.534 82.7811L103.735 83.9694C99.4207 86.8184 94.4314 88.2488 89.436 88.2488C82.7829 88.2486 76.1401 85.7143 71.0817 80.6585C60.9647 70.5405 60.9642 54.0621 71.0817 43.9446ZM89.436 42.5491C84.3827 42.5492 79.319 44.4767 75.4653 48.3272L75.4642 48.3282C67.7605 56.0352 67.7605 68.5699 75.4642 76.2769L75.4653 76.278C83.1722 83.9784 95.7009 83.9784 103.408 76.278L103.409 76.2769C111.113 68.57 111.113 56.0352 103.409 48.3282L103.408 48.3272L103.043 47.9713C99.2372 44.3577 94.3315 42.5491 89.436 42.5491Z" fill="#3498DB"/>
    <path d="M21.6574 2.0504C28.6582 -1.17382 36.982 -0.587662 43.9384 3.7533L73.6653 22.3046L88.1858 15.6034L88.1847 15.6024C96.8783 11.5939 107.458 14.3449 113.875 22.645C115.11 24.2428 115.834 26.1243 115.985 28.0982L115.993 28.257C116.035 29.8977 114.784 31.2985 113.131 31.4246H113.127C111.419 31.5571 109.935 30.2804 109.805 28.5706V28.5665L109.768 28.2653C109.675 27.6709 109.448 27.1283 109.132 26.6593L108.967 26.4314C104.684 20.8995 97.5629 18.4503 91.3739 20.9772L90.7777 21.2371L74.7431 28.6325C73.7866 29.069 72.6795 28.9951 71.8046 28.4489L40.6584 9.01463L40.6553 9.01257L40.2582 8.77225C36.1394 6.34476 31.382 5.59493 26.9713 6.71041L22.9312 7.73256L47.1121 37.0954C47.7235 37.8388 47.9551 38.8247 47.7412 39.7554L47.7392 39.7606C47.5396 40.6384 46.9682 41.3822 46.1786 41.8039L46.0177 41.8843L31.6674 48.5051C30.6256 48.9808 29.4213 48.8521 28.5174 48.1874L28.341 48.0471L14.7612 36.4239C13.6309 35.4562 12.3175 34.7898 10.9367 34.4838L4.89143 33.145L22.0875 61.4073C24.6113 65.5643 29.7259 67.8635 34.2336 65.7754L34.2346 65.7764L47.8691 59.4878L47.8702 59.4867C49.423 58.7704 51.263 59.4462 51.9835 61.005C52.6762 62.515 52.0591 64.2866 50.6086 65.0472L50.4663 65.1183L36.8338 71.407C34.8741 72.3122 32.8003 72.7447 30.7267 72.7448C25.3581 72.7448 19.9577 69.8381 16.7921 64.6305L16.7911 64.6294L1.00396 38.6827C-0.0160206 37.0049 -0.267381 34.9985 0.289178 33.1831L0.396447 32.8613C0.970429 31.2839 2.13765 30.0159 3.61348 29.339L3.61967 29.3359C8.43491 27.1106 14.4172 27.9758 18.792 31.7144L30.8649 42.0462L39.7724 37.935L19.4357 13.2425L19.4336 13.2394L19.1654 12.8949C17.8776 11.134 17.3984 8.8607 17.8772 6.76405C18.3656 4.62601 19.7497 2.92811 21.6574 2.0504Z" fill="#3498DB"/>
</svg>
