<svg width="198" height="197" viewBox="0 0 198 197" fill="none" xmlns="http://www.w3.org/2000/svg">
<path d="M193.934 158.793H3.3151C2.43588 158.793 1.59267 158.444 0.970971 157.822C0.349269 157.201 0 156.358 0 155.478V42.972C0 42.0928 0.349269 41.2496 0.970971 40.6279C1.59267 40.0062 2.43588 39.6569 3.3151 39.6569H57.3098C58.1891 39.6569 59.0323 40.0062 59.654 40.6279C60.2757 41.2496 60.6249 42.0928 60.6249 42.972C60.6249 43.8512 60.2757 44.6944 59.654 45.3161C59.0323 45.9379 58.1891 46.2871 57.3098 46.2871H6.63021V152.163H190.618V46.2871H139.939C139.06 46.2871 138.216 45.9379 137.595 45.3161C136.973 44.6944 136.624 43.8512 136.624 42.972C136.624 42.0928 136.973 41.2496 137.595 40.6279C138.216 40.0062 139.06 39.6569 139.939 39.6569H193.934C194.813 39.6569 195.656 40.0062 196.278 40.6279C196.899 41.2496 197.249 42.0928 197.249 42.972V155.478C197.249 156.358 196.899 157.201 196.278 157.822C195.656 158.444 194.813 158.793 193.934 158.793Z" fill="black"/>
<path d="M114.288 177.897H82.9605C82.3105 177.902 81.6742 177.71 81.1346 177.348C80.595 176.986 80.177 176.47 79.9354 175.866C79.6792 175.267 79.6054 174.605 79.7233 173.964C79.8413 173.322 80.1457 172.73 80.5984 172.261C85.4882 167.206 85.4882 162.854 80.5984 157.757C80.1555 157.29 79.8585 156.703 79.7436 156.069C79.6287 155.436 79.7009 154.782 79.9515 154.189C80.202 153.595 80.6201 153.088 81.1544 152.728C81.6888 152.368 82.3164 152.172 82.9605 152.163H114.288C114.909 152.168 115.517 152.344 116.044 152.673C116.571 153.003 116.996 153.472 117.272 154.028C117.534 154.596 117.634 155.226 117.561 155.847C117.487 156.469 117.244 157.058 116.857 157.55C112.755 162.73 112.755 167.33 116.857 172.51C117.247 172.996 117.491 173.582 117.563 174.201C117.634 174.82 117.53 175.446 117.262 176.009C116.994 176.571 116.572 177.046 116.046 177.38C115.521 177.714 114.911 177.893 114.288 177.897ZM89.3835 171.267H108.445C107.584 169.3 107.139 167.177 107.139 165.03C107.139 162.883 107.584 160.76 108.445 158.793H89.3835C90.3628 160.726 90.8732 162.863 90.8732 165.03C90.8732 167.197 90.3628 169.333 89.3835 171.267Z" fill="black"/>
<path d="M156.887 197H40.3614C39.7623 197.001 39.174 196.84 38.6591 196.534C38.1442 196.228 37.7219 195.788 37.4371 195.261C37.1523 194.734 37.0156 194.139 37.0417 193.541C37.0677 192.942 37.2555 192.362 37.585 191.862L50.0581 172.758C50.366 172.304 50.7793 171.931 51.2628 171.671C51.7464 171.411 52.2856 171.272 52.8345 171.266H144.414C144.963 171.272 145.502 171.411 145.986 171.671C146.469 171.931 146.883 172.304 147.191 172.758L159.664 191.862C159.993 192.362 160.181 192.942 160.207 193.541C160.233 194.139 160.096 194.734 159.812 195.261C159.527 195.788 159.104 196.228 158.59 196.534C158.075 196.84 157.486 197.001 156.887 197ZM46.4943 190.37H150.754L142.632 177.897H54.6163L46.4943 190.37ZM94.1904 65.8048C91.9388 65.7967 89.7807 64.9037 88.1818 63.3185L82.0074 57.1026C80.5512 55.4877 79.7699 53.3758 79.8242 51.202C79.8785 49.0281 80.7643 46.9579 82.2993 45.4177C83.8342 43.8774 85.9014 42.9844 88.075 42.9226C90.2486 42.8608 92.3632 43.6349 93.9832 45.0854L94.1904 45.2926L103.265 36.2175C104.885 34.767 107 33.9929 109.174 34.0547C111.347 34.1165 113.414 35.0095 114.949 36.5498C116.484 38.09 117.37 40.1602 117.424 42.3341C117.479 44.5079 116.697 46.6198 115.241 48.2347L100.199 63.3185C98.6001 64.9037 96.4419 65.7967 94.1904 65.8048ZM88.016 49.2707C87.6534 49.2757 87.3001 49.3862 86.9994 49.5889C86.6987 49.7915 86.4636 50.0774 86.3229 50.4117C86.1822 50.7459 86.1419 51.1138 86.2071 51.4706C86.2723 51.8273 86.4401 52.1572 86.69 52.4201L92.8643 58.5944C93.0348 58.775 93.2403 58.9189 93.4683 59.0173C93.6963 59.1156 93.9421 59.1663 94.1904 59.1663C94.4387 59.1663 94.6844 59.1156 94.9124 59.0173C95.1404 58.9189 95.346 58.775 95.5164 58.5944L110.559 43.5522C110.828 43.1931 110.959 42.7489 110.927 42.3011C110.895 41.8534 110.703 41.4321 110.385 41.1147C110.068 40.7973 109.647 40.6051 109.199 40.5733C108.751 40.5414 108.307 40.6722 107.948 40.9415L96.5524 52.3372C95.9209 52.9529 95.0724 53.2952 94.1904 53.2903C93.3084 53.2952 92.4599 52.9529 91.8284 52.3372L89.3006 49.8094C89.1336 49.638 88.9338 49.5019 88.7131 49.4093C88.4924 49.3168 88.2553 49.2696 88.016 49.2707Z" fill="black"/>
<path d="M98.6243 80.0183C92.6414 80.0183 86.7928 78.2442 81.8181 74.9202C76.8435 71.5963 72.9662 66.8718 70.6767 61.3443C68.3871 55.8168 67.788 49.7344 68.9553 43.8664C70.1225 37.9985 73.0035 32.6084 77.2341 28.3778C81.4647 24.1472 86.8548 21.2661 92.7228 20.0989C98.5908 18.9317 104.673 19.5308 110.201 21.8203C115.728 24.1099 120.453 27.9872 123.777 32.9618C127.1 37.9365 128.875 43.785 128.875 49.768C128.875 57.7909 125.688 65.4852 120.015 71.1582C114.341 76.8312 106.647 80.0183 98.6243 80.0183ZM98.6243 26.1479C93.9527 26.1479 89.386 27.5332 85.5017 30.1286C81.6174 32.724 78.5899 36.413 76.8022 40.729C75.0144 45.045 74.5467 49.7942 75.4581 54.376C76.3695 58.9579 78.6191 63.1666 81.9224 66.4699C85.2257 69.7733 89.4344 72.0229 94.0163 72.9342C98.5981 73.8456 103.347 73.3779 107.663 71.5901C111.979 69.8024 115.668 66.7749 118.264 62.8906C120.859 59.0063 122.244 54.4396 122.244 49.768C122.233 43.5069 119.741 37.5054 115.314 33.0782C110.887 28.6509 104.885 26.1588 98.6243 26.1479Z" fill="black"/>
<path d="M98.6243 99.536C94.4804 99.536 91.7869 96.0551 89.3835 92.9886C88.2646 91.5383 86.6899 89.5078 85.8197 89.2177C84.9495 88.9276 82.256 89.6321 80.4327 90.1708C76.7446 91.2068 72.6008 92.3671 69.3685 90.0465C66.1363 87.7259 65.9705 83.3334 65.8048 79.4796C65.7634 77.5734 65.6805 74.9628 65.0589 74.134C64.4373 73.3052 62.0753 72.4764 60.2934 71.8134C56.6468 70.5288 52.5444 69.037 51.3012 65.1418C50.0581 61.2465 52.4615 57.8485 54.5749 54.6992C55.6937 53.0002 57.1441 50.8868 57.1441 49.768C57.1441 48.6491 55.6937 46.5358 54.5749 44.8368C52.4615 41.6874 50.0581 38.1237 51.3012 34.3942C52.5444 30.6647 56.6468 29.0071 60.2934 27.7225C62.0753 27.0595 64.4788 26.1893 65.0589 25.402C65.639 24.6146 65.7634 21.9626 65.8048 20.0564C65.9705 16.2026 66.0949 11.8929 69.3685 9.48948C72.6422 7.08603 76.7446 8.3292 80.4327 9.40661C82.256 9.90387 84.7838 10.6498 85.8197 10.3183C86.8557 9.98675 88.2646 7.99769 89.3835 6.54733C91.7869 3.48086 94.4804 0 98.6243 0C102.768 0 105.462 3.48086 107.865 6.54733C108.984 7.99769 110.559 10.0282 111.429 10.3183C112.299 10.6083 114.993 9.90387 116.816 9.40661C120.504 8.3292 124.648 7.16891 127.88 9.48948C131.112 11.8101 131.278 16.2026 131.444 20.0564C131.485 21.9626 131.568 24.5732 132.19 25.402C132.811 26.2308 135.173 27.0595 136.955 27.7225C140.602 29.0071 144.704 30.4989 145.947 34.3942C147.191 38.2894 144.787 41.6874 142.674 44.8368C141.555 46.5358 140.105 48.6491 140.105 49.768C140.105 50.8868 141.555 53.0002 142.674 54.6992C144.787 57.8485 147.191 61.4123 145.947 65.1418C144.704 68.8713 140.602 70.5288 136.955 71.8134C135.173 72.4764 132.77 73.3467 132.19 74.134C131.61 74.9213 131.485 77.5734 131.444 79.4796C131.278 83.3334 131.154 87.643 127.88 90.0465C124.606 92.4499 120.504 91.2068 116.816 90.1708C114.993 89.6321 112.465 88.8862 111.429 89.2177C110.393 89.5492 108.984 91.5383 107.865 92.9886C105.462 96.0551 102.768 99.536 98.6243 99.536ZM85.1567 82.5046C86.071 82.4969 86.9805 82.6368 87.8502 82.919C90.6681 83.8307 92.6986 86.3999 94.6048 88.9276C95.7236 90.2951 97.7541 92.9058 98.6243 92.9058C99.4945 92.9058 101.525 90.2951 102.644 88.9276C104.55 86.3999 106.581 83.8307 109.398 82.919C112.216 82.0074 115.531 82.8776 118.639 83.7892C120.172 84.2036 123.322 85.1153 123.985 84.6594C124.648 84.2036 124.731 80.8471 124.814 79.231C124.897 76.0402 125.021 72.7251 126.803 70.2387C128.585 67.7524 131.692 66.675 134.718 65.5976C136.209 65.0589 139.4 63.8986 139.649 63.1113C139.897 62.3239 138.115 59.7962 137.204 58.4287C135.339 55.6937 133.474 52.8759 133.474 49.768C133.474 46.6601 135.339 43.8422 137.204 41.1073C138.115 39.7398 139.814 37.212 139.649 36.4247C139.483 35.6374 136.209 34.4771 134.718 33.9384C131.692 32.861 128.585 31.7421 126.803 29.2972C125.021 26.8523 124.897 23.4958 124.814 20.305C124.731 18.6889 124.606 15.3324 123.985 14.8765C123.363 14.4207 120.172 15.3324 118.639 15.7467C115.531 16.6584 112.299 17.57 109.398 16.617C106.498 15.6639 104.55 13.1361 102.644 10.6083C101.525 9.24085 99.4945 6.63021 98.6243 6.63021C97.7541 6.63021 95.7236 9.24085 94.6048 10.6083C92.6986 13.1361 90.6681 15.7053 87.8502 16.617C85.0324 17.5286 81.7173 16.6584 78.6094 15.7467C77.0761 15.3324 73.9268 14.4207 73.2638 14.8765C72.6008 15.3324 72.5179 18.6889 72.435 20.305C72.3521 23.4958 72.2278 26.8109 70.4459 29.2972C68.6641 31.7835 65.5562 32.861 62.5311 33.9384C61.0393 34.4771 57.8485 35.6374 57.5999 36.4247C57.3513 37.212 59.1331 39.7398 60.0448 41.1073C61.9095 43.8422 63.7743 46.6601 63.7743 49.768C63.7743 52.8759 61.9095 55.6937 60.0448 58.4287C59.1331 59.7962 57.4342 62.3239 57.5999 63.1113C57.7657 63.8986 61.0393 65.0589 62.5311 65.5976C65.5562 66.675 68.6641 67.7939 70.4459 70.2387C72.2278 72.6836 72.3521 76.0402 72.435 79.231C72.5179 80.8471 72.6422 84.2036 73.2638 84.6594C73.8854 85.1153 77.0761 84.2036 78.6094 83.7892C80.7642 83.1676 83.0019 82.5046 85.1567 82.5046Z" fill="black"/>
<path d="M115.117 145.782C114.623 145.782 114.135 145.67 113.69 145.455C113.245 145.239 112.854 144.926 112.548 144.538L98.6243 127.051L84.7009 144.538C84.2697 145.067 83.6858 145.45 83.0289 145.635C82.3721 145.82 81.6742 145.797 81.0306 145.57C80.387 145.344 79.829 144.924 79.4327 144.369C79.0365 143.813 78.8213 143.149 78.8166 142.467V86.2756C78.8166 85.3963 79.1659 84.5531 79.7876 83.9314C80.4093 83.3097 81.2525 82.9604 82.1317 82.9604C83.0109 82.9604 83.8541 83.3097 84.4758 83.9314C85.0975 84.5531 85.4468 85.3963 85.4468 86.2756V132.977L96.0137 119.675C96.3283 119.286 96.7261 118.972 97.1778 118.756C97.6295 118.54 98.1237 118.428 98.6243 118.428C99.1249 118.428 99.6192 118.54 100.071 118.756C100.523 118.972 100.92 119.286 101.235 119.675L111.802 132.977V86.2756C111.802 85.3963 112.151 84.5531 112.773 83.9314C113.395 83.3097 114.238 82.9604 115.117 82.9604C115.996 82.9604 116.839 83.3097 117.461 83.9314C118.083 84.5531 118.432 85.3963 118.432 86.2756V142.467C118.436 143.149 118.226 143.815 117.832 144.372C117.438 144.93 116.88 145.35 116.236 145.574C115.876 145.703 115.499 145.773 115.117 145.782Z" fill="black"/>
</svg>
