<svg width="1592" height="1592" viewBox="0 0 1592 1592" fill="none" xmlns="http://www.w3.org/2000/svg">
    <path d="M1303.17 1415.17C1294.55 1416.4 1285.5 1409.43 1276.96 1405.29C1265.2 1399.53 1253.22 1394.29 1241.34 1388.79C1221.82 1379.72 1202.33 1370.6 1182.95 1361.26C1172.29 1356.1 1161.65 1350.91 1151.07 1345.6C1136.27 1338.19 1126.2 1340.44 1112.2 1347.13C1071.43 1366.64 1029.93 1384.57 987.78 1400.89C972.976 1406.61 964.459 1413.85 959.573 1428.63C943.941 1475.81 926.29 1522.34 911.613 1569.81C906.282 1587.08 897.829 1591.25 881.261 1590.91C834.151 1589.97 786.977 1589.44 739.888 1591.1C718.584 1591.86 708.368 1585.7 701.975 1564.65C687.531 1517.14 670.688 1470.3 653.335 1423.77C650.234 1415.46 641.122 1407.31 632.754 1403.4C589.487 1383.01 545.741 1363.64 501.554 1345.33C491.677 1341.27 477.362 1339.87 468.016 1343.95C421.734 1364.42 375.982 1386.07 330.806 1408.88C317.297 1415.63 309.247 1413.91 298.882 1403.14C263.078 1366.02 226.617 1329.53 189.517 1293.69C179.492 1283.97 178.472 1276.23 184.505 1263.92C205.256 1221.69 223.671 1178.28 245.315 1136.54C255.191 1117.49 252.706 1103.38 243.424 1085.05C224.202 1047.18 206.637 1008.21 192.257 968.297C185.928 950.774 177.049 942.533 160.673 937.181C113.414 921.718 66.7287 904.577 19.3848 889.433C5.09026 884.888 -0.198499 878.431 0.0563811 863.265C1.00865 812.584 0.994486 761.889 0.0139042 711.208C-0.325936 694.896 5.5363 687.802 20.6379 682.917C69.6174 667.05 118.342 650.398 166.578 632.45C175.711 629.052 184.951 619.706 189.326 610.764C210.387 567.817 230.331 524.332 249.138 480.351C253.237 470.729 254.427 456.541 250.391 447.365C230.043 401.041 208.038 355.438 185.503 310.133C178.855 296.795 180.065 288.511 191.025 277.997C227.692 242.995 263.513 207.117 298.457 170.395C310.224 157.949 319.379 159.011 332.845 165.701C378.15 188.237 423.646 210.454 469.821 231.12C478.551 235.05 491.762 234.094 501.129 230.589C544.328 214.531 587.092 197.328 629.376 178.998C639.211 174.707 650.128 165.616 653.972 156.101C672.175 110.86 688.657 64.8962 704.545 18.7842C709.43 4.59588 716.609 -0.225594 731.519 0.00804643C783.09 0.878886 834.703 0.793923 886.253 0.0505234C900.335 -0.140637 906.431 5.21185 910.849 18.1045C926.375 63.4307 943.558 108.183 959.255 153.467C964.352 168.123 972.275 175.344 987.823 180.527C1030.64 194.821 1072.06 213.343 1114.6 228.55C1124.67 232.14 1138.65 232.968 1148.06 228.827C1193.51 208.71 1238.44 187.427 1282.8 165C1296.78 157.991 1305.7 157.927 1317.11 169.992C1352.53 207.459 1389.75 243.206 1425.01 280.843C1430.19 286.366 1432.21 300.235 1429.06 307.308C1407.76 355.12 1384.03 401.869 1362.77 449.723C1358.91 458.346 1360.12 471.387 1363.56 480.712C1378.77 522.3 1396.63 562.932 1411.45 604.647C1416.93 620.046 1423.22 629.71 1439.72 635.19C1483.5 649.718 1526.26 667.326 1569.97 682.109C1586.39 687.653 1591.44 696.107 1591.08 712.992C1590 761.866 1589.64 810.845 1591.23 859.718C1591.85 878.749 1584.28 885.971 1567.87 891.6C1523.37 906.833 1479.27 923.193 1435.6 940.664C1426.64 944.275 1417.66 954.258 1413.94 963.412C1396.03 1007.75 1379.24 1052.53 1363.6 1097.71C1360.63 1106.34 1361.52 1118.53 1365.3 1126.92C1386.09 1173.05 1408.91 1218.25 1429.55 1264.45C1432.89 1271.92 1432.57 1286.24 1427.66 1291.46C1412.01 1308.05 1396.16 1324.43 1380.17 1340.68C1357.53 1363.74 1334.59 1386.49 1312.5 1410.07C1310.05 1412.77 1306.77 1414.57 1303.17 1415.17ZM1124.61 787.906C1125.1 613.334 984.637 470.474 811.913 469.901C634.495 469.306 492.06 608.152 491.423 782.32C490.764 960.608 630.502 1102.83 806.582 1103.09C982.576 1103.36 1124.12 963.072 1124.61 787.906Z" fill="black"/>
</svg>
