<svg width="464" height="464" viewBox="0 0 464 464" fill="none" xmlns="http://www.w3.org/2000/svg">
    <path d="M379.995 412.678C377.48 413.038 374.842 411.006 372.352 409.798C368.921 408.12 365.428 406.59 361.966 404.986C356.274 402.341 350.588 399.684 344.94 396.959C341.831 395.453 338.728 393.942 335.644 392.394C331.327 390.232 328.391 390.889 324.31 392.84C312.421 398.527 300.318 403.756 288.029 408.516C283.712 410.182 281.228 412.294 279.804 416.605C275.246 430.362 270.099 443.932 265.819 457.776C264.265 462.811 261.8 464.025 256.969 463.926C243.232 463.654 229.476 463.499 215.745 463.982C209.533 464.205 206.554 462.409 204.69 456.271C200.479 442.415 195.567 428.758 190.507 415.187C189.603 412.765 186.946 410.387 184.506 409.247C171.89 403.3 159.134 397.654 146.249 392.313C143.369 391.13 139.195 390.721 136.47 391.911C122.974 397.88 109.633 404.194 96.4603 410.845C92.5213 412.815 90.174 412.313 87.1516 409.173C76.7114 398.346 66.0798 387.705 55.2617 377.256C52.3384 374.419 52.0411 372.165 53.8 368.572C59.851 356.259 65.2207 343.599 71.5318 331.428C74.4117 325.872 73.6871 321.759 70.9806 316.414C65.3755 305.37 60.2536 294.005 56.0606 282.367C54.215 277.257 51.6262 274.853 46.851 273.293C33.0707 268.783 19.4576 263.785 5.65245 259.369C1.48428 258.043 -0.0578807 256.16 0.0164403 251.738C0.294113 236.959 0.289984 222.176 0.00405435 207.396C-0.0950403 202.64 1.61434 200.571 6.01786 199.146C20.2999 194.519 34.5076 189.664 48.5728 184.43C51.236 183.439 53.9301 180.713 55.2059 178.106C61.3472 165.582 67.1627 152.901 72.6466 140.076C73.8419 137.27 74.1888 133.132 73.012 130.457C67.0787 116.948 60.6624 103.65 54.0911 90.4384C52.1526 86.5487 52.5056 84.1331 55.7014 81.0672C66.3931 70.86 76.8382 60.3977 87.0277 49.6892C90.4589 46.0596 93.1282 46.3693 97.0548 48.3204C110.265 54.892 123.532 61.3708 136.996 67.3974C139.542 68.5432 143.394 68.2645 146.125 67.2425C158.722 62.5598 171.191 57.5431 183.521 52.1977C186.389 50.9466 189.572 48.2956 190.693 45.5208C196.001 32.3279 200.807 18.9245 205.44 5.47769C206.864 1.34021 208.957 -0.0657857 213.305 0.00234643C228.343 0.256293 243.393 0.231517 258.424 0.0147332C262.53 -0.0410113 264.308 1.51984 265.596 5.27949C270.124 18.4971 275.134 31.5475 279.711 44.7527C281.197 49.0265 283.508 51.1324 288.041 52.6437C300.527 56.8121 312.604 62.2131 325.01 66.6479C327.945 67.6947 332.021 67.9362 334.764 66.7284C348.019 60.8621 361.12 54.6559 374.055 48.116C378.131 46.072 380.732 46.0534 384.058 49.5715C394.388 60.4974 405.239 70.9217 415.52 81.8971C417.031 83.5075 417.62 87.5521 416.703 89.6146C410.491 103.557 403.573 117.19 397.373 131.144C396.246 133.659 396.599 137.462 397.603 140.181C402.037 152.309 407.246 164.157 411.569 176.322C413.167 180.813 415 183.631 419.812 185.229C432.577 189.465 445.044 194.6 457.79 198.911C462.578 200.527 464.052 202.993 463.947 207.917C463.631 222.169 463.525 236.452 463.99 250.704C464.169 256.253 461.965 258.359 457.177 260.001C444.203 264.443 431.343 269.214 418.611 274.308C415.997 275.361 413.377 278.272 412.293 280.942C407.07 293.87 402.176 306.929 397.615 320.105C396.748 322.62 397.008 326.175 398.111 328.622C404.174 342.075 410.826 355.255 416.846 368.727C417.818 370.907 417.725 375.082 416.294 376.606C411.73 381.443 407.11 386.218 402.446 390.957C395.844 397.683 389.155 404.317 382.714 411.192C382.001 411.98 381.043 412.504 379.995 412.678ZM327.927 229.762C328.069 178.855 287.112 137.196 236.747 137.028C185.014 136.855 143.481 177.344 143.295 228.133C143.103 280.124 183.849 321.598 235.193 321.673C286.511 321.753 327.784 280.843 327.927 229.762Z" fill="black"/>
</svg>
