<svg width="89" height="89" viewBox="0 0 89 89" fill="none" xmlns="http://www.w3.org/2000/svg">
    <g clip-path="url(#clip0_16_2)">
        <mask id="mask0_16_2" style="mask-type:luminance" maskUnits="userSpaceOnUse" x="0" y="0" width="89" height="89">
            <path d="M0 0.109314H88.8907V89H0V0.109314Z" fill="white"/>
        </mask>
        <g mask="url(#mask0_16_2)">
            <path d="M87.2162 40.5966L48.4044 1.78774C47.8728 1.25573 47.2415 0.833701 46.5466 0.545762C45.8518 0.257823 45.107 0.109619 44.3549 0.109619C43.6028 0.109619 42.858 0.257823 42.1632 0.545762C41.4684 0.833701 40.8371 1.25573 40.3054 1.78774L32.249 9.84804L42.4704 20.0695C43.6722 19.6614 44.9641 19.5977 46.2001 19.8856C47.4362 20.1735 48.567 20.8015 49.4647 21.6986C50.3674 22.6022 50.9975 23.7416 51.283 24.9865C51.5686 26.2315 51.4979 27.5316 51.0793 28.7383L60.9341 38.5902C62.1411 38.171 63.4417 38.1004 64.687 38.3865C65.9323 38.6725 67.0717 39.3037 67.9747 40.2077C68.6073 40.8401 69.1091 41.5909 69.4514 42.4173C69.7937 43.2437 69.9699 44.1294 69.9699 45.0238C69.9699 45.9183 69.7937 46.804 69.4514 47.6304C69.1091 48.4567 68.6073 49.2076 67.9747 49.84C66.6959 51.1175 64.9623 51.835 63.1547 51.835C61.3472 51.835 59.6135 51.1175 58.3347 49.84C57.3847 48.8885 56.7375 47.6771 56.4744 46.3585C56.2114 45.0399 56.3443 43.673 56.8565 42.4298L47.6663 33.2425V57.4244C48.6363 57.9035 49.4782 58.6069 50.1223 59.4762C50.7663 60.3456 51.194 61.3558 51.3699 62.4233C51.5457 63.4909 51.4648 64.5849 51.1336 65.6149C50.8025 66.6449 50.2307 67.5812 49.4656 68.3462C48.8332 68.9787 48.0824 69.4805 47.256 69.8229C46.4297 70.1652 45.544 70.3414 44.6495 70.3414C43.755 70.3414 42.8693 70.1652 42.043 69.8229C41.2166 69.4805 40.4658 68.9787 39.8333 68.3462C39.2006 67.7138 38.6988 66.9629 38.3563 66.1364C38.0139 65.31 37.8377 64.4241 37.8377 63.5296C37.8377 62.635 38.0139 61.7492 38.3563 60.9227C38.6988 60.0963 39.2006 59.3454 39.8333 58.7129C40.4707 58.0743 41.2282 57.5683 42.0622 57.2241V32.8197C41.2316 32.4776 40.4768 31.9748 39.8411 31.3401C39.2055 30.7054 38.7015 29.9513 38.3581 29.1213C38.0147 28.2912 37.8387 27.4015 37.8402 26.5032C37.8417 25.6049 38.0206 24.7157 38.3668 23.8868L28.2885 13.8066L1.67361 40.4147C0.601122 41.4893 -0.0012207 42.9455 -0.0012207 44.4637C-0.0012207 45.9819 0.601122 47.4381 1.67361 48.5127L40.4873 87.3264C41.5618 88.3986 43.0178 89.0008 44.5358 89.0008C46.0538 89.0008 47.5098 88.3986 48.5844 87.3264L87.2162 48.6946C88.2887 47.62 88.891 46.1638 88.891 44.6456C88.891 43.1274 88.2887 41.6712 87.2162 40.5966Z" fill="#F03C2E"/>
        </g>
    </g>
    <defs>
        <clipPath id="clip0_16_2">
            <rect width="89" height="89" fill="white"/>
        </clipPath>
    </defs>
</svg>
