<svg width="117" height="114" viewBox="0 0 117 114" fill="none" xmlns="http://www.w3.org/2000/svg">
    <path fill-rule="evenodd" clip-rule="evenodd" d="M58.4431 0C26.1701 0 0 26.1643 0 58.4431C0 84.2657 16.7457 106.172 39.9669 113.901C42.8868 114.442 43.9591 112.633 43.9591 111.089C43.9591 109.695 43.9049 105.092 43.8797 100.208C27.6208 103.744 24.19 93.3127 24.19 93.3127C21.5315 86.5575 17.7009 84.7612 17.7009 84.7612C12.3974 81.134 18.1006 81.2094 18.1006 81.2094C23.9684 81.6208 27.0595 87.232 27.0595 87.232C32.272 96.1647 40.7315 93.5827 44.0665 92.0903C44.5911 88.313 46.1057 85.7339 47.777 84.2744C34.796 82.7986 21.1492 77.7864 21.1492 55.3926C21.1492 49.0119 23.4332 43.7984 27.1718 39.7047C26.564 38.2336 24.5636 32.2894 27.7369 24.2393C27.7369 24.2393 32.6437 22.6686 43.812 30.23C48.4748 28.9341 53.4754 28.2828 58.4431 28.2605C63.4079 28.2828 68.4113 28.9322 73.0829 30.228C84.2377 22.6667 89.1386 24.2374 89.1386 24.2374C92.3197 32.2865 90.3193 38.2317 89.7125 39.7027C93.4598 43.7965 95.7273 49.01 95.7273 55.3907C95.7273 77.8377 82.0553 82.7792 69.0414 84.227C71.1386 86.0407 73.0064 89.5983 73.0064 95.0499C73.0064 102.87 72.9387 109.163 72.9387 111.088C72.9387 112.643 73.9916 114.466 76.9531 113.892C100.161 106.155 116.887 84.256 116.887 58.4431C116.886 26.1662 90.719 0 58.4431 0Z" fill="#076999"/>
    <path d="M22.1354 83.9106C22.0067 84.2009 21.5499 84.288 21.1338 84.0896C20.7079 83.8999 20.4708 83.5041 20.6083 83.2128C20.7341 82.9128 21.1918 82.8305 21.6148 83.0309C22.0406 83.2215 22.2825 83.6212 22.1345 83.9115L22.1354 83.9106ZM24.5027 86.5517C24.2249 86.8101 23.68 86.6901 23.3103 86.2807C22.9271 85.8742 22.8555 85.3294 23.139 85.0671C23.4274 84.8097 23.9559 84.9316 24.3391 85.3381C24.7204 85.7504 24.7959 86.2904 24.5036 86.5527L24.5027 86.5517ZM26.8079 89.9167C26.4499 90.1664 25.8634 89.9332 25.5014 89.4134C25.1433 88.8928 25.1433 88.2686 25.5111 88.0198C25.8721 87.7701 26.4499 87.9956 26.8176 88.5105C27.1738 89.0379 27.1738 89.6631 26.8079 89.9167ZM29.9639 93.1695C29.6446 93.5227 28.9613 93.4279 28.4619 92.9469C27.9519 92.4755 27.8096 91.8049 28.13 91.4526C28.4551 91.0984 29.1413 91.1971 29.6436 91.6752C30.1536 92.1455 30.3075 92.8172 29.9659 93.1685L29.9639 93.1695ZM34.319 95.0576C34.1767 95.5154 33.5206 95.7235 32.8576 95.528C32.1966 95.3276 31.764 94.7924 31.8995 94.3298C32.035 93.8682 32.696 93.6524 33.3628 93.8605C34.0238 94.0598 34.4564 94.5921 34.319 95.0576ZM39.1028 95.407C39.1192 95.8889 38.5579 96.2877 37.864 96.2974C37.1643 96.3138 36.5981 95.9228 36.5914 95.4486C36.5914 94.9618 37.1411 94.5679 37.8398 94.5544C38.5337 94.5418 39.1038 94.9289 39.1038 95.406L39.1028 95.407ZM43.5527 94.6502C43.6359 95.1196 43.153 95.6025 42.463 95.7312C41.7855 95.857 41.1564 95.5647 41.0693 95.0992C40.9861 94.6173 41.4778 94.1343 42.1552 94.0095C42.8462 93.8905 43.4656 94.1731 43.5527 94.6502Z" fill="#181616"/>
</svg>
