<svg width="576" height="606" viewBox="0 0 576 606" fill="none" xmlns="http://www.w3.org/2000/svg">
    <path fill-rule="evenodd" clip-rule="evenodd" d="M201.658 568.617V475.721C201.658 452.092 220.921 432.893 244.787 432.734H332.211C356.192 432.734 375.632 451.98 375.632 475.721V568.906C375.626 588.967 391.8 605.363 412.059 605.833H470.341C528.442 605.833 575.542 559.205 575.542 501.685V237.421C575.231 214.793 564.5 193.544 546.4 179.721L347.074 20.7589C312.154 -6.91964 262.514 -6.91964 227.594 20.7589L29.1414 180.01C10.9734 193.776 0.223755 215.061 0 237.71V501.685C0 559.205 47.0998 605.833 105.2 605.833H163.483C184.245 605.833 201.075 589.171 201.075 568.617" fill="black"/>
</svg>
