<svg width="98" height="89" viewBox="0 0 98 89" fill="none" xmlns="http://www.w3.org/2000/svg">
    <path d="M52.8199 58.1587L41.5189 46.9916L41.6528 46.853C49.1896 38.4767 54.8209 28.566 58.1587 17.8037H71.1963V8.89492H40.0502V0H31.1507V8.89954H0V17.8037H49.7026C46.6281 26.5971 41.8334 34.6903 35.5982 41.6112C31.537 37.1106 28.0809 32.0989 25.3177 26.7032H16.4228C19.7593 34.114 24.2312 40.9591 29.6774 46.9916L7.03373 69.3305L13.3516 75.6484L35.5982 53.4018L49.4393 67.2384L52.8199 58.1634M77.8698 35.6028H68.9703L48.9498 89H57.8493L62.8325 75.653H83.966L88.9954 89H97.8949L77.8698 35.6028ZM66.2131 66.7488L73.4177 47.4811L80.627 66.7488H66.2131Z" fill="#7986CB"/>
</svg>
