<svg width="114" height="114" viewBox="0 0 114 114" fill="none" xmlns="http://www.w3.org/2000/svg">
    <g clip-path="url(#clip0_18_36)">
        <path d="M24.9275 13.8703C25.0117 13.805 25.0958 13.745 25.1813 13.6824C25.3572 13.5571 25.5064 13.398 25.6202 13.2145C25.734 13.031 25.8102 12.8267 25.8443 12.6135C25.8784 12.4002 25.8697 12.1823 25.8188 11.9725C25.7679 11.7626 25.6757 11.565 25.5477 11.3911C25.4197 11.2172 25.2584 11.0705 25.0731 10.9596C24.8878 10.8486 24.6824 10.7756 24.4686 10.7448C24.2549 10.7141 24.0372 10.7261 23.8281 10.7803C23.6191 10.8344 23.4229 10.9296 23.251 11.0604C23.1616 11.1256 23.0716 11.1909 22.9828 11.2594C22.8114 11.3871 22.6669 11.5473 22.5574 11.7308C22.4479 11.9144 22.3756 12.1177 22.3447 12.3292C22.3138 12.5407 22.3249 12.7562 22.3773 12.9634C22.4296 13.1706 22.5223 13.3655 22.65 13.5368C22.7777 13.7082 22.9379 13.8528 23.1215 13.9623C23.305 14.0718 23.5083 14.144 23.7198 14.1749C23.9313 14.2058 24.1468 14.1948 24.354 14.1424C24.5612 14.09 24.7561 13.9973 24.9275 13.8697V13.8703Z" fill="white"/>
        <path d="M57 113.999C72.7354 113.999 86.9954 107.617 97.3053 97.3045C107.615 86.992 114.001 72.7348 114 56.9995C113.999 41.2641 107.617 27.0036 97.3053 16.6931C86.9934 6.38253 72.7354 -0.00282276 57 -0.00151763C46.9102 -0.0172829 36.9987 2.65768 28.2869 7.7477C28.101 7.85489 27.938 7.99779 27.8075 8.16818C27.677 8.33857 27.5814 8.53309 27.5264 8.74055C27.4713 8.948 27.4578 9.1643 27.4866 9.377C27.5154 9.58969 27.586 9.79459 27.6944 9.9799C27.8027 10.1652 27.9466 10.3273 28.1177 10.4568C28.2889 10.5863 28.484 10.6806 28.6918 10.7344C28.8996 10.7883 29.116 10.8005 29.3285 10.7703C29.541 10.7402 29.7455 10.6684 29.9301 10.559C37.8804 5.91465 47.1227 3.25413 57 3.25413C71.846 3.25413 85.2719 9.26687 95.0031 18.9953C104.734 28.7238 110.743 42.1516 110.744 56.9982C110.744 71.8447 104.731 85.2719 95.0018 95.001C85.2726 104.73 71.8447 110.741 56.9987 110.742C42.1527 110.742 28.7281 104.731 18.997 95.001C9.26584 85.2712 3.25698 71.844 3.25567 56.9975C3.25567 41.3751 9.91188 27.324 20.554 17.499C20.8617 17.2038 21.0414 16.7997 21.0544 16.3735C21.0674 15.9472 20.9126 15.5329 20.6234 15.2196C20.3341 14.9063 19.9335 14.7189 19.5076 14.6978C19.0817 14.6767 18.6645 14.8235 18.3457 15.1067C7.06733 25.5177 -0.000652524 40.4406 4.51837e-08 56.9995C4.51837e-08 72.7348 6.38278 86.9947 16.6947 97.3045C27.0066 107.614 41.2652 114 57 113.999Z" fill="white"/>
        <path d="M24.8218 32.4541C19.0236 40.0555 16.1036 49.4642 16.5792 59.0128C17.0548 68.5613 20.8954 77.6332 27.4204 84.6209L27.4537 84.6567L27.4582 84.662C34.7605 92.4595 45.135 97.3707 56.6444 97.4666H56.6705C56.6829 97.4666 56.709 97.4666 56.7534 97.4666H56.801C56.8611 97.4666 56.9139 97.4666 56.9583 97.4666H56.9988C57.0966 97.4666 57.2089 97.4666 57.3329 97.4666C57.9965 97.4607 58.6576 97.4392 59.3108 97.4014L59.3832 97.3955L59.4922 97.3903H59.5111C70.1539 96.7416 79.6938 91.974 86.5393 84.6652C86.6783 84.5158 86.8147 84.367 86.9504 84.2176L86.9452 84.2228C93.4764 77.0373 97.2064 67.7432 97.4546 58.0362C97.7028 48.3292 94.4527 38.8566 88.2973 31.3467C87.6839 30.5962 87.0452 29.8717 86.3813 29.173C80.2772 22.717 72.2146 18.454 63.4422 17.0444H63.4357C63.3811 17.0164 63.3249 16.9918 63.2673 16.9707C63.2262 16.9537 63.1871 16.9322 63.144 16.9178C63.0613 16.8937 62.9769 16.8758 62.8915 16.8643C62.8693 16.8604 62.8497 16.8525 62.8262 16.8506H62.8301C62.791 16.846 62.7505 16.8434 62.7113 16.8395C61.6973 16.7294 60.6708 16.652 59.6319 16.6072L59.5418 16.6013H59.5372C59.5105 16.6013 59.4857 16.6059 59.4589 16.6059C59.4452 16.6059 59.4322 16.6059 59.4185 16.6059C59.1039 16.5867 58.7883 16.5717 58.4716 16.5608H58.4475C58.2569 16.5517 58.0794 16.5484 57.9169 16.5458C57.7348 16.5406 57.5502 16.5374 57.3622 16.5374H57.3551C57.2245 16.5374 57.1058 16.5374 57.0033 16.5374C56.9009 16.5374 56.7952 16.5374 56.6731 16.5374H56.649C44.827 16.6372 34.2006 21.8153 26.8722 29.9887C26.154 30.7831 25.4705 31.6049 24.8218 32.4541ZM19.8219 58.6272H30.74C30.9182 65.6097 32.2337 72.1418 34.4264 77.797C34.1484 77.9405 33.8704 78.0835 33.597 78.2322C31.9316 79.1395 30.333 80.1644 28.8136 81.2993C23.342 74.9742 20.1728 66.9831 19.8219 58.6272ZM36.0748 41.5202C36.4174 40.3227 36.7998 39.1638 37.2141 38.0407C42.5711 40.1648 48.6269 41.4092 55.0547 41.5378V55.3722H34.0009C34.1334 50.4434 34.861 45.7606 36.0748 41.5202ZM45.9938 24.3577C47.622 22.9116 49.3513 21.7886 51.1452 21.0185C52.3937 20.479 53.7095 20.1108 55.0567 19.9242V38.2822C49.0485 38.1516 43.4064 36.9875 38.4527 35.0285C40.4646 30.6119 43.0573 26.9562 45.9938 24.3551V24.3577ZM43.811 87.4445C41.8604 85.2258 40.1135 82.5124 38.6557 79.4101C43.5167 77.3356 49.0968 76.0377 55.0567 75.7642V94.0805C53.7398 93.8978 52.4528 93.5417 51.2294 93.0213C48.5754 91.8983 46.0591 90.0026 43.809 87.4419L43.811 87.4445ZM55.0567 58.6298V72.506C48.6615 72.782 42.6579 74.1628 37.3845 76.4135C35.3935 71.2061 34.1738 65.1359 33.9989 58.6298H55.0567ZM31.063 83.6883C32.3692 82.7346 33.7372 81.8685 35.1579 81.0957C35.3406 80.9965 35.5279 80.8999 35.7139 80.804C37.7427 85.1175 40.3178 88.809 43.3339 91.6288C38.7583 89.8168 34.5871 87.1163 31.0611 83.6831L31.063 83.6883ZM70.135 26.4929C72.0783 28.6875 73.8207 31.3754 75.2798 34.4477C70.2818 36.6344 64.5013 37.9944 58.313 38.2515V19.8485C59.841 19.991 61.3378 20.3687 62.7505 20.9683C65.3856 22.0763 67.8888 23.9525 70.133 26.4877L70.135 26.4929ZM76.7377 76.1127C71.2306 73.8757 64.9673 72.5719 58.3124 72.4649V58.6305H80.0057C79.8348 65.0073 78.6582 70.9685 76.7357 76.1075L76.7377 76.1127ZM68.0239 89.6365C66.4153 91.0669 64.7076 92.1815 62.9339 92.9541C61.4667 93.6 59.9051 94.0056 58.3091 94.1555V75.7205C64.5398 75.8262 70.3856 77.0511 75.4828 79.1184C73.4814 83.458 70.9168 87.0588 68.022 89.6313L68.0239 89.6365ZM58.3124 55.3768V41.5045C64.9347 41.2435 71.1439 39.8007 76.5621 37.4345C76.9537 38.4464 77.3161 39.4905 77.6493 40.5668C79.0328 45.0564 79.8681 50.0714 80.0077 55.3722L58.3124 55.3768ZM70.6609 91.6268C71.4186 90.918 72.1374 90.1688 72.8144 89.3826C74.994 86.8585 76.8891 83.8423 78.45 80.449C80.1337 81.2871 81.7523 82.2502 83.2921 83.3301C79.6929 86.9298 75.3941 89.7535 70.6609 91.6268ZM85.5108 80.9143C83.7026 79.615 81.7909 78.4661 79.795 77.4792C79.7682 77.4655 79.7388 77.4531 79.7114 77.4394C81.8218 71.8671 83.0878 65.4635 83.2627 58.6272H94.1776C93.8335 66.8103 90.7858 74.6483 85.5115 80.9143H85.5108ZM85.7816 33.4075C90.8917 39.6222 93.8388 47.3322 94.1769 55.3709H83.2627C83.1192 49.7516 82.2408 44.4208 80.7588 39.6075C80.3799 38.3768 79.9618 37.1804 79.5046 36.0184C79.6631 35.9342 79.8243 35.8513 79.9803 35.7665C81.7407 34.8106 83.426 33.7223 85.0214 32.5109C85.2785 32.8065 85.5356 33.1034 85.7823 33.4055L85.7816 33.4075ZM82.7602 30.1447C81.3817 31.1678 79.9327 32.0924 78.4239 32.9115C78.3521 32.9507 78.2777 32.9879 78.2053 33.027C76.1895 28.7899 73.6452 25.1623 70.6707 22.3817C75.166 24.1594 79.2724 26.795 82.7609 30.1414L82.7602 30.1447ZM43.332 22.3791C42.5698 23.0907 41.8464 23.8427 41.1648 24.6318C38.9572 27.1951 37.0393 30.2667 35.4679 33.7194C35.3902 33.6809 35.3106 33.645 35.2336 33.6065C33.602 32.7993 32.0305 31.8759 30.5312 30.8436C34.1643 27.1632 38.524 24.2796 43.3326 22.3765L43.332 22.3791ZM27.4093 34.4333C27.7082 34.0418 28.0149 33.6561 28.3294 33.2763C30.0613 34.4989 31.8855 35.5852 33.7855 36.5254C33.9304 36.5972 34.0785 36.6664 34.2247 36.7369C33.7562 37.992 33.3287 39.2878 32.9424 40.6242C31.6432 45.1661 30.8718 50.1438 30.738 55.3722H19.8206C20.1399 47.7782 22.7892 40.4666 27.4086 34.4307L27.4093 34.4333Z" fill="white"/>
    </g>
    <defs>
        <clipPath id="clip0_18_36">
            <rect width="114" height="114" fill="white"/>
        </clipPath>
    </defs>
</svg>
