<svg width="89" height="89" viewBox="0 0 89 89" fill="none" xmlns="http://www.w3.org/2000/svg">
    <g clip-path="url(#clip0_1_3)">
        <path d="M0 0H89V89H0V0Z" fill="#F7DF1E"/>
        <path d="M23.4014 74.3748L30.212 70.253C31.5262 72.5826 32.7214 74.5538 35.5885 74.5538C38.3368 74.5538 40.0698 73.4789 40.0698 69.2973V40.8597H48.4334V69.4155C48.4334 78.078 43.3555 82.0211 35.947 82.0211C29.2563 82.0211 25.3727 78.5561 23.4011 74.3741M52.9762 73.4785L59.7861 69.5358C61.579 72.4634 63.909 74.614 68.0308 74.614C71.4966 74.614 73.7063 72.8813 73.7063 70.4915C73.7063 67.624 71.4361 66.6082 67.6125 64.9359L65.5221 64.039C59.4878 61.4708 55.4852 58.2446 55.4852 51.434C55.4852 45.1609 60.2645 40.3813 67.7325 40.3813C73.0495 40.3813 76.8731 42.2336 79.6209 47.0727L73.1086 51.255C71.6746 48.6861 70.1219 47.6706 67.7321 47.6706C65.2826 47.6706 63.7292 49.224 63.7292 51.255C63.7292 53.764 65.2826 54.7802 68.8669 56.3335L70.9577 57.2294C78.0673 60.2766 82.0698 63.3829 82.0698 70.3722C82.0698 77.9004 76.1555 82.0222 68.2098 82.0222C60.4435 82.0222 55.4251 78.3183 52.9759 73.4789" fill="black"/>
    </g>
    <defs>
        <clipPath id="clip0_1_3">
            <rect width="89" height="89" fill="white"/>
        </clipPath>
    </defs>
</svg>
