<svg width="130" height="130" viewBox="0 0 130 130" fill="none" xmlns="http://www.w3.org/2000/svg">
    <path d="M39 0C42.3137 0 45 2.68629 45 6C45 9.31371 42.3137 12 39 12H26C18.268 12 12 18.268 12 26V104C12 111.732 18.268 118 26 118H104C111.732 118 118 111.732 118 104V91C118 87.6863 120.686 85 124 85C127.314 85 130 87.6863 130 91V104C130 118.359 118.359 130 104 130H26C11.6406 130 2.57703e-07 118.359 0 104V26C2.5772e-07 11.6406 11.6406 3.22129e-07 26 0H39ZM124 0.000976562C127.314 0.00101736 129.999 2.68635 129.999 6L130 60C130 63.3135 127.314 66 124 66C120.686 66 118 63.3135 118 60V20.4854L77.2422 61.2422C74.899 63.5853 71.1 63.5853 68.7568 61.2422C66.4143 58.8992 66.4143 55.1008 68.7568 52.7578L109.515 12H70C66.6865 11.9998 64 9.31356 64 6C64 2.68645 66.6865 0.000200619 70 0L124 0.000976562Z" fill="black"/>
</svg>
