<svg width="783" height="783" viewBox="0 0 783 783" fill="none" xmlns="http://www.w3.org/2000/svg">
    <path d="M555.102 394.392C559.19 394.392 563.111 396.016 566.002 398.907L566.27 399.181C568.994 402.044 570.519 405.849 570.519 409.812V444.821H689.582C693.67 444.821 697.591 446.445 700.483 449.336C703.374 452.228 705 456.15 705 460.24C705 464.331 703.374 468.254 700.483 471.146C697.591 474.037 693.67 475.66 689.582 475.66H648.245L645.512 490.579C637.173 536.07 617.515 578.729 588.354 614.625L576.138 629.664L591.911 640.915L593.163 641.803C619.52 660.358 649.294 673.517 680.77 680.515L680.808 680.524L680.82 680.526C682.792 680.963 684.657 681.783 686.31 682.938C687.97 684.097 689.386 685.572 690.476 687.279C691.566 688.985 692.309 690.891 692.663 692.885C693.017 694.879 692.974 696.923 692.538 698.901C692.102 700.879 691.28 702.752 690.121 704.411C688.962 706.07 687.487 707.486 685.779 708.576C684.073 709.666 682.169 710.409 680.176 710.763C678.183 711.117 676.139 711.074 674.162 710.638L674.156 710.637L674.144 710.634C634.35 701.904 596.991 684.444 564.768 659.515L553.586 650.863L542.436 659.557C510.51 684.45 473.43 701.904 433.903 710.65C429.928 711.493 425.782 710.735 422.364 708.538C418.929 706.33 416.51 702.848 415.638 698.857C414.766 694.866 415.514 690.691 417.716 687.25L417.926 686.931C420.125 683.676 423.486 681.379 427.325 680.517L427.333 680.516L427.375 680.506L427.399 680.501L427.443 680.491L427.486 680.482C459.289 673.27 489.296 659.671 515.684 640.512L531.196 629.248L519.142 614.343C507.538 599.992 497.417 584.503 488.933 568.113C487.076 564.48 486.736 560.257 487.987 556.372C488.608 554.446 489.602 552.661 490.912 551.119L491.161 550.833C492.423 549.421 493.936 548.251 495.624 547.386C497.425 546.463 499.391 545.903 501.406 545.739C503.422 545.576 505.45 545.811 507.376 546.431C509.302 547.051 511.087 548.046 512.629 549.357C514.075 550.585 515.28 552.069 516.186 553.734L516.363 554.069L516.39 554.121L516.432 554.201C522.996 566.754 530.649 578.706 539.301 589.921L553.644 608.515L568.074 589.99C589.205 562.869 604.375 531.594 612.593 498.21L618.143 475.66H420.621C416.533 475.66 412.611 474.037 409.72 471.146C406.829 468.255 405.204 464.331 405.204 460.24C405.204 456.149 406.829 452.227 409.72 449.336C412.611 446.445 416.533 444.822 420.621 444.821H539.685V409.812C539.685 405.721 541.309 401.798 544.2 398.907C547.092 396.016 551.014 394.392 555.102 394.392ZM218.9 444.821C222.987 444.821 226.908 446.445 229.8 449.336C232.692 452.228 234.317 456.15 234.318 460.24V493.885C234.336 507.615 239.797 520.779 249.507 530.488C259.217 540.198 272.383 545.663 286.116 545.681H319.76C323.848 545.681 327.77 547.304 330.661 550.195C333.553 553.087 335.178 557.01 335.178 561.1C335.178 565.19 333.553 569.112 330.661 572.004C327.77 574.896 323.848 576.519 319.76 576.519H286.16C264.241 576.495 243.226 567.777 227.726 552.278C212.706 537.258 204.054 517.06 203.51 495.877L203.49 494.868L203.483 493.782V460.24C203.483 456.149 205.108 452.227 207.999 449.336C210.89 446.445 214.812 444.822 218.9 444.821ZM120.026 81.2931C136.836 74.3294 155.476 73.1073 173.052 77.8166C190.628 82.526 206.16 92.9034 217.237 107.34C228.284 121.737 234.285 139.368 234.317 157.513C234.22 166.887 232.509 176.174 229.254 184.965L220.175 209.485H304.344V105.845H286.141C282.053 105.845 278.131 104.221 275.239 101.329C272.438 98.5279 270.826 94.759 270.728 90.8078L270.723 90.425C270.723 86.335 272.348 82.4123 275.239 79.5207C278.131 76.6292 282.053 75.0051 286.141 75.0051H353.38C357.468 75.0051 361.39 76.6292 364.281 79.5207C367.083 82.322 368.695 86.0908 368.793 90.0422L368.798 90.425C368.798 94.515 367.173 98.4376 364.281 101.329C361.39 104.221 357.468 105.845 353.38 105.845H335.178V359.382C335.178 363.472 333.553 367.395 330.661 370.286L330.387 370.554C327.524 373.278 323.72 374.802 319.76 374.802C315.672 374.802 311.751 373.178 308.86 370.287C305.969 367.396 304.344 363.473 304.344 359.382V240.323H220.178L229.255 264.841C232.312 273.1 234.009 281.796 234.282 290.592L234.305 291.444L234.317 292.283C234.287 310.431 228.285 328.067 217.236 342.466C206.159 356.902 190.628 367.279 173.052 371.988C155.476 376.698 136.837 375.476 120.027 368.513C103.479 361.658 89.6122 349.616 80.5051 334.21L80.0754 333.474L80.0705 333.466C79.0568 331.712 78.3981 329.775 78.133 327.766C77.8679 325.757 78.0014 323.714 78.5256 321.757C79.05 319.799 79.9548 317.963 81.1877 316.357C82.4209 314.749 83.9592 313.401 85.714 312.388L86.0451 312.202C87.7112 311.295 89.5315 310.701 91.4142 310.453L91.7912 310.409C93.6776 310.209 95.5862 310.357 97.4201 310.849C99.3757 311.374 101.209 312.279 102.817 313.514C104.423 314.748 105.771 316.286 106.783 318.042L106.893 318.233L106.942 318.309C111.486 326.064 117.967 332.51 125.755 337.008C133.624 341.552 142.549 343.951 151.636 343.963H151.659C165.405 343.963 178.587 338.502 188.305 328.783C198.023 319.065 203.483 305.886 203.483 292.143C203.483 278.4 198.023 265.22 188.305 255.502C178.587 245.784 165.405 240.323 151.659 240.323C147.699 240.323 143.896 238.799 141.033 236.075L140.759 235.808C137.867 232.916 136.242 228.993 136.242 224.903C136.242 220.814 137.866 216.891 140.758 213.999L140.759 214C143.65 211.109 147.571 209.485 151.659 209.485C165.405 209.485 178.587 204.024 188.305 194.306C198.023 184.588 203.483 171.407 203.483 157.664C203.483 144.136 198.192 131.154 188.757 121.482L188.305 121.024C178.89 111.609 166.226 106.19 152.946 105.861L152.823 105.859L151.785 105.846L151.723 105.845H151.637C142.55 105.856 133.624 108.254 125.755 112.799C117.892 117.34 111.359 123.864 106.809 131.72L106.796 131.742L106.782 131.765C105.77 133.521 104.422 135.06 102.816 136.294C101.21 137.527 99.3763 138.432 97.4191 138.957C95.5835 139.45 93.6749 139.599 91.7902 139.399L91.4133 139.354C89.4051 139.09 87.4678 138.432 85.7131 137.419C83.9583 136.406 82.4199 135.058 81.1867 133.45C79.9539 131.844 79.049 130.008 78.5246 128.05C78.0005 126.093 77.8669 124.05 78.132 122.041C78.3971 120.032 79.0558 118.095 80.0695 116.341L80.0744 116.333C89.172 100.574 103.215 88.257 120.026 81.2931ZM487.782 175.864L488.907 175.871C510.441 176.172 531.027 184.858 546.276 200.107C561.295 215.126 569.948 235.324 570.492 256.506L570.512 257.516L570.519 258.532V292.143C570.519 296.105 568.994 299.91 566.27 302.773L566.002 303.047C563.111 305.938 559.19 307.563 555.102 307.563C551.014 307.563 547.092 305.938 544.2 303.047C541.309 300.156 539.685 296.234 539.685 292.143V258.5C539.667 244.769 534.203 231.604 524.493 221.895C514.784 212.185 501.619 206.721 487.886 206.703H454.241C450.153 206.703 446.231 205.079 443.34 202.188C440.449 199.296 438.825 195.375 438.824 191.284C438.824 187.193 440.449 183.271 443.34 180.38C446.231 177.489 450.153 175.864 454.241 175.864H487.782Z" fill="black"/>
</svg>
