<svg width="94" height="94" viewBox="0 0 94 94" fill="none" xmlns="http://www.w3.org/2000/svg">
    <path d="M85.4545 21.3636H72.6364V12.8182C72.6326 9.41973 71.281 6.16155 68.8779 3.75848C66.4748 1.35541 63.2166 0.00373214 59.8182 0H34.1818C30.7834 0.00373214 27.5252 1.35541 25.1221 3.75848C22.7191 6.16155 21.3674 9.41973 21.3636 12.8182V21.3636H8.54545C6.27984 21.3662 4.10775 22.2673 2.50572 23.8694C0.903684 25.4714 0.00254452 27.6435 0 29.9091V85.4545C0.00254452 87.7202 0.903684 89.8923 2.50572 91.4943C4.10775 93.0963 6.27984 93.9975 8.54545 94H85.4545C87.7202 93.9975 89.8923 93.0963 91.4943 91.4943C93.0963 89.8923 93.9975 87.7202 94 85.4545V29.9091C93.9975 27.6435 93.0963 25.4714 91.4943 23.8694C89.8923 22.2673 87.7202 21.3662 85.4545 21.3636ZM25.6364 25.6364V43.8237L19.4379 56.7273C19.1928 57.2381 19.1606 57.8252 19.3482 58.3598C19.5357 58.8944 19.9279 59.3326 20.4384 59.5783L25.6364 62.075V89.7273H19.2273V25.6364H25.6364ZM59.8182 21.3636H34.1818V12.8182H59.8182V21.3636ZM32.0455 25.6364H38.5661C38.1102 26.0652 37.6844 26.5249 37.2915 27.0122C35.5085 29.3315 34.3788 32.0858 34.0197 34.9892C33.8953 34.9689 33.7667 34.9635 33.6445 34.937C32.9944 34.7921 32.3197 34.798 31.6723 34.9542C31.0248 35.1104 30.4216 35.4128 29.9091 35.8381V25.6364H32.0455ZM24.2229 56.6564L32.7434 39.1149C33.0912 39.1901 33.4437 39.2089 33.7954 39.2516C33.8307 40.5748 33.977 41.8928 34.2329 43.1915C34.3628 43.7373 34.7021 44.2101 35.1776 44.5078C35.6532 44.8055 36.2267 44.9041 36.7744 44.7825C37.3221 44.6608 37.8 44.3286 38.1048 43.8576C38.4096 43.3866 38.5169 42.8146 38.4035 42.2652C38.211 41.25 38.0973 40.2215 38.0634 39.1888C38.7257 39.0952 39.3467 38.9863 39.8701 38.8684C40.8968 41.0714 42.3757 43.0336 44.2106 44.6276L35.7696 62.2024L24.2229 56.6564ZM29.9091 64.1272L35.8446 66.9784C36.1334 67.1169 36.4495 67.1889 36.7698 67.1891C37.1722 67.1888 37.5664 67.075 37.907 66.8607C38.2476 66.6465 38.521 66.3405 38.6955 65.978L48.062 46.4774C48.4735 45.5967 48.575 44.6026 48.35 43.6568C48.1251 42.711 47.5869 41.8691 46.8229 41.2679C45.1669 39.6901 43.8951 37.7533 43.1056 35.6066C42.9169 35.0733 42.5245 34.6366 42.0143 34.3923C41.5041 34.148 40.9179 34.116 40.3841 34.3034C39.7237 34.5118 39.0518 34.6821 38.3719 34.8133C38.6972 32.9473 39.47 31.188 40.624 29.6861C42.7794 26.9987 46.3627 25.6364 51.2727 25.6364H64.0909V89.7273H29.9091V64.1272ZM68.3636 25.6364H74.7727V89.7273H68.3636V25.6364ZM25.6364 12.8182C25.6389 10.5526 26.54 8.38048 28.1421 6.77844C29.7441 5.17641 31.9162 4.27527 34.1818 4.27273H59.8182C62.0838 4.27527 64.2559 5.17641 65.8579 6.77844C67.46 8.38048 68.3611 10.5526 68.3636 12.8182V21.3636H64.0909V12.8182C64.0898 11.6853 63.6393 10.5992 62.8382 9.79816C62.0372 8.99711 60.951 8.54659 59.8182 8.54545H34.1818C33.049 8.54659 31.9628 8.99711 31.1618 9.79816C30.3607 10.5992 29.9102 11.6853 29.9091 12.8182V21.3636H25.6364V12.8182ZM4.27273 85.4545V29.9091C4.27386 28.7762 4.72438 27.6901 5.52543 26.8891C6.32648 26.088 7.4126 25.6375 8.54545 25.6364H14.9545V89.7273H8.54545C7.4126 89.7261 6.32648 89.2756 5.52543 88.4746C4.72438 87.6735 4.27386 86.5874 4.27273 85.4545ZM89.7273 85.4545C89.7261 86.5874 89.2756 87.6735 88.4746 88.4746C87.6735 89.2756 86.5874 89.7261 85.4545 89.7273H79.0455V25.6364H85.4545C86.5874 25.6375 87.6735 26.088 88.4746 26.8891C89.2756 27.6901 89.7261 28.7762 89.7273 29.9091V85.4545Z" fill="#3498DB"/>
</svg>
