<svg width="150" height="114" viewBox="0 0 150 114" fill="none" xmlns="http://www.w3.org/2000/svg">
    <path d="M147.639 15.5737L141.721 9.65564L86.9016 64.4753C80.0491 71.3278 68.5245 71.3278 61.6721 64.4753L6.85242 9.96712L0.934387 15.8851L41.7377 56.6884L0.934387 97.4917L6.85242 103.41L47.6557 62.6065L55.7541 70.7048C60.7377 75.6884 67.2786 78.4917 74.1311 78.4917C80.9836 78.4917 87.5245 75.6884 92.5082 70.7048L100.607 62.6065L141.41 103.41L147.328 97.4917L106.525 56.6884L147.639 15.5737Z" fill="#076999"/>
    <path d="M136.115 114H13.082C5.91803 114 0 108.082 0 100.918V13.082C0 5.91803 5.91803 0 13.082 0H136.115C143.279 0 149.197 5.91803 149.197 13.082V100.918C149.197 108.082 143.279 114 136.115 114ZM12.7705 8.40984C10.2787 8.40984 8.40984 10.2787 8.40984 12.7705V100.607C8.40984 103.098 10.2787 104.967 12.7705 104.967H135.803C138.295 104.967 140.164 103.098 140.164 100.607V12.7705C140.164 10.2787 138.295 8.40984 135.803 8.40984H12.7705Z" fill="#076999"/>
</svg>
