<svg width="131" height="114" viewBox="0 0 131 114" fill="none" xmlns="http://www.w3.org/2000/svg">
    <path d="M128.541 6.12989e-07H1.65373C1.4365 -0.000186554 1.22137 0.0424895 1.02065 0.125596C0.819926 0.208703 0.637547 0.330605 0.483947 0.484326C0.330348 0.638047 0.208543 0.820569 0.125501 1.02145C0.0424601 1.22233 -0.000186407 1.43764 6.12447e-07 1.65503V82.0272C-0.000186407 82.2446 0.0424601 82.4599 0.125501 82.6607C0.208543 82.8616 0.330348 83.0441 0.483947 83.1979C0.637547 83.3516 0.819926 83.4735 1.02065 83.5566C1.22137 83.6397 1.4365 83.6824 1.65373 83.6822H50.6831V104.426H33.5941C32.9591 104.415 32.3283 104.531 31.7384 104.767C31.1486 105.002 30.6115 105.353 30.1585 105.799C29.7056 106.244 29.3459 106.776 29.1003 107.362C28.8547 107.948 28.7282 108.577 28.7282 109.213C28.7282 109.848 28.8547 110.478 29.1003 111.064C29.3459 111.65 29.7056 112.181 30.1585 112.627C30.6115 113.072 31.1486 113.423 31.7384 113.659C32.3283 113.895 32.9591 114.01 33.5941 113.999H96.6006C97.2357 114.01 97.8665 113.895 98.4563 113.659C99.0462 113.423 99.5833 113.072 100.036 112.627C100.489 112.181 100.849 111.65 101.094 111.064C101.34 110.478 101.467 109.848 101.467 109.213C101.467 108.577 101.34 107.948 101.094 107.362C100.849 106.776 100.489 106.244 100.036 105.799C99.5833 105.353 99.0462 105.002 98.4563 104.767C97.8665 104.531 97.2357 104.415 96.6006 104.426H79.5045V83.6822H128.534C128.751 83.6824 128.966 83.6397 129.167 83.5566C129.368 83.4735 129.55 83.3516 129.704 83.1979C129.857 83.0441 129.979 82.8616 130.062 82.6607C130.145 82.4599 130.188 82.2446 130.188 82.0272V1.65503C130.188 1.21721 130.015 0.797092 129.706 0.486836C129.398 0.17658 128.979 0.0015076 128.541 6.12989e-07ZM126.887 3.31005V68.3173H3.30745V3.31005H126.887ZM98.0766 109.212C98.0766 109.406 98.0384 109.598 97.9643 109.777C97.8901 109.957 97.7814 110.119 97.6443 110.257C97.5073 110.394 97.3445 110.503 97.1655 110.577C96.9864 110.651 96.7945 110.689 96.6006 110.689H33.5941C33.2027 110.689 32.8273 110.534 32.5505 110.257C32.2737 109.98 32.1182 109.604 32.1182 109.212C32.1182 108.82 32.2737 108.445 32.5505 108.168C32.8273 107.891 33.2027 107.735 33.5941 107.735H96.6006C96.992 107.735 97.3672 107.891 97.6439 108.168C97.9206 108.445 98.0762 108.82 98.0766 109.212ZM76.1985 104.426H53.9962V83.6822H76.1985V104.426ZM126.887 80.3764H3.30745V71.6316H126.887V80.3764Z" fill="white"/>
    <path d="M120.048 77.9187C120.427 77.919 120.798 77.8066 121.114 77.5958C121.43 77.385 121.676 77.0851 121.821 76.7343C121.966 76.3835 122.004 75.9974 121.93 75.6248C121.857 75.2523 121.674 74.9101 121.405 74.6416C121.137 74.373 120.795 74.1901 120.423 74.1161C120.051 74.0421 119.665 74.0802 119.314 74.2257C118.964 74.3712 118.664 74.6174 118.454 74.9334C118.243 75.2493 118.131 75.6206 118.131 76.0004C118.131 76.5091 118.333 76.9968 118.693 77.3565C119.052 77.7161 119.539 77.9184 120.048 77.9187Z" fill="white"/>
    <path d="M112.942 77.9187C113.322 77.9187 113.693 77.8061 114.008 77.5951C114.324 77.3841 114.57 77.0842 114.715 76.7333C114.86 76.3825 114.898 75.9964 114.824 75.624C114.749 75.2515 114.567 74.9095 114.298 74.6411C114.03 74.3726 113.688 74.1899 113.316 74.116C112.944 74.0421 112.558 74.0803 112.207 74.2258C111.857 74.3713 111.557 74.6176 111.347 74.9335C111.136 75.2494 111.024 75.6207 111.024 76.0004C111.025 76.5093 111.227 76.9972 111.586 77.357C111.946 77.7167 112.434 77.9187 112.942 77.9187Z" fill="white"/>
    <path d="M105.834 77.9187C106.213 77.919 106.584 77.8066 106.9 77.5958C107.216 77.385 107.462 77.0851 107.607 76.7343C107.752 76.3835 107.791 75.9974 107.717 75.6248C107.643 75.2523 107.46 74.9101 107.192 74.6416C106.923 74.373 106.581 74.1901 106.209 74.1161C105.837 74.0421 105.451 74.0802 105.1 74.2257C104.75 74.3712 104.45 74.6174 104.24 74.9334C104.029 75.2493 103.917 75.6206 103.917 76.0004C103.917 76.5091 104.119 76.9968 104.479 77.3565C104.838 77.7161 105.326 77.9184 105.834 77.9187Z" fill="white"/>
</svg>
