<svg width="114" height="114" viewBox="0 0 114 114" fill="none" xmlns="http://www.w3.org/2000/svg">
    <path d="M88.5924 53.2942C88.7436 54.2674 89.2752 55.1406 90.0703 55.7219C90.8653 56.3031 91.8587 56.5448 92.8319 56.3936C93.8051 56.2424 94.6784 55.7108 95.2596 54.9158C95.8409 54.1207 96.0825 53.1273 95.9313 52.1541C95.0668 43.47 91.2 35.3594 84.9972 29.2204C78.7944 23.0813 70.6443 19.2984 61.9517 18.5237C61.4502 18.4799 60.945 18.5383 60.4668 18.6955C59.9886 18.8526 59.5472 19.1052 59.1695 19.438C58.7917 19.7707 58.4855 20.1767 58.2692 20.6313C58.053 21.0859 57.9313 21.5796 57.9115 22.0826C57.8917 22.5857 57.9742 23.0874 58.1541 23.5576C58.3339 24.0278 58.6073 24.4566 58.9578 24.818C59.3082 25.1794 59.7283 25.4659 60.1927 25.6601C60.6572 25.8544 61.1562 25.9523 61.6595 25.948C61.8876 25.9623 84.581 27.1593 88.5924 53.287V53.2942ZM96.8789 17.8397C71.6062 -7.44017 48.5351 1.43058 47.5732 1.82246C46.703 2.21928 46.0191 2.93608 45.6636 3.82395C45.3081 4.71182 45.3083 5.70253 45.6641 6.59028C46.0199 7.47803 46.7041 8.19458 47.5744 8.5911C48.4448 8.98762 49.4344 9.03362 50.3378 8.71955C50.5301 8.64118 69.7893 1.24533 91.6277 23.098C111.749 43.2264 105.842 63.6612 105.593 64.5091C105.369 65.4269 105.502 66.3956 105.967 67.2185C106.431 68.0414 107.191 68.6568 108.092 68.9398C108.994 69.2227 109.969 69.152 110.82 68.742C111.671 68.3319 112.335 67.6134 112.675 66.7321C112.996 65.699 120.299 41.267 96.8789 17.8397ZM88.1863 105.379C87.8301 105.735 86.6687 106.569 83.5194 106.569C73.3162 106.569 53.7578 97.9828 34.9262 79.144C10.2092 54.3986 4.59459 29.9666 8.72003 25.8412C11.3848 23.1621 16.9353 17.6046 22.1865 17.6046C25.0864 17.6046 27.8438 19.2789 30.5941 22.7204C38.5386 32.6243 35.0972 36.0158 29.3971 41.6446L28.3426 42.692C26.9175 44.117 26.1552 46.0052 26.1552 48.1427C26.1552 51.5628 27.8011 57.7402 42.0584 72.0047C56.3228 86.2691 62.5003 87.915 65.9061 87.915C68.0436 87.915 69.9175 87.1669 71.3426 85.7419L72.39 84.6874C75.4894 81.5381 78.1684 78.8234 81.5528 78.8234C84.182 78.8234 87.4667 80.3909 91.3142 83.4832C94.5847 86.1195 96.2519 88.7415 96.3944 91.4918C96.6937 96.8784 90.9509 102.621 88.1863 105.386V105.379ZM81.56 71.3919C75.0619 71.3919 70.8367 75.6812 67.1031 79.4647L65.9061 80.4835C64.7661 80.4835 60.0564 79.4932 47.3096 66.7464C32.4395 51.8691 33.5938 47.9503 33.5938 47.9503L34.6127 46.9315C40.4837 41.1387 48.5209 33.2014 36.3939 18.0677C32.1901 12.8307 27.4163 10.1731 22.1865 10.1731C13.8644 10.1731 7.09551 16.9419 3.46883 20.5757C-7.2687 31.3346 8.44927 63.1411 29.6821 84.4024C50.1098 104.851 71.4352 114 83.5194 114C87.8728 114 91.2145 112.86 93.4375 110.637C96.9573 107.117 104.282 99.7854 103.812 91.0928C103.548 86.1765 100.905 81.6663 95.9598 77.6905C90.6872 73.4511 85.9704 71.3919 81.5528 71.3919H81.56Z" fill="#076999"/>
</svg>
