<svg width="170" height="89" viewBox="0 0 170 89" fill="none" xmlns="http://www.w3.org/2000/svg">
    <g clip-path="url(#clip0_15_4)">
        <path d="M85 88.481C131.944 88.481 170 68.6739 170 44.2405C170 19.8072 131.944 0 85 0C38.0558 0 0 19.8072 0 44.2405C0 68.6739 38.0558 88.481 85 88.481Z" fill="#8993BE"/>
        <path fill-rule="evenodd" clip-rule="evenodd" d="M23.8698 70.4356L33.1852 23.2842H54.7254C64.0402 23.8665 68.698 28.5229 68.698 36.6732C68.698 50.6439 57.6367 58.7935 47.7388 58.2112H37.2606L34.9317 70.4356H23.8698ZM39.5888 49.4799L42.5 32.0161H50.0683C54.1437 32.0161 57.0543 33.7624 57.0543 37.2549C56.4726 47.1514 51.8148 48.8976 46.5754 49.4799H39.5888ZM66.5338 58.2112L75.8486 11.0605H86.9105L84.5817 23.2842H95.0606C104.376 23.8665 107.869 28.5229 106.705 34.3447L102.63 58.2112H90.9859L95.0612 36.6732C95.643 33.7624 95.643 32.0161 91.5683 32.0161H82.8352L77.5957 58.2112H66.5338ZM101.884 70.4356L111.199 23.2842H132.739C142.055 23.8665 146.713 28.5229 146.713 36.6732C146.713 50.6439 135.651 58.7935 125.754 58.2112H115.274L112.945 70.4356H101.884ZM117.602 49.4799L120.513 32.0161H128.082C132.158 32.0161 135.068 33.7624 135.068 37.2549C134.487 47.1514 129.829 48.8976 124.589 49.4799H117.603H117.602Z" fill="#232531"/>
    </g>
    <defs>
        <clipPath id="clip0_15_4">
            <rect width="170" height="89" fill="white"/>
        </clipPath>
    </defs>
</svg>
