<svg width="60" height="89" viewBox="0 0 60 89" fill="none" xmlns="http://www.w3.org/2000/svg">
    <g clip-path="url(#clip0_1_14)">
        <path fill-rule="evenodd" clip-rule="evenodd" d="M27.3761 43.2135C33.4539 37.47 31.6077 30.3753 26.1163 21.7812C20.6249 13.1871 9.55717 10.1381 7.49 12.0916C5.42283 14.045 4.95177 27.998 10.4432 36.5921C15.9346 45.1862 21.2983 48.9569 27.3761 43.2135Z" fill="url(#paint0_linear_1_14)"/>
        <path fill-rule="evenodd" clip-rule="evenodd" d="M32.6251 44.0232C37.1085 51.0398 43.1138 48.4671 50.5507 41.4393C57.9875 34.4116 61.0812 20.9599 59.5564 18.5734C58.0315 16.187 46.4259 16.3175 38.989 23.3453C31.5522 30.373 28.1417 37.0066 32.6251 44.0232Z" fill="url(#paint1_linear_1_14)"/>
        <path fill-rule="evenodd" clip-rule="evenodd" d="M30.1646 40.1598C37.6092 41.0614 40.5438 34.2229 41.9195 23.172C43.2952 12.1212 37.6785 0.447764 35.1465 0.141131C32.6144 -0.165503 24.0973 9.79631 22.7216 20.8472C21.3459 31.898 22.7199 39.2583 30.1646 40.1598Z" fill="url(#paint2_linear_1_14)"/>
        <path fill-rule="evenodd" clip-rule="evenodd" d="M28.3022 89C43.9359 89 56.6144 84.4949 56.6144 64.0641C56.6144 43.6333 43.9359 26.8679 28.3022 26.8679C12.6686 26.8679 0 43.6333 0 64.0641C0 84.4949 12.6686 89 28.3022 89Z" fill="url(#paint3_linear_1_14)"/>
        <path d="M42.6019 59.8931C44.8353 59.8931 46.6458 59.0577 46.6458 58.0273C46.6458 56.9968 44.8353 56.1614 42.6019 56.1614C40.3685 56.1614 38.558 56.9968 38.558 58.0273C38.558 59.0577 40.3685 59.8931 42.6019 59.8931Z" fill="#EAADCC"/>
        <path d="M12.6548 58.7597C14.8715 59.0297 16.7712 58.4194 16.8978 57.3966C17.0244 56.3739 15.33 55.3258 13.1132 55.0558C10.8965 54.7858 8.99686 55.3961 8.87027 56.4189C8.74367 57.4417 10.4381 58.4897 12.6548 58.7597Z" fill="#EAADCC"/>
        <path d="M24.7865 55.4801C24.1672 54.5682 22.9236 54.3288 22.009 54.9449C21.0945 55.5611 20.8547 56.8002 21.474 57.7121C22.6278 59.4113 24.3849 60.3132 26.4511 60.5481C28.5637 60.7883 30.5075 60.2435 32.1521 58.9168C33.01 58.2245 33.1414 56.9696 32.446 56.114C31.7505 55.2585 30.491 55.1257 29.633 55.8178C28.8442 56.4541 27.9768 56.7104 26.9007 56.5881C25.7784 56.4604 25.1715 56.0472 24.7865 55.4801Z" fill="black"/>
        <path fill-rule="evenodd" clip-rule="evenodd" d="M15.2308 47.6555C16.3466 47.6172 17.3726 48.0313 18.1295 48.7318C18.8864 49.4323 19.3742 50.4193 19.4135 51.5267C19.4528 52.6342 19.0361 53.6523 18.3307 54.4031C17.6252 55.1539 16.631 55.6375 15.5152 55.6759C14.3995 55.7142 13.3735 55.3001 12.6167 54.5995C11.8599 53.899 11.3721 52.912 11.3329 51.8045C11.2936 50.6971 11.7102 49.6791 12.4156 48.9282C13.121 48.1774 14.1151 47.6939 15.2308 47.6555Z" fill="black"/>
        <path fill-rule="evenodd" clip-rule="evenodd" d="M15.4438 51.0101C15.4183 50.2891 14.8083 49.7248 14.0822 49.7497C13.3556 49.7747 12.7873 50.3796 12.8129 51.1006C12.8385 51.8216 13.4482 52.386 14.1748 52.361C14.9009 52.3358 15.4694 51.7311 15.4438 51.0101Z" fill="white"/>
        <path fill-rule="evenodd" clip-rule="evenodd" d="M39.7331 48.6737C40.8489 48.6353 41.8749 49.0494 42.6317 49.7499C43.3886 50.4504 43.8764 51.4374 43.9157 52.5448C43.9549 53.6523 43.5383 54.6704 42.8329 55.4213C42.1275 56.1721 41.1334 56.6557 40.0176 56.694C38.9018 56.7324 37.8758 56.3183 37.1189 55.6177C36.3621 54.9171 35.8743 53.9301 35.835 52.8227C35.7957 51.7153 36.2124 50.6972 36.9178 49.9464C37.6232 49.1956 38.6174 48.712 39.7331 48.6737Z" fill="black"/>
        <path d="M18.8489 51.5469C18.9169 53.4533 17.4159 55.0516 15.4962 55.1171C13.5766 55.1827 11.9655 53.6907 11.8975 51.7843C11.8294 49.8781 13.3302 48.2798 15.2497 48.2143C17.1695 48.1487 18.7808 49.6407 18.8489 51.5469ZM19.9761 51.5084C19.886 48.9839 17.7521 47.008 15.2098 47.0949C12.6676 47.1817 10.6801 49.2984 10.7702 51.8228C10.8603 54.3474 12.994 56.3233 15.5362 56.2365C18.0785 56.1497 20.0663 54.033 19.9761 51.5084Z" fill="white"/>
        <path d="M12.8968 51.7504C12.8485 50.3977 13.9144 49.2567 15.2856 49.2098C16.657 49.1631 17.8014 50.2287 17.8497 51.5812C17.8979 52.9339 16.8322 54.0742 15.4609 54.1212C14.0898 54.168 12.9452 53.1033 12.8968 51.7504ZM9.77115 51.8571C9.88117 54.935 12.4815 57.3382 15.572 57.2327C18.6624 57.127 21.0851 54.5524 20.9753 51.4745C20.8654 48.3966 18.2649 45.9936 15.1745 46.099C12.084 46.2045 9.66126 48.7793 9.77115 51.8571Z" fill="white"/>
        <path d="M43.3511 52.5651C43.4191 54.4715 41.9183 56.0697 39.9986 56.1353C38.079 56.2009 36.4677 54.7089 36.3996 52.8025C36.3316 50.8963 37.8326 49.298 39.7521 49.2324C41.6719 49.1669 43.283 50.6589 43.3511 52.5651ZM44.4783 52.5266C44.3882 50.0021 42.2544 48.0262 39.7121 48.113C37.17 48.1999 35.1822 50.3166 35.2724 52.841C35.3625 55.3655 37.4963 57.3415 40.0385 57.2547C42.5809 57.1679 44.5684 55.0512 44.4783 52.5266Z" fill="white"/>
        <path d="M37.399 52.7686C37.3507 51.4159 38.4164 50.2748 39.7877 50.228C41.1592 50.1812 42.3036 51.2467 42.3519 52.5994C42.4 53.9522 41.3344 55.0925 39.9631 55.1393C38.5919 55.1861 37.4474 54.1213 37.399 52.7686ZM34.2733 52.8753C34.3833 55.9532 36.9837 58.3564 40.0742 58.2508C43.1647 58.1452 45.5873 55.5706 45.4775 52.4926C45.3676 49.4147 42.7672 47.0116 39.6767 47.1171C36.5862 47.2227 34.1634 49.7974 34.2733 52.8753Z" fill="white"/>
        <path fill-rule="evenodd" clip-rule="evenodd" d="M39.9457 52.0286C39.9199 51.3075 39.3102 50.7428 38.5839 50.7676C37.8577 50.7924 37.2897 51.3973 37.3154 52.1185C37.3412 52.8396 37.9509 53.4043 38.6772 53.3795C39.4034 53.3547 39.9714 52.7498 39.9457 52.0286Z" fill="white"/>
        <path d="M4.31899 63.3289C5.77605 61.9278 8.09691 61.9687 9.50324 63.4203L23.4219 77.7871C24.8282 79.2387 24.7871 81.5515 23.3301 82.9526C21.873 84.3535 19.5514 84.3121 18.1452 82.8605L4.2272 68.4938C2.82088 67.0421 2.86196 64.7299 4.31899 63.3289Z" fill="#ECB732"/>
        <path d="M16.2365 65.1288C17.6267 63.6617 19.9476 63.5953 21.4201 64.9802C22.8924 66.3652 22.9591 68.6769 21.5692 70.1438L12.7287 79.4728C11.3387 80.9398 9.01831 81.0068 7.54578 79.622C6.07325 78.2371 6.00655 75.9248 7.39669 74.4578L16.2365 65.1288Z" fill="#ECB732"/>
        <path d="M52.1074 63.3289C50.6503 61.9278 48.3295 61.9687 46.9231 63.4203L33.0045 77.7871C31.5982 79.2387 31.6392 81.5515 33.0963 82.9526C34.5534 84.3535 36.8749 84.3121 38.2812 82.8605L52.1992 68.4938C53.6055 67.0421 53.5644 64.7299 52.1074 63.3289Z" fill="#ECB732"/>
        <path d="M40.1898 65.1288C38.7997 63.6617 36.4788 63.5953 35.0062 64.9802C33.534 66.3652 33.4672 68.6769 34.8571 70.1438L43.6976 79.4728C45.0877 80.9398 47.408 81.0068 48.8806 79.622C50.3531 78.2371 50.4198 75.9248 49.0297 74.4578L40.1898 65.1288Z" fill="#ECB732"/>
        <path d="M36.5482 31.6604C37.977 33.09 37.9721 35.4031 36.5371 36.8266L27.321 45.9694C25.886 47.3929 23.5643 47.3874 22.1354 45.9577C20.7067 44.5281 20.7116 42.2157 22.1465 40.7922L31.3626 31.6493C32.7976 30.2258 35.1193 30.2308 36.5482 31.6604Z" fill="#FFC73B"/>
        <path d="M34.6673 45.9581C36.0961 44.5285 36.0912 42.2154 34.6562 40.7919L25.4401 31.6491C24.0051 30.2256 21.6834 30.2311 20.2545 31.6607C18.8258 33.0904 18.8307 35.4028 20.2656 36.8263L29.4817 45.9691C30.9167 47.3926 33.2384 47.3877 34.6673 45.9581Z" fill="#FFC73B"/>
    </g>
    <defs>
        <linearGradient id="paint0_linear_1_14" x1="3041.92" y1="-2340.22" x2="5523.5" y2="4644.63" gradientUnits="userSpaceOnUse">
            <stop stop-color="#52CE63"/>
            <stop offset="1" stop-color="#51A256"/>
        </linearGradient>
        <linearGradient id="paint1_linear_1_14" x1="2428.8" y1="3027.48" x2="-4596.98" y2="5552.16" gradientUnits="userSpaceOnUse">
            <stop stop-color="#52CE63"/>
            <stop offset="1" stop-color="#51A256"/>
        </linearGradient>
        <linearGradient id="paint2_linear_1_14" x1="3087.51" y1="369.784" x2="1727.44" y2="11600.8" gradientUnits="userSpaceOnUse">
            <stop stop-color="#8AE99C"/>
            <stop offset="1" stop-color="#52CE63"/>
        </linearGradient>
        <linearGradient id="paint3_linear_1_14" x1="9278.8" y1="5205.21" x2="7802.13" y2="29648.8" gradientUnits="userSpaceOnUse">
            <stop stop-color="#FFE56C"/>
            <stop offset="1" stop-color="#FFC63A"/>
        </linearGradient>
        <clipPath id="clip0_1_14">
            <rect width="60" height="89" fill="white"/>
        </clipPath>
    </defs>
</svg>
