<svg width="783" height="783" viewBox="0 0 783 783" fill="none" xmlns="http://www.w3.org/2000/svg">
    <path d="M602.214 75C606.008 75 609.159 76.2271 611.398 78.3516L611.612 78.5605C613.863 80.813 615.17 84.0467 615.17 87.9668V220.59C615.17 224.51 613.862 227.744 611.611 229.996C609.361 232.248 606.13 233.557 602.214 233.557H404.456V276.412L485.471 357.487H539.928C543.844 357.487 547.074 358.795 549.325 361.048C551.576 363.3 552.883 366.534 552.883 370.454V505.671L560.839 507.332C606.997 516.969 642.442 557.058 642.993 606.676L643 607.85L642.991 609.184C642.282 664.992 597.024 710.282 541.26 710.991L539.896 710.999C483.091 710.982 436.855 664.705 436.854 607.85C436.855 558.957 472.493 517.162 519.037 507.337L526.972 505.662V383.421H485.471L400.566 468.387C398.14 470.815 394.563 472.11 391.999 472.263L391.5 472.278C388.919 472.278 385.021 470.977 382.433 468.387L297.529 383.421H256.028V505.671L263.984 507.332C310.142 516.969 345.587 557.058 346.139 606.676L346.146 607.85L346.136 609.228C345.397 665.46 299.432 711 243.072 711C187.138 711 141.443 666.146 140.034 610.5L140.009 609.184L140 607.85C140 558.957 175.638 517.162 222.183 507.337L230.117 505.662V370.454C230.117 366.534 231.424 363.3 233.675 361.048C235.926 358.795 239.156 357.487 243.072 357.487H297.529L378.544 276.412V233.557H180.786C176.87 233.557 173.639 232.248 171.389 229.996C169.138 227.744 167.83 224.51 167.83 220.59V87.9668C167.83 84.0467 169.137 80.813 171.388 78.5605C173.638 76.3082 176.87 75 180.786 75H602.214ZM243.072 530.633C200.5 530.633 165.911 565.248 165.911 607.85V607.916L165.917 608.783V608.845C166.452 650.99 200.831 685.067 243.072 685.067C285.645 685.067 320.233 650.452 320.233 607.851C320.233 565.249 285.645 530.633 243.072 530.633ZM539.928 530.633C497.355 530.633 462.767 565.248 462.767 607.85V607.916L462.772 608.783V608.814L462.773 608.845C463.309 650.99 497.687 685.067 539.928 685.067H539.993L540.86 685.062H540.892L540.922 685.061C583.038 684.525 617.088 650.12 617.089 607.851C617.089 565.581 583.038 531.175 540.922 530.64L540.892 530.639H540.86L539.993 530.633H539.928ZM320.842 370.453L391.499 441.162L462.156 370.453L391.499 299.744L320.842 370.453ZM193.741 100.933V207.624H590.584V100.933H193.741Z" fill="#010101"/>
</svg>
