<svg width="94" height="94" viewBox="0 0 94 94" fill="none" xmlns="http://www.w3.org/2000/svg">
    <path d="M36.7076 1.67393C39.2765 1.35056 41.8505 2.23223 43.6813 4.06301L91.5492 51.9309C94.8226 55.2044 94.8228 60.5119 91.5492 63.7853L63.7896 91.5449C60.5163 94.8184 55.2087 94.8183 51.9353 91.5449L4.06735 43.6769C2.23658 41.8462 1.3541 39.2721 1.67731 36.7033L4.78034 12.0477C5.25845 8.24827 8.25089 5.2562 12.0501 4.77792L36.7076 1.67393ZM40.2122 7.53212C39.4531 6.77304 38.3851 6.40714 37.32 6.54122L12.6625 9.64617C11.0873 9.84454 9.84689 11.0848 9.64859 12.6601L6.54556 37.3156C6.41155 38.3807 6.77731 39.4487 7.53646 40.2078L55.4044 88.0757C56.7615 89.4329 58.9623 89.4327 60.3196 88.0757L88.0801 60.3152L88.2028 60.1859C89.4357 58.8216 89.3951 56.7151 88.0801 55.4L40.2122 7.53212Z" fill="#3498DB"/>
    <path d="M23.797 29.644C27.0261 29.6438 29.6437 27.0255 29.6437 23.7964C29.6435 20.5674 27.026 17.9498 23.797 17.9497C20.5679 17.9497 17.9495 20.5673 17.9494 23.7964C17.9494 27.0256 20.5678 29.644 23.797 29.644ZM23.797 34.5506C17.858 34.5506 13.0428 29.7354 13.0428 23.7964C13.043 17.8575 17.8581 13.0431 23.797 13.0431C29.7358 13.0433 34.5501 17.8576 34.5503 23.7964C34.5503 29.7353 29.7359 34.5504 23.797 34.5506Z" fill="#3498DB"/>
    <path d="M61.0369 61.3838C61.995 60.4262 63.5481 60.4261 64.506 61.3838L65.4854 62.3642C66.4435 63.3223 66.4435 64.8752 65.4854 65.8333C64.5274 66.7912 62.9744 66.7913 62.0163 65.8333L61.0369 64.8539C60.0788 63.8958 60.0788 62.3419 61.0369 61.3838ZM49.2803 37.8715C50.2383 36.9139 51.7914 36.9138 52.7494 37.8715C53.7075 38.8296 53.7075 40.3835 52.7494 41.3416L43.9319 50.1591C42.7259 51.3654 42.7258 53.321 43.9319 54.5271C45.138 55.7332 47.0937 55.7331 48.2999 54.5271L52.4255 50.4015C53.3834 49.4438 54.9366 49.4439 55.8946 50.4015C56.8526 51.3596 56.8527 52.9135 55.8946 53.8716L51.77 57.9962C48.6477 61.1187 43.5851 61.1187 40.4628 57.9962C37.3404 54.8738 37.3404 49.8114 40.4628 46.689L41.6665 45.4854L40.4628 44.2817C39.5047 43.3236 39.5047 41.7697 40.4628 40.8116C41.4209 39.8538 42.9739 39.8537 43.9319 40.8116L45.1356 42.0153L49.2803 37.8715ZM0.718552 0.718552C1.67662 -0.239517 3.22959 -0.239517 4.18766 0.718552L25.5313 22.0622C26.4894 23.0202 26.4894 24.5732 25.5313 25.5313C24.5732 26.4894 23.0202 26.4894 22.0622 25.5313L0.718552 4.18766C-0.239517 3.22959 -0.239517 1.67662 0.718552 0.718552Z" fill="#3498DB"/>
    <path d="M54.1787 48.6486C57.3011 45.5263 62.3635 45.5264 65.4859 48.6486C68.608 51.7711 68.6082 56.8335 65.4859 59.9558L56.6684 68.7732C55.7104 69.7312 54.1564 69.7312 53.1984 68.7732C52.2403 67.8152 52.2404 66.2613 53.1984 65.3032L62.0158 56.4857C63.1844 55.3171 63.2215 53.4453 62.126 52.2327L62.0158 52.1177C60.8095 50.9116 58.8539 50.9116 57.6478 52.1177L52.6483 57.1172C51.6903 58.0752 50.1372 58.0752 49.1792 57.1172C48.2212 56.1592 48.2212 54.6062 49.1792 53.6481L54.1787 48.6486Z" fill="#3498DB"/>
</svg>
