<svg width="142" height="94" viewBox="0 0 142 94" fill="none" xmlns="http://www.w3.org/2000/svg">
    <path d="M111.012 0C117.506 0.000178403 122.794 5.28919 122.794 11.7839V25.6113H133.418C138.152 25.6113 142 29.4602 142 34.1943V85.417C142 90.1511 138.152 94 133.418 94H104.61C99.8771 94 96.0288 90.1511 96.0288 85.417V77.9924H72.0585L74.388 89.6406H82.2035C83.3996 89.6407 84.3821 90.6236 84.3823 91.8198C84.3823 93.0163 83.3998 93.9999 82.2035 94H40.591C39.3946 94 38.4111 93.0163 38.4111 91.8198C38.4114 90.6235 39.3948 89.6406 40.591 89.6406H48.4065L50.7359 77.9924H11.7821C5.28827 77.9923 0 72.7034 0 66.2085V11.7839C7.24619e-05 5.28913 5.28832 7.24752e-05 11.7821 0H111.012ZM55.1824 77.9924L52.8529 89.6406H69.9415L67.612 77.9924H55.1824ZM100.387 79.5939V85.417C100.387 87.7421 102.286 89.6406 104.61 89.6406H133.418C135.743 89.6406 137.641 87.7421 137.641 85.417V79.5939H100.387ZM100.387 44.3778V75.2345H137.641V44.3778H100.387ZM4.35869 61.9858V66.2085C4.35869 70.3103 7.68092 73.633 11.7821 73.6331H96.0288V61.9858H4.35869ZM11.7821 4.35935C7.68096 4.35943 4.35876 7.68214 4.35869 11.7839V57.6265H96.0288V34.1943C96.0288 29.4602 99.8771 25.6113 104.61 25.6113H118.436V11.7839C118.436 7.6822 115.113 4.35953 111.012 4.35935H11.7821ZM104.61 29.9707C102.286 29.9707 100.387 31.8692 100.387 34.1943V40.0184H137.641V34.1943C137.641 31.8692 135.743 29.9707 133.418 29.9707H104.61Z" fill="#3498DB"/>
</svg>
