<svg width="783" height="783" viewBox="0 0 783 783" fill="none" xmlns="http://www.w3.org/2000/svg">
    <path d="M768.178 427.666C765.082 424.673 761.407 422.342 757.379 420.816C753.35 419.29 749.052 418.6 744.747 418.79L521.017 427.781C520.183 415.426 517.655 403.244 513.506 391.575L597.5 371.322C603.883 369.783 609.455 365.906 613.113 360.459C616.77 355.013 618.245 348.393 617.247 341.911C616.249 335.429 612.85 329.558 607.723 325.46C602.596 321.362 596.115 319.336 589.564 319.784L465.786 328.235C455.09 320.614 443.287 314.675 430.789 310.626L418.374 180.446C417.736 173.756 414.624 167.544 409.644 163.023C404.665 158.503 398.176 155.998 391.447 156C384.717 156.002 378.23 158.509 373.253 163.032C368.276 167.555 365.166 173.768 364.531 180.459L352.179 310.637C339.693 314.686 327.9 320.62 317.213 328.235L193.435 319.784C186.884 319.336 180.403 321.362 175.276 325.46C170.149 329.558 166.75 335.429 165.752 341.911C164.754 348.393 166.23 355.012 169.887 360.459C173.544 365.906 179.116 369.783 185.5 371.322L269.495 391.575C265.345 403.244 262.818 415.426 261.983 427.781L38.2525 418.79C30.3241 418.471 22.5604 421.108 16.4712 426.189C10.382 431.27 6.40245 438.43 5.30649 446.279C4.21052 454.127 6.07646 462.101 10.5414 468.652C15.0064 475.202 21.7513 479.861 29.4645 481.72L91.2944 496.629C70.2605 509.295 56.2319 531.786 56.2319 557.383C56.2319 596.872 89.5978 629 130.611 629C171.623 629 204.989 596.872 204.989 557.383C204.986 544.785 201.54 532.426 195.022 521.64L303.619 547.826C306.356 551.079 309.188 554.221 312.13 557.211C335.772 581.233 363.217 593.931 391.5 593.931C419.783 593.931 447.228 581.233 470.87 557.211C473.824 554.209 476.667 551.053 479.415 547.785C479.591 547.751 479.766 547.733 479.942 547.691L587.978 521.64C581.461 532.427 578.014 544.785 578.011 557.383C578.011 596.872 611.377 629 652.389 629C693.402 629 726.768 596.872 726.768 557.383C726.768 531.786 712.74 509.295 691.706 496.629L753.535 481.72C759.108 480.377 764.217 477.561 768.326 473.568C772.435 469.575 775.393 464.552 776.891 459.025C778.388 453.498 778.369 447.671 776.836 442.153C775.304 436.636 772.313 431.632 768.178 427.666ZM591.108 342.347C591.997 342.286 592.876 342.561 593.572 343.117C594.267 343.672 594.728 344.469 594.864 345.348C594.999 346.227 594.799 347.125 594.303 347.864C593.807 348.603 593.051 349.129 592.185 349.338L503.923 370.62C499.633 363.047 494.608 355.914 488.92 349.324L591.108 342.347ZM387.077 182.592C387.18 181.504 387.686 180.494 388.495 179.759C389.304 179.024 390.359 178.616 391.453 178.616C392.546 178.616 393.601 179.023 394.411 179.758C395.22 180.493 395.726 181.502 395.83 182.59L407.547 305.459C396.882 304.087 386.084 304.089 375.419 305.463L387.077 182.592ZM327.183 349.013C327.366 348.883 327.539 348.738 327.714 348.596C338.991 340.01 351.887 333.786 365.63 330.295C379.373 326.804 393.68 326.119 407.694 328.28C421.708 330.442 435.141 335.406 447.189 342.875C459.237 350.343 469.652 360.164 477.809 371.747L391.5 390.455L305.19 371.747C311.37 363.137 318.78 355.478 327.183 349.013ZM190.814 349.338C189.948 349.129 189.192 348.603 188.696 347.864C188.2 347.125 188 346.227 188.136 345.348C188.271 344.469 188.732 343.672 189.428 343.116C190.123 342.561 191.002 342.286 191.891 342.347L294.079 349.324C288.391 355.914 283.367 363.047 279.077 370.62L190.814 349.338ZM130.611 606.384C102.085 606.384 78.8783 584.402 78.8783 557.383C78.8783 530.364 102.085 508.382 130.611 508.382C159.135 508.382 182.342 530.364 182.342 557.383C182.342 584.402 159.135 606.384 130.611 606.384ZM34.7789 459.736C32.5301 459.194 30.5637 457.835 29.2621 455.925C27.9604 454.015 27.4165 451.69 27.7362 449.402C28.0558 447.114 29.2162 445.026 30.9916 443.545C32.767 442.064 35.0305 441.295 37.3421 441.388L262.325 450.429C263.182 459.393 264.773 468.271 267.082 476.975C271.052 491.96 276.88 506.391 284.431 519.933L34.7789 459.736ZM284.311 436.885C284.31 421.572 287.44 406.421 293.508 392.358L380.177 411.144V482.924L287.375 464.427C285.385 455.38 284.359 446.148 284.311 436.885ZM391.5 571.315C348.071 571.315 311.724 531.536 294.851 488.98L389.183 507.781L389.261 507.797L389.284 507.802C389.374 507.819 389.466 507.826 389.557 507.842C389.827 507.889 390.097 507.936 390.374 507.963C390.748 508.001 391.124 508.02 391.5 508.02C391.876 508.02 392.251 508.001 392.626 507.963C392.903 507.936 393.173 507.889 393.444 507.842C393.534 507.826 393.626 507.819 393.716 507.802L393.739 507.797L393.817 507.781L488.149 488.98C471.276 531.536 434.929 571.315 391.5 571.315ZM402.823 482.924V411.144L489.493 392.358C495.561 406.421 498.69 421.572 498.689 436.885C498.642 446.148 497.615 455.38 495.626 464.427L402.823 482.924ZM704.122 557.383C704.122 584.402 680.915 606.384 652.389 606.384C623.865 606.384 600.658 584.402 600.658 557.383C600.658 530.364 623.865 508.382 652.389 508.382C680.915 508.382 704.122 530.364 704.122 557.383ZM748.22 459.736L498.569 519.933C506.12 506.391 511.948 491.96 515.918 476.975C518.227 468.271 519.818 459.393 520.675 450.43L745.657 441.388C747.969 441.295 750.233 442.063 752.008 443.545C753.784 445.026 754.944 447.114 755.264 449.402C755.584 451.69 755.04 454.016 753.738 455.926C752.436 457.836 750.469 459.194 748.22 459.736ZM130.61 546.075C128.371 546.075 126.182 546.738 124.32 547.981C122.457 549.223 121.006 550.989 120.149 553.056C119.292 555.122 119.068 557.395 119.505 559.589C119.942 561.782 121.02 563.797 122.604 565.379C124.187 566.96 126.205 568.037 128.401 568.474C130.598 568.91 132.875 568.686 134.944 567.83C137.013 566.974 138.781 565.525 140.025 563.665C141.27 561.806 141.934 559.619 141.934 557.383C141.934 554.384 140.741 551.508 138.617 549.387C136.494 547.266 133.613 546.075 130.61 546.075ZM652.39 546.075C650.15 546.075 647.961 546.738 646.099 547.981C644.237 549.223 642.785 550.989 641.928 553.056C641.071 555.122 640.847 557.395 641.284 559.589C641.721 561.782 642.799 563.797 644.383 565.379C645.967 566.96 647.984 568.037 650.181 568.474C652.377 568.91 654.654 568.686 656.723 567.83C658.792 566.974 660.56 565.525 661.805 563.665C663.049 561.806 663.713 559.619 663.713 557.383C663.713 554.384 662.52 551.508 660.396 549.387C658.273 547.266 655.393 546.075 652.39 546.075Z" fill="#18171C"/>
</svg>
