<svg width="122" height="89" viewBox="0 0 122 89" fill="none" xmlns="http://www.w3.org/2000/svg">
    <g clip-path="url(#clip0_16_8)">
        <path d="M0 0V32.1304C16.4854 25.2368 38.5124 18.3082 66.2321 11.3174C83.9944 6.84439 101.161 3.08342 117.742 0H0ZM121.973 6.85109C105.899 9.25026 91.4833 12.0734 78.7963 15.263C64.2729 18.9269 52.5807 22.6304 43.7377 26.4072C34.8832 30.1155 30.77 33.1152 31.346 35.4258C31.8654 37.4661 35.5736 38.3925 42.4856 38.2011C46.0428 38.1331 51.8031 37.7403 59.799 37.0302C67.7949 36.3201 78.1188 35.2933 90.7563 33.9516C103.283 32.653 113.659 31.7744 121.973 31.2634V6.85109ZM86.2662 47.6102C82.7085 47.6552 77.811 47.9284 71.5427 48.3906C65.2525 48.8643 57.4701 49.5462 48.1416 50.5152C33.663 52.0712 21.612 53.2818 12.0462 54.0708C7.45796 54.4599 3.47098 54.7015 0 54.8948V80.9551C18.9987 78.1654 36.1854 74.8404 51.5092 70.9818C66.5637 67.194 78.1345 63.4981 86.2662 59.9248C94.4088 56.3514 98.2109 53.3196 97.5782 50.8621C97.0474 48.7433 93.2343 47.6667 86.2662 47.6102ZM121.973 56.759C105.278 63.3273 84.5566 69.7693 59.799 76.0117C36.749 81.8159 16.8384 85.9687 0 88.543V88.7598H121.973V56.759ZM5.09474 62.2234C5.15668 62.2139 5.20433 62.223 5.2677 62.2234C5.58263 62.234 5.91901 62.3335 6.13103 62.5703C6.45502 62.9053 6.53888 63.4417 6.34687 63.8709C6.13818 64.3652 5.58406 64.6633 5.05139 64.5647C4.46392 64.4791 4.00842 63.8996 4.05845 63.3072C4.0756 62.7503 4.54634 62.2928 5.09474 62.2234ZM9.41239 62.2234C9.68778 62.2344 9.94363 62.2904 10.1461 62.4837C10.5292 62.7995 10.6798 63.367 10.492 63.8278C10.3157 64.3015 9.83357 64.6528 9.32615 64.6083C8.89019 64.5901 8.46138 64.3173 8.28986 63.9144C8.05258 63.3905 8.24602 62.6818 8.76488 62.3967C8.96034 62.2792 9.18467 62.2192 9.41239 62.2234ZM5.26722 69.8985C5.78179 69.8817 6.24157 70.2454 6.39023 70.722C6.54746 71.2526 6.29684 71.9197 5.7856 72.1527C5.27198 72.412 4.59732 72.2479 4.27429 71.7627C3.94553 71.289 3.99127 70.5746 4.44724 70.2019C4.67309 70.0009 4.96551 69.8926 5.26722 69.8985ZM9.41239 69.8985C9.82166 69.876 10.1852 70.1358 10.4053 70.4622C10.7231 70.9593 10.5902 71.6766 10.1032 72.023C9.61488 72.3962 8.8516 72.3336 8.46233 71.8493C8.06068 71.3689 8.08689 70.5502 8.59193 70.1583C8.8111 69.9765 9.12651 69.8894 9.41239 69.8985Z" fill="#809CC8"/>
    </g>
    <defs>
        <clipPath id="clip0_16_8">
            <rect width="122" height="89" fill="white"/>
        </clipPath>
    </defs>
</svg>
