<svg width="783" height="783" viewBox="0 0 783 783" fill="none" xmlns="http://www.w3.org/2000/svg">
    <path d="M603.846 248.389C611.045 244.076 620.375 246.421 624.684 253.626L625.816 255.538C649.451 295.806 663 342.721 663 392.759C663 541.986 542.618 663.073 393.753 664.017L392 664.023C360.048 664.023 329.375 658.48 300.896 648.307L283.33 642.031L302.523 719.296C304.513 727.308 299.749 735.42 291.85 737.61L291.4 737.729C283.4 739.693 275.316 734.918 273.138 727.012L273.038 726.632L245.555 615.987C243.531 607.84 248.489 599.591 256.631 597.565L367.167 570.053C375.309 568.027 383.55 572.991 385.574 581.139L385.664 581.521C387.442 589.543 382.513 597.567 374.499 599.562L298.007 618.597L339.345 627.832C356.29 631.618 373.91 633.615 392 633.615C524.887 633.615 632.618 525.783 632.618 392.759C632.618 347.578 620.204 305.346 598.613 269.241C594.306 262.038 596.648 252.702 603.846 248.389ZM494.557 48.1769C502.569 46.4491 510.55 51.4219 512.503 59.4425L539.446 170.092L539.571 170.631C541.292 178.646 536.327 186.628 528.314 188.583L417.652 215.583C409.5 217.572 401.281 212.569 399.295 204.412C397.309 196.256 402.306 188.03 410.457 186.041L487.029 167.357L445.744 157.931C428.465 153.986 410.477 151.903 392 151.903C259.113 151.903 151.382 259.735 151.382 392.759C151.382 438.737 164.238 481.663 186.539 518.185C190.845 525.236 188.727 534.413 181.832 538.875L181.5 539.084C174.341 543.464 164.991 541.206 160.615 534.041C135.874 493.524 121.455 446 121.011 395.182L121 392.759C121 242.947 242.329 121.496 392 121.496L393.518 121.5C425.364 121.675 455.922 127.356 484.282 137.636L501.819 143.992L482.984 66.6418C481.002 58.5013 485.975 50.2919 494.098 48.2824L494.557 48.1769Z" fill="black"/>
    <path d="M392.491 298.706C441.869 298.706 491.303 328.142 539.424 386.028L539.426 386.031C542.609 389.858 542.623 395.395 539.472 399.236L539.424 399.295C491.302 457.181 441.869 486.622 392.491 486.622C343.166 486.622 293.794 457.254 245.725 399.498L245.555 399.293L245.265 398.928C242.364 395.102 242.459 389.755 245.554 386.03C293.3 328.595 342.336 299.168 391.333 298.712L392.491 298.706ZM392.491 319.45C353.418 319.45 313.299 341.774 273.117 385.932L266.993 392.662L273.117 399.393C313.299 443.55 353.418 465.878 392.491 465.878C431.566 465.878 471.682 443.553 511.865 399.393L517.989 392.662L511.865 385.932C471.683 341.775 431.566 319.451 392.491 319.45Z" fill="black"/>
    <path d="M393.624 349.738C416.693 350.325 435.275 369.27 435.275 392.478C435.275 416.053 416.098 435.231 392.522 435.231C369.315 435.231 350.37 416.648 349.783 393.579L349.77 392.478C349.77 368.902 368.947 349.725 392.522 349.725L393.624 349.738ZM392.522 367.27C378.625 367.27 367.314 378.58 367.314 392.478C367.315 406.375 378.625 417.686 392.522 417.686C406.42 417.686 417.73 406.375 417.73 392.478C417.73 378.58 406.42 367.27 392.522 367.27Z" fill="black"/>
</svg>
