<svg width="133" height="115" viewBox="0 0 133 115" fill="none" xmlns="http://www.w3.org/2000/svg">
    <path d="M129.749 1.18904C125.776 -1.33209 119.636 0.828874 118.191 1.5492L7.66464 44.4084C3.69147 45.849 -0.642897 49.0905 0.0794967 54.1327C0.801891 59.8953 6.94224 62.0563 7.66464 62.4165L33.3096 71.0603C35.1156 77.5432 41.256 97.3521 42.7007 101.674C43.7843 105.276 45.2291 109.598 49.2023 109.598C49.5635 109.958 50.2859 109.958 51.3695 109.958C53.8979 109.958 55.3426 109.237 56.065 108.157L70.8741 94.4708L95.7967 113.559C96.1579 113.92 96.1579 113.92 96.8803 113.92C99.0475 115 100.853 115 102.298 115C103.743 115 105.549 114.64 106.271 114.28C110.606 112.479 112.412 108.517 112.773 107.797C112.773 107.437 113.134 107.437 113.134 107.076L133 8.39227V7.67194C133 3.71017 130.833 1.90936 129.749 1.18904ZM55.3426 97.3521L56.7874 83.666L64.0114 89.0684L55.3426 97.3521ZM104.827 105.276C104.465 105.636 104.104 106.356 103.382 106.716C102.659 107.076 101.937 107.076 100.853 106.356L73.4025 85.1066L59.677 74.3018C71.2353 64.2173 106.994 32.1629 108.439 30.3621C109.883 28.9215 111.689 27.1207 111.328 24.5995C111.328 24.2394 111.328 24.2394 110.967 23.8792C110.606 22.4386 109.883 20.9979 108.439 20.2776C105.91 18.8369 103.021 19.9174 100.492 21.3581L35.4768 62.7766L9.83182 54.1327C9.47062 53.7726 8.74823 53.7726 8.38703 53.0523C8.74823 52.6921 9.47062 52.3319 9.83182 52.3319H10.193L120.358 9.11258H120.719C121.442 8.75242 122.525 8.39227 123.609 8.39227L104.827 105.276Z" fill="#076999"/>
</svg>
