<svg width="89" height="89" viewBox="0 0 89 89" fill="none" xmlns="http://www.w3.org/2000/svg">
    <g clip-path="url(#clip0_1_9)">
        <path d="M0 44.5V89H44.5H89V44.5V2.38419e-06H44.5H0V44.5Z" fill="#007ACC"/>
        <path d="M19.6812 44.7952L19.653 48.44L25.4451 48.44H31.2371V64.8979L31.2371 81.3558H35.3339H39.4308V64.8979V48.44H45.2228H51.0149V44.8658C51.0149 42.8881 50.9725 41.2352 50.916 41.1928C50.8736 41.1363 43.8243 41.1081 35.2774 41.1222L19.7236 41.1646L19.6812 44.7952Z" fill="white"/>
        <path d="M71.8142 41.0611C74.0745 41.6262 75.798 42.6292 77.3802 44.2679C78.1996 45.1438 79.4145 46.7401 79.5134 47.1216C79.5416 47.2346 75.6708 49.834 73.3258 51.289C73.241 51.3455 72.9019 50.9782 72.5205 50.4132C71.3762 48.7462 70.1754 48.0257 68.3389 47.8986C65.6407 47.7149 63.9031 49.1276 63.9172 51.4868C63.9172 52.179 64.0161 52.5887 64.2986 53.1538C64.8919 54.3829 65.9938 55.1175 69.455 56.6149C75.8262 59.3555 78.5527 61.1638 80.248 63.7349C82.141 66.6027 82.5648 71.1798 81.2792 74.5844C79.8665 78.2857 76.3631 80.8003 71.4327 81.6338C69.907 81.9022 66.2905 81.8598 64.6518 81.5632C61.0777 80.9275 57.6872 79.1616 55.5964 76.8448C54.777 75.9406 53.1807 73.5814 53.2796 73.4119C53.3219 73.3554 53.6892 73.1294 54.0989 72.8892C54.4945 72.6632 55.9919 71.8014 57.4046 70.9821L59.9616 69.4987L60.4985 70.2898C61.2472 71.4341 62.8859 73.0022 63.8748 73.5249C66.7143 75.0224 70.6134 74.8105 72.5346 73.087C73.354 72.3382 73.6931 71.5613 73.6931 70.417C73.6931 69.3857 73.5659 68.9336 73.0291 68.1567C72.3369 67.1678 70.9242 66.3343 66.9121 64.5967C62.3208 62.6189 60.3431 61.3898 58.5348 59.4403C57.4894 58.3102 56.5005 56.5019 56.0908 54.9903C55.7518 53.733 55.667 50.5827 55.9354 49.3113C56.8819 44.8754 60.23 41.7816 65.0615 40.8633C66.6296 40.5667 70.2743 40.6797 71.8142 41.0611Z" fill="white"/>
    </g>
    <defs>
        <clipPath id="clip0_1_9">
            <rect width="89" height="89" fill="white"/>
        </clipPath>
    </defs>
</svg>
