<svg width="783" height="783" viewBox="0 0 783 783" fill="none" xmlns="http://www.w3.org/2000/svg">
    <path d="M626.345 59C657.72 58.9904 688.065 70.201 711.898 90.6074C735.732 111.014 751.482 139.272 756.304 170.276C761.125 201.28 754.7 232.987 738.189 259.668C721.677 286.349 696.17 306.246 666.272 315.765L659.259 317.997L660.466 510.1C660.512 521.425 657.589 532.565 651.988 542.409C646.387 552.253 638.304 560.457 628.544 566.203L424.839 685.513C415.052 691.222 403.939 694.264 392.609 694.335C381.279 694.406 370.128 691.504 360.271 685.919L155.122 569.173C145.283 563.555 137.09 555.453 131.362 545.677C125.814 536.206 122.766 525.486 122.499 514.524L122.482 513.464L121.001 277.412C120.955 266.086 123.878 254.947 129.479 245.103C135.08 235.259 143.162 227.055 152.922 221.309L356.627 101.999C366.414 96.29 377.527 93.2481 388.857 93.1768C399.832 93.1077 410.64 95.8291 420.267 101.077L421.195 101.593L501.615 147.375L506.098 137.272C516.427 113.996 533.285 94.2145 554.627 80.3223C575.969 66.4305 600.88 59.0238 626.345 59ZM389.154 122.521C382.993 122.561 376.949 124.215 371.626 127.319L371.61 127.329L167.89 246.646L167.878 246.654C162.562 249.778 158.159 254.241 155.109 259.6C152.06 264.958 150.47 271.023 150.499 277.188V277.204L151.981 513.261V513.27C152.025 519.441 153.691 525.492 156.812 530.816C159.932 536.141 164.399 540.552 169.762 543.605L374.853 660.355L374.872 660.367C380.234 663.403 386.298 664.981 392.46 664.941C398.622 664.902 404.666 663.247 409.988 660.143L409.996 660.139L410.004 660.134L613.724 540.815L613.736 540.809C619.052 537.685 623.455 533.221 626.505 527.863C629.555 522.505 631.144 516.44 631.115 510.274V510.258L629.933 322.266L620.458 321.823C586.668 320.246 554.781 305.723 531.412 281.267C508.046 256.813 494.987 224.303 494.944 190.48C494.944 188.217 495.002 185.955 495.116 183.721L495.432 177.565L406.76 127.105L406.237 126.815C401.001 123.962 395.123 122.483 389.154 122.521ZM665.408 96.1953C646.753 88.4681 626.225 86.4464 606.421 90.3857C586.617 94.325 568.426 104.048 554.148 118.326C539.87 132.604 530.145 150.796 526.206 170.6C522.267 190.404 524.289 210.932 532.016 229.587C539.743 248.242 552.829 264.187 569.618 275.405C586.407 286.623 606.146 292.611 626.338 292.611H626.349C653.414 292.582 679.363 281.818 698.501 262.68C717.639 243.542 728.403 217.593 728.432 190.528V190.518C728.432 170.325 722.445 150.586 711.227 133.797C700.008 117.008 684.063 103.923 665.408 96.1953Z" fill="black"/>
    <path d="M422.606 294.932C426.503 294.932 430.24 296.481 432.996 299.236C435.751 301.992 437.299 305.729 437.299 309.626V414.632L437.3 414.691C437.423 425.007 435.496 435.245 431.632 444.811C427.769 454.377 422.046 463.082 414.795 470.42C407.543 477.758 398.906 483.584 389.386 487.56C379.867 491.537 369.652 493.585 359.336 493.585C349.019 493.585 338.805 491.537 329.285 487.56C319.765 483.584 311.128 477.758 303.877 470.42C296.625 463.082 290.902 454.377 287.039 444.811C283.175 435.245 281.249 425.007 281.371 414.691L281.372 414.632V309.626C281.372 305.729 282.92 301.992 285.675 299.236C288.431 296.481 292.168 294.932 296.065 294.932C299.962 294.932 303.699 296.481 306.455 299.236C309.21 301.992 310.758 305.729 310.758 309.626V414.572C310.668 420.964 311.837 427.311 314.205 433.251C316.594 439.245 320.154 444.704 324.676 449.307C329.198 453.911 334.592 457.568 340.543 460.064C346.493 462.56 352.882 463.845 359.336 463.845C365.789 463.845 372.178 462.56 378.129 460.064C384.079 457.568 389.473 453.911 393.995 449.307C398.517 444.704 402.077 439.245 404.466 433.251C406.834 427.311 408.004 420.964 407.913 414.572V309.626C407.913 305.729 409.461 301.992 412.216 299.236C414.972 296.481 418.709 294.932 422.606 294.932ZM485.488 294.932C489.385 294.932 493.122 296.481 495.878 299.236C498.633 301.992 500.181 305.729 500.181 309.626V477.837C500.181 481.734 498.633 485.471 495.878 488.226C493.122 490.982 489.385 492.53 485.488 492.53C481.591 492.53 477.854 490.982 475.098 488.226C472.343 485.471 470.795 481.734 470.795 477.837V309.626C470.795 305.729 472.343 301.992 475.098 299.236C477.854 296.481 481.591 294.932 485.488 294.932Z" fill="black"/>
</svg>
