<svg width="59" height="94" viewBox="0 0 59 94" fill="none" xmlns="http://www.w3.org/2000/svg">
    <path d="M56.7917 94H1.95833C0.877333 94 0 93.1227 0 92.0417V1.95833C0 0.877333 0.877333 0 1.95833 0H56.7917C57.8727 0 58.75 0.877333 58.75 1.95833V92.0417C58.75 93.1227 57.8727 94 56.7917 94ZM3.91667 90.0833H54.8333V3.91667H3.91667V90.0833Z" fill="#3498DB"/>
    <path d="M29.3749 43.0834C25.0548 43.0834 21.5416 39.5701 21.5416 35.25C21.5416 30.9299 25.0548 27.4167 29.3749 27.4167C33.695 27.4167 37.2083 30.9299 37.2083 35.25C37.2083 39.5701 33.695 43.0834 29.3749 43.0834ZM29.3749 31.3334C27.2149 31.3334 25.4583 33.09 25.4583 35.25C25.4583 37.4101 27.2149 39.1667 29.3749 39.1667C31.535 39.1667 33.2916 37.4101 33.2916 35.25C33.2916 33.09 31.535 31.3334 29.3749 31.3334ZM29.3749 60.7084C25.5953 60.7084 21.8706 59.7096 18.6041 57.8218C17.997 57.4712 17.6249 56.825 17.6249 56.1259V48.9584C17.6249 47.8774 18.5023 47 19.5833 47H39.1666C40.2476 47 41.1249 47.8774 41.1249 48.9584V56.1259C41.1249 56.825 40.7528 57.4712 40.1458 57.8218C36.8793 59.7096 33.1545 60.7084 29.3749 60.7084ZM21.5416 54.9567C26.3963 57.3655 32.3575 57.3635 37.2083 54.9567V50.9167H21.5416V54.9567ZM33.2916 76.375H25.4583C24.3773 76.375 23.4999 75.4977 23.4999 74.4167V66.5834C23.4999 65.5024 24.3773 64.625 25.4583 64.625H33.2916C34.3726 64.625 35.2499 65.5024 35.2499 66.5834V74.4167C35.2499 75.4977 34.3726 76.375 33.2916 76.375ZM27.4166 72.4584H31.3333V68.5417H27.4166V72.4584ZM48.9583 76.375H41.1249C40.0439 76.375 39.1666 75.4977 39.1666 74.4167V66.5834C39.1666 65.5024 40.0439 64.625 41.1249 64.625H48.9583C50.0393 64.625 50.9166 65.5024 50.9166 66.5834V74.4167C50.9166 75.4977 50.0393 76.375 48.9583 76.375ZM43.0833 72.4584H46.9999V68.5417H43.0833V72.4584ZM17.6249 76.375H9.79159C8.71059 76.375 7.83325 75.4977 7.83325 74.4167V66.5834C7.83325 65.5024 8.71059 64.625 9.79159 64.625H17.6249C18.7059 64.625 19.5833 65.5024 19.5833 66.5834V74.4167C19.5833 75.4977 18.7059 76.375 17.6249 76.375ZM11.7499 72.4584H15.6666V68.5417H11.7499V72.4584Z" fill="#3498DB"/>
    <path d="M29.3749 60.7083C25.5953 60.7083 21.8706 59.7096 18.6041 57.8217C11.9595 53.9775 7.83325 46.8296 7.83325 39.1667C7.83325 27.2894 17.4976 17.625 29.3749 17.625C41.2522 17.625 50.9166 27.2894 50.9166 39.1667C50.9166 46.8296 46.7904 53.9775 40.1477 57.8217C36.8792 59.7096 33.1545 60.7083 29.3749 60.7083ZM29.3749 21.5417C19.6577 21.5417 11.7499 29.4494 11.7499 39.1667C11.7499 45.4372 15.128 51.2848 20.5644 54.4299C25.9087 57.5182 32.8451 57.5182 38.1874 54.4299C43.6218 51.2848 46.9999 45.4372 46.9999 39.1667C46.9999 29.4494 39.0922 21.5417 29.3749 21.5417ZM45.0416 11.75H13.7083C12.6273 11.75 11.7499 10.8727 11.7499 9.79167V1.95833C11.7499 0.877333 12.6273 0 13.7083 0H45.0416C46.1226 0 46.9999 0.877333 46.9999 1.95833V9.79167C46.9999 10.8727 46.1226 11.75 45.0416 11.75ZM15.6666 7.83333H43.0833V3.91667H15.6666V7.83333ZM43.0833 86.1667H15.6666C14.5856 86.1667 13.7083 85.2893 13.7083 84.2083C13.7083 83.1273 14.5856 82.25 15.6666 82.25H43.0833C44.1643 82.25 45.0416 83.1273 45.0416 84.2083C45.0416 85.2893 44.1643 86.1667 43.0833 86.1667Z" fill="#3498DB"/>
</svg>
