<svg width="91" height="89" viewBox="0 0 91 89" fill="none" xmlns="http://www.w3.org/2000/svg">
    <path d="M88.7008 13.1131L47.8623 85.5953C47.0191 87.0918 44.8528 87.1006 43.997 85.6114L2.34865 13.1201C1.41627 11.4972 2.81442 9.53147 4.66724 9.86017L45.5495 17.1132C45.8103 17.1595 46.0773 17.159 46.3381 17.1118L86.3655 9.87057C88.2121 9.53652 89.6168 11.487 88.7008 13.1131Z" fill="url(#paint0_linear_1_46)"/>
    <path d="M65.0239 0.346832L34.8022 6.22453C34.3054 6.32113 33.9377 6.73895 33.9077 7.24037L32.0486 38.4044C32.0049 39.1384 32.6841 39.7081 33.4059 39.5429L41.82 37.6155C42.6073 37.4353 43.3186 38.1235 43.1568 38.9093L40.657 51.0593C40.4888 51.8771 41.2623 52.5763 42.0668 52.3338L47.2638 50.7666C48.0695 50.5238 48.8437 51.225 48.6732 52.0434L44.7005 71.1284C44.4519 72.3222 46.0518 72.9732 46.7189 71.9497L47.1646 71.2661L71.791 22.4862C72.2034 21.6694 71.4923 20.7381 70.5885 20.9112L61.9275 22.5703C61.1136 22.7261 60.4211 21.9737 60.6508 21.1834L66.3037 1.73305C66.5336 0.941356 65.8387 0.18839 65.0239 0.346832Z" fill="url(#paint1_linear_1_46)"/>
    <defs>
        <linearGradient id="paint0_linear_1_46" x1="1.33178" y1="7.26977" x2="51.6666" y2="76.1417" gradientUnits="userSpaceOnUse">
            <stop stop-color="#41D1FF"/>
            <stop offset="1" stop-color="#BD34FE"/>
        </linearGradient>
        <linearGradient id="paint1_linear_1_46" x1="43.203" y1="1.94262" x2="52.2636" y2="64.564" gradientUnits="userSpaceOnUse">
            <stop stop-color="#FFEA83"/>
            <stop offset="0.0833333" stop-color="#FFDD35"/>
            <stop offset="1" stop-color="#FFA800"/>
        </linearGradient>
    </defs>
</svg>
