<svg width="166" height="198" viewBox="0 0 166 198" fill="none" xmlns="http://www.w3.org/2000/svg">
<path d="M3.24045 53.4561C3.73108 53.3905 4.23021 53.4231 4.70823 53.5519C5.18614 53.6807 5.63378 53.9031 6.02498 54.2063C6.41624 54.5096 6.74347 54.8879 6.98737 55.3187L7.00316 55.3474L7.01994 55.376C18.7389 75.3994 30.7146 95.6865 42.2869 115.294C54.6782 136.294 67.4175 157.861 79.991 179.389L83.9492 186.168L87.8619 179.363C90.3012 175.12 92.7045 170.869 95.0517 166.737L95.0586 166.726C98.5248 160.584 102.109 154.255 105.781 147.969C106.286 147.116 107.11 146.497 108.07 146.251C109.031 146.004 110.051 146.149 110.904 146.654C111.758 147.159 112.376 147.983 112.623 148.944C112.869 149.905 112.723 150.925 112.218 151.778L112.206 151.798C108.555 158.042 104.957 164.39 101.5 170.492C96.8466 178.696 92.0718 187.122 87.1058 195.425C86.7902 195.906 86.3686 196.309 85.872 196.6C85.3887 196.883 84.8482 197.052 84.2907 197.098H83.7735C83.1747 197.098 82.5845 196.955 82.053 196.679C81.5905 196.439 81.1846 196.105 80.8596 195.7L80.6681 195.373L80.6563 195.353C65.7998 169.859 50.5679 144.027 35.8512 119.092C24.2692 99.47 12.2981 79.1841 0.572405 59.1486L0.555625 59.1199L0.538845 59.0923L0.447048 58.9314C0.241989 58.5508 0.104053 58.137 0.0403752 57.7084C-0.0323773 57.2187 -0.00647926 56.7195 0.115392 56.2397C0.237301 55.7598 0.453363 55.3087 0.751065 54.913C1.04876 54.5174 1.42238 54.1849 1.84967 53.9349C2.27695 53.6849 2.74981 53.5219 3.24045 53.4561ZM161.286 53.6328C161.76 53.505 162.254 53.4719 162.741 53.5351C163.227 53.5983 163.697 53.7565 164.122 54.001C164.547 54.2456 164.919 54.5718 165.219 54.9604C165.518 55.3493 165.737 55.7936 165.865 56.2673C165.993 56.7409 166.026 57.2349 165.963 57.7213C165.899 58.2077 165.741 58.677 165.496 59.1022L133.261 115.152L133.243 115.183L133.227 115.213C132.986 115.646 132.662 116.028 132.273 116.334C131.884 116.641 131.438 116.868 130.96 117.001C130.483 117.133 129.984 117.169 129.493 117.107C129.001 117.045 128.526 116.886 128.097 116.639C127.667 116.392 127.291 116.063 126.99 115.669C126.69 115.275 126.47 114.825 126.345 114.345C126.22 113.866 126.19 113.367 126.26 112.877C126.329 112.386 126.496 111.914 126.749 111.488L126.768 111.458L126.786 111.427L159.021 55.3789C159.265 54.9536 159.591 54.5797 159.98 54.2803C160.369 53.981 160.812 53.7607 161.286 53.6328Z" fill="black"/>
<path d="M30.3481 9.91263C31.0056 9.91265 31.6515 10.0864 32.2205 10.416C32.7895 10.7456 33.2614 11.2196 33.5886 11.79L33.5896 11.792L83.0566 97.9414L133.596 11.7624L133.597 11.7604C133.927 11.1984 134.398 10.7322 134.963 10.4081C135.457 10.1246 136.01 9.95775 136.576 9.92052L136.82 9.91263H162.679C163.189 9.96971 163.684 10.1297 164.13 10.3874C164.699 10.7152 165.17 11.1875 165.499 11.7555C165.827 12.3233 166 12.9673 166 13.623C166 14.2788 165.827 14.9236 165.5 15.4915L165.496 15.4985L87.1411 151.77C86.8145 152.336 86.3457 152.806 85.7809 153.133C85.2158 153.461 84.5744 153.635 83.9212 153.638H83.8975C83.2469 153.638 82.6076 153.468 82.0428 153.145C81.478 152.822 81.0066 152.357 80.6767 151.796L0.563241 15.5439L0.444793 15.3267C0.187096 14.814 0.0504968 14.2474 0.0470042 13.6714C0.0430208 13.013 0.213664 12.3655 0.540539 11.794C0.867397 11.2225 1.33918 10.7473 1.90862 10.417C2.47801 10.0868 3.12483 9.91267 3.78306 9.91263H30.3481ZM10.3145 17.3847L83.863 142.472L155.799 17.3847H138.96L86.2428 107.275C85.9117 107.839 85.4373 108.307 84.8688 108.63C84.3004 108.954 83.6573 109.123 83.0033 109.12C82.3491 109.117 81.7071 108.943 81.1417 108.614C80.6469 108.326 80.2257 107.929 79.9098 107.454L79.7815 107.246L28.2012 17.3847H10.3145Z" fill="black"/>
<path d="M87.7831 11.8221C87.7831 11.198 87.66 10.5795 87.4208 10.003C87.1817 9.42659 86.831 8.90296 86.3893 8.46216C85.9476 8.02134 85.4234 7.67159 84.8465 7.43363C84.2697 7.19571 83.6514 7.07414 83.0274 7.07532H83.0195C81.7607 7.07541 80.5535 7.576 79.6634 8.46611C78.7734 9.35627 78.2727 10.5633 78.2727 11.8221V43.741L70.387 30.3178L70.2616 30.1204C69.6103 29.1547 68.6244 28.4599 67.4899 28.1729C66.2796 27.867 64.9969 28.0497 63.9207 28.6823C62.8445 29.3149 62.0606 30.3464 61.7392 31.5527C61.418 32.759 61.5852 34.0437 62.2042 35.1278L79.1146 63.89L79.1156 63.891C79.5345 64.6041 80.1322 65.1957 80.8499 65.6066C81.5675 66.0174 82.3801 66.2331 83.207 66.2333H83.2396C84.0699 66.2304 84.8853 66.0101 85.6036 65.5937C86.2321 65.2293 86.767 64.7258 87.1691 64.124L87.333 63.8604L103.899 35.0647L103.927 35.0173C104.249 34.4765 104.461 33.8767 104.549 33.2534C104.638 32.6302 104.601 31.9958 104.442 31.3868C104.283 30.7777 104.004 30.2062 103.622 29.7059C103.239 29.2056 102.762 28.7859 102.216 28.472C101.67 28.1583 101.068 27.9565 100.443 27.8778C99.8186 27.7991 99.1842 27.8453 98.5777 28.014C97.9713 28.1827 97.4047 28.4702 96.9105 28.8599C96.4163 29.2498 96.0037 29.7339 95.6984 30.2843L95.6846 30.3099L87.7831 44.0233V11.8221ZM94.8584 21.8725C95.4457 21.5989 96.0553 21.3717 96.6825 21.1973C98.193 20.7773 99.772 20.6618 101.328 20.8578C102.883 21.0538 104.385 21.5576 105.744 22.3394C107.103 23.1211 108.293 24.1651 109.245 25.4111C110.197 26.6572 110.891 28.0803 111.287 29.5973C111.684 31.1143 111.775 32.695 111.555 34.2474C111.337 35.7815 110.819 37.257 110.032 38.5915L110.033 38.5924L93.4636 67.3932L93.4607 67.3981C92.4267 69.189 90.9411 70.6773 89.1521 71.7145C87.3629 72.7518 85.3324 73.3014 83.2643 73.3087H83.205C81.1457 73.3081 79.1222 72.7702 77.3349 71.7471C75.5475 70.7238 74.0577 69.251 73.0145 67.4751L56.0824 38.6754L56.0705 38.6556L56.0596 38.6369C54.5179 35.9366 54.1017 32.7372 54.9018 29.7325C55.702 26.7278 57.6541 24.159 60.3346 22.5832C63.0151 21.0074 66.2087 20.5509 69.2232 21.3128C69.9054 21.4853 70.5648 21.7206 71.1973 22.0067V11.8221C71.1973 8.68684 72.443 5.6797 74.66 3.46265C76.8753 1.24729 79.8798 0.00291722 83.0126 0.000999156H83.0155C83.0168 0.000998679 83.0182 1.21243e-05 83.0195 1.20867e-05C84.5717 -0.00220804 86.1092 0.301443 87.5442 0.89331C88.9812 1.48603 90.2876 2.35671 91.3878 3.45475C92.4879 4.55274 93.3607 5.85683 93.9562 7.29248C94.5518 8.72832 94.8584 10.2676 94.8584 11.8221V21.8725Z" fill="black"/>
</svg>
