<svg width="197" height="197" viewBox="0 0 197 197" fill="none" xmlns="http://www.w3.org/2000/svg">
<path d="M107.475 197H89.5251C88.692 197 87.893 196.669 87.3039 196.08C86.7148 195.491 86.3838 194.692 86.3838 193.859V179.274C73.1852 177.307 60.6736 172.122 49.9523 164.176L39.6311 174.498C39.3394 174.789 38.9931 175.021 38.612 175.179C38.2308 175.336 37.8223 175.418 37.4098 175.418C36.9973 175.418 36.5888 175.336 36.2076 175.179C35.8265 175.021 35.4802 174.789 35.1885 174.498L22.5047 161.805C22.2129 161.513 21.9815 161.167 21.8237 160.786C21.6658 160.405 21.5845 159.996 21.5845 159.583C21.5845 159.171 21.6658 158.762 21.8237 158.381C21.9815 158 22.2129 157.654 22.5047 157.362L32.8259 147.041C24.8807 136.322 19.6949 123.813 17.7255 110.616H3.14123C2.30812 110.616 1.50914 110.285 0.920044 109.696C0.330949 109.107 0 108.308 0 107.475V89.5251C0 88.692 0.330949 87.893 0.920044 87.3039C1.50914 86.7148 2.30812 86.3838 3.14123 86.3838H17.7255C19.6931 73.1852 24.8783 60.6736 32.8236 49.9523L22.5024 39.6311C22.2107 39.3394 21.9793 38.9931 21.8214 38.612C21.6635 38.2308 21.5823 37.8223 21.5823 37.4098C21.5823 36.9973 21.6635 36.5888 21.8214 36.2076C21.9793 35.8265 22.2107 35.4802 22.5024 35.1885L35.193 22.4979C35.4847 22.2062 35.831 21.9748 36.2121 21.8169C36.5933 21.659 37.0018 21.5778 37.4143 21.5778C37.8268 21.5778 38.2353 21.659 38.6165 21.8169C38.9976 21.9748 39.3439 22.2062 39.6356 22.4979L49.9568 32.8191C60.6772 24.8761 73.1872 19.6925 86.3838 17.7255V3.14123C86.3838 2.30812 86.7148 1.50914 87.3039 0.920044C87.893 0.330949 88.692 0 89.5251 0H107.475C108.308 0 109.107 0.330949 109.696 0.920044C110.285 1.50914 110.616 2.30812 110.616 3.14123V17.7255C123.815 19.6931 136.326 24.8783 147.048 32.8236L157.369 22.5024C157.661 22.2107 158.007 21.9793 158.388 21.8214C158.769 21.6635 159.178 21.5823 159.59 21.5823C160.003 21.5823 160.411 21.6635 160.792 21.8214C161.173 21.9793 161.52 22.2107 161.811 22.5024L174.502 35.193C174.794 35.4847 175.025 35.831 175.183 36.2121C175.341 36.5933 175.422 37.0018 175.422 37.4143C175.422 37.8268 175.341 38.2353 175.183 38.6165C175.025 38.9976 174.794 39.3439 174.502 39.6356L164.181 49.9568C172.124 60.6772 177.307 73.1872 179.274 86.3838H193.859C194.692 86.3838 195.491 86.7148 196.08 87.3039C196.669 87.893 197 88.692 197 89.5251V107.475C197 108.308 196.669 109.107 196.08 109.696C195.491 110.285 194.692 110.616 193.859 110.616H179.274C177.307 123.815 172.122 136.326 164.176 147.048L174.498 157.369C174.789 157.661 175.021 158.007 175.179 158.388C175.336 158.769 175.418 159.178 175.418 159.59C175.418 160.003 175.336 160.411 175.179 160.792C175.021 161.173 174.789 161.52 174.498 161.811L161.805 174.495C161.513 174.787 161.167 175.018 160.786 175.176C160.405 175.334 159.996 175.415 159.583 175.415C159.171 175.415 158.762 175.334 158.381 175.176C158 175.018 157.654 174.787 157.362 174.495L147.041 164.174C136.322 172.119 123.813 177.305 110.616 179.274V193.859C110.616 194.692 110.285 195.491 109.696 196.08C109.107 196.669 108.308 197 107.475 197ZM92.6663 190.718H104.334V176.524C104.334 175.752 104.618 175.007 105.132 174.432C105.646 173.856 106.354 173.49 107.12 173.403C121.103 171.81 134.356 166.318 145.367 157.555C145.971 157.075 146.73 156.834 147.5 156.878C148.27 156.922 148.997 157.248 149.543 157.793L159.583 167.831L167.831 159.583L157.791 149.543C157.245 148.998 156.919 148.271 156.875 147.501C156.83 146.731 157.071 145.971 157.551 145.367C166.315 134.356 171.807 121.103 173.4 107.12C173.488 106.353 173.854 105.645 174.43 105.131C175.006 104.617 175.752 104.333 176.524 104.334H190.718V92.6663H176.524C175.752 92.6663 175.007 92.3822 174.432 91.8682C173.856 91.3542 173.49 90.6463 173.403 89.8796C171.81 75.8968 166.317 62.6436 157.553 51.6328C157.073 51.0288 156.833 50.2693 156.877 49.4993C156.921 48.7292 157.247 48.0024 157.793 47.4573L167.831 37.4165L159.583 29.1686L149.543 39.2093C148.997 39.7546 148.27 40.0803 147.5 40.1241C146.73 40.168 145.971 39.927 145.367 39.4471C134.356 30.6841 121.103 25.1927 107.12 23.5996C106.353 23.5125 105.645 23.1459 105.131 22.5698C104.617 21.9937 104.333 21.2484 104.334 20.4763V6.28246H92.6663V20.4763C92.6663 21.248 92.3822 21.9927 91.8682 22.5684C91.3542 23.144 90.6463 23.5103 89.8796 23.5974C75.8973 25.1905 62.6443 30.6818 51.6328 39.4449C51.029 39.9248 50.2698 40.1658 49.4997 40.1219C48.7297 40.078 48.0027 39.7524 47.4573 39.207L37.4165 29.1686L29.1686 37.4165L39.2093 47.4573C39.755 48.0024 40.081 48.7292 40.1253 49.4993C40.1696 50.2693 39.929 51.0288 39.4494 51.6328C30.6848 62.6436 25.1925 75.8968 23.5996 89.8796C23.5125 90.6467 23.1459 91.3549 22.5698 91.8689C21.9937 92.383 21.2484 92.6668 20.4763 92.6663H6.28246V104.334H20.4763C21.248 104.334 21.9927 104.618 22.5684 105.132C23.144 105.646 23.5103 106.354 23.5974 107.12C25.1903 121.103 30.6825 134.356 39.4471 145.367C39.9267 145.971 40.1673 146.731 40.1231 147.501C40.0788 148.271 39.7527 148.998 39.207 149.543L29.1686 159.583L37.4165 167.831L47.4573 157.791C48.0027 157.245 48.7297 156.92 49.4997 156.876C50.2698 156.832 51.029 157.073 51.6328 157.553C62.6443 166.316 75.8973 171.807 89.8796 173.4C90.6467 173.488 91.3549 173.854 91.8689 174.43C92.383 175.006 92.6668 175.752 92.6663 176.524V190.718Z" fill="black"/>
<path d="M98.5 157.735C84.7958 157.734 71.5156 152.982 60.9224 144.288C50.3291 135.594 43.0781 123.496 40.4049 110.055C37.7317 96.6136 39.8017 82.6615 46.2621 70.5756C52.7226 58.4898 63.1737 49.0179 75.8349 43.7738C88.4961 38.5297 102.584 37.838 115.698 41.8164C128.812 45.7948 140.141 54.1973 147.754 65.5921C155.368 76.9869 158.794 90.6691 157.451 104.307C156.107 117.945 150.077 130.696 140.386 140.386C134.898 145.903 128.37 150.278 121.181 153.255C113.991 156.233 106.282 157.756 98.5 157.735ZM98.5 45.5478C69.3022 45.5478 45.5478 69.3023 45.5478 98.5C45.5478 127.698 69.3022 151.452 98.5 151.452C127.698 151.452 151.452 127.698 151.452 98.5C151.452 69.3023 127.698 45.5478 98.5 45.5478Z" fill="black"/>
<path d="M98.5 59.0103C97.6669 59.0103 96.8679 58.6793 96.2788 58.0902C95.6897 57.5011 95.3588 56.7021 95.3588 55.869V42.4066C95.3588 41.5735 95.6897 40.7745 96.2788 40.1854C96.8679 39.5963 97.6669 39.2654 98.5 39.2654C99.3331 39.2654 100.132 39.5963 100.721 40.1854C101.31 40.7745 101.641 41.5735 101.641 42.4066V55.869C101.641 56.7021 101.31 57.5011 100.721 58.0902C100.132 58.6793 99.3331 59.0103 98.5 59.0103ZM77.1845 64.7228C76.6329 64.723 76.0909 64.578 75.6132 64.3023C75.1354 64.0266 74.7387 63.6299 74.4629 63.1522L67.7317 51.4848C67.5139 51.1272 67.3698 50.7297 67.3079 50.3157C67.246 49.9016 67.2675 49.4794 67.371 49.0737C67.4746 48.6681 67.6583 48.2873 67.9111 47.9536C68.164 47.62 68.481 47.3403 68.8436 47.1309C69.2061 46.9215 69.6068 46.7867 70.0222 46.7344C70.4375 46.6821 70.8592 46.7133 71.2623 46.8263C71.6654 46.9393 72.0419 47.1317 72.3696 47.3923C72.6973 47.6528 72.9696 47.9762 73.1705 48.3435L79.9017 60.011C80.1772 60.4882 80.3224 61.0296 80.3225 61.5808C80.3227 62.1319 80.1778 62.6734 79.9025 63.1508C79.6272 63.6282 79.2311 64.0248 78.754 64.3008C78.2769 64.5767 77.7356 64.7222 77.1845 64.7228ZM61.5771 80.3257C61.0254 80.3272 60.4832 80.1816 60.0065 79.9039L48.339 73.1727C47.6383 72.746 47.1323 72.062 46.9293 71.267C46.7262 70.4721 46.8423 69.6292 47.2527 68.9187C47.663 68.2082 48.3351 67.6865 49.1251 67.4651C49.9151 67.2437 50.7605 67.3402 51.4803 67.7339L63.1477 74.4651C63.7461 74.8111 64.2136 75.3447 64.4779 75.9834C64.7422 76.622 64.7885 77.33 64.6096 77.9976C64.4306 78.6653 64.0365 79.2552 63.4883 79.6761C62.94 80.097 62.2683 80.3254 61.5771 80.3257ZM55.869 101.641H42.4066C41.5735 101.641 40.7745 101.31 40.1854 100.721C39.5963 100.132 39.2654 99.3331 39.2654 98.5C39.2654 97.6669 39.5963 96.8679 40.1854 96.2788C40.7745 95.6897 41.5735 95.3588 42.4066 95.3588H55.869C56.7021 95.3588 57.5011 95.6897 58.0902 96.2788C58.6793 96.8679 59.0103 97.6669 59.0103 98.5C59.0103 99.3331 58.6793 100.132 58.0902 100.721C57.5011 101.31 56.7021 101.641 55.869 101.641ZM49.9254 129.688C49.2342 129.688 48.5624 129.459 48.0142 129.038C47.4659 128.617 47.0718 128.027 46.8929 127.36C46.714 126.692 46.7603 125.984 47.0245 125.346C47.2888 124.707 47.7564 124.173 48.3548 123.827L60.0222 117.096C60.3798 116.878 60.7772 116.734 61.1913 116.672C61.6053 116.61 62.0276 116.632 62.4332 116.735C62.8388 116.839 63.2197 117.023 63.5533 117.276C63.887 117.528 64.1667 117.845 64.3761 118.208C64.5855 118.571 64.7203 118.971 64.7726 119.387C64.8249 119.802 64.7936 120.224 64.6806 120.627C64.5676 121.03 64.3752 121.406 64.1147 121.734C63.8541 122.062 63.5307 122.334 63.1634 122.535L51.496 129.266C51.0192 129.544 50.4771 129.689 49.9254 129.688ZM70.4533 150.22C69.9022 150.22 69.3609 150.074 68.8838 149.798C68.4067 149.522 68.0107 149.126 67.7353 148.648C67.46 148.171 67.3152 147.629 67.3153 147.078C67.3154 146.527 67.4606 145.986 67.7361 145.509L74.4674 133.841C74.8941 133.14 75.5781 132.634 76.373 132.431C77.168 132.228 78.0108 132.344 78.7213 132.755C79.4318 133.165 79.9536 133.837 80.175 134.627C80.3964 135.417 80.2999 136.262 79.9062 136.982L73.175 148.65C72.8992 149.127 72.5024 149.524 72.0246 149.8C71.5469 150.076 71.0049 150.221 70.4533 150.22ZM98.5 157.735C97.6669 157.735 96.8679 157.404 96.2788 156.815C95.6897 156.225 95.3588 155.426 95.3588 154.593V141.131C95.3588 140.298 95.6897 139.499 96.2788 138.91C96.8679 138.321 97.6669 137.99 98.5 137.99C99.3331 137.99 100.132 138.321 100.721 138.91C101.31 139.499 101.641 140.298 101.641 141.131V154.593C101.641 155.426 101.31 156.225 100.721 156.815C100.132 157.404 99.3331 157.735 98.5 157.735ZM126.547 150.22C125.995 150.221 125.453 150.076 124.975 149.8C124.498 149.524 124.101 149.127 123.825 148.65L117.094 136.982C116.876 136.625 116.732 136.227 116.67 135.813C116.608 135.399 116.63 134.977 116.733 134.571C116.837 134.166 117.02 133.785 117.273 133.451C117.526 133.118 117.843 132.838 118.206 132.628C118.568 132.419 118.969 132.284 119.384 132.232C119.8 132.18 120.221 132.211 120.624 132.324C121.028 132.437 121.404 132.629 121.732 132.89C122.059 133.15 122.332 133.474 122.533 133.841L129.264 145.509C129.539 145.986 129.685 146.527 129.685 147.078C129.685 147.629 129.54 148.171 129.265 148.648C128.989 149.126 128.593 149.522 128.116 149.798C127.639 150.074 127.098 150.22 126.547 150.22ZM147.075 129.688C146.523 129.689 145.981 129.544 145.504 129.266L133.837 122.535C133.136 122.108 132.63 121.424 132.427 120.629C132.224 119.834 132.34 118.991 132.75 118.281C133.161 117.57 133.833 117.049 134.623 116.827C135.413 116.606 136.258 116.702 136.978 117.096L148.645 123.827C149.244 124.173 149.711 124.707 149.975 125.346C150.24 125.984 150.286 126.692 150.107 127.36C149.928 128.027 149.534 128.617 148.986 129.038C148.438 129.459 147.766 129.688 147.075 129.688ZM154.593 101.641H141.131C140.298 101.641 139.499 101.31 138.91 100.721C138.321 100.132 137.99 99.3331 137.99 98.5C137.99 97.6669 138.321 96.8679 138.91 96.2788C139.499 95.6897 140.298 95.3588 141.131 95.3588H154.593C155.426 95.3588 156.225 95.6897 156.815 96.2788C157.404 96.8679 157.735 97.6669 157.735 98.5C157.735 99.3331 157.404 100.132 156.815 100.721C156.225 101.31 155.426 101.641 154.593 101.641ZM135.423 80.3257C134.732 80.3254 134.06 80.097 133.512 79.6761C132.963 79.2552 132.569 78.6653 132.39 77.9976C132.212 77.33 132.258 76.622 132.522 75.9834C132.786 75.3447 133.254 74.8111 133.852 74.4651L145.52 67.7339C145.877 67.5162 146.275 67.3721 146.689 67.3102C147.103 67.2482 147.525 67.2697 147.931 67.3733C148.336 67.4769 148.717 67.6605 149.051 67.9134C149.385 68.1663 149.664 68.4833 149.874 68.8458C150.083 69.2083 150.218 69.6091 150.27 70.0244C150.322 70.4398 150.291 70.8614 150.178 71.2645C150.065 71.6677 149.873 72.0441 149.612 72.3718C149.352 72.6995 149.028 72.9718 148.661 73.1727L136.994 79.9039C136.517 80.1816 135.975 80.3272 135.423 80.3257ZM119.815 64.7228C119.264 64.7222 118.723 64.5767 118.246 64.3008C117.769 64.0248 117.373 63.6282 117.098 63.1508C116.822 62.6734 116.677 62.1319 116.677 61.5808C116.678 61.0296 116.823 60.4882 117.098 60.011L123.83 48.3435C124.256 47.6428 124.94 47.1368 125.735 46.9337C126.53 46.7307 127.373 46.8468 128.084 47.2571C128.794 47.6675 129.316 48.3395 129.537 49.1296C129.759 49.9196 129.662 50.7649 129.268 51.4848L122.537 63.1522C122.261 63.6299 121.865 64.0266 121.387 64.3023C120.909 64.578 120.367 64.723 119.815 64.7228ZM102.038 94.5578C101.503 94.5573 100.977 94.4201 100.51 94.1592C100.042 93.8982 99.6496 93.5223 99.3684 93.0669C99.0872 92.6115 98.9271 92.0919 98.9031 91.5572C98.8791 91.0226 98.9922 90.4907 99.2315 90.012L109.153 70.1706C109.324 69.7794 109.572 69.427 109.883 69.1349C110.194 68.8428 110.561 68.6172 110.962 68.4717C111.363 68.3262 111.79 68.264 112.216 68.2888C112.642 68.3136 113.058 68.425 113.44 68.616C113.821 68.8071 114.16 69.0739 114.435 69.4001C114.71 69.7263 114.916 70.1052 115.039 70.5135C115.163 70.9218 115.203 71.3511 115.155 71.7751C115.107 72.1991 114.974 72.609 114.763 72.9798L104.85 92.8211C104.589 93.3432 104.187 93.7822 103.691 94.089C103.194 94.3957 102.622 94.5581 102.038 94.5578ZM90.5819 101.641H73.8189C72.9858 101.641 72.1868 101.31 71.5977 100.721C71.0086 100.132 70.6777 99.3331 70.6777 98.5C70.6777 97.6669 71.0086 96.8679 71.5977 96.2788C72.1868 95.6897 72.9858 95.3588 73.8189 95.3588H90.5819C91.415 95.3588 92.2139 95.6897 92.803 96.2788C93.3921 96.8679 93.7231 97.6669 93.7231 98.5C93.7231 99.3331 93.3921 100.132 92.803 100.721C92.2139 101.31 91.415 101.641 90.5819 101.641Z" fill="black"/>
<path d="M98.5001 109.559C96.3127 109.559 94.1745 108.911 92.3558 107.696C90.5371 106.48 89.1196 104.753 88.2825 102.732C87.4455 100.711 87.2265 98.4877 87.6532 96.3424C88.0799 94.1971 89.1332 92.2265 90.6799 90.6798C92.2266 89.1331 94.1972 88.0798 96.3425 87.6531C98.4878 87.2264 100.711 87.4454 102.732 88.2825C104.753 89.1195 106.48 90.537 107.696 92.3557C108.911 94.1744 109.559 96.3127 109.559 98.5C109.556 101.432 108.39 104.243 106.317 106.317C104.244 108.39 101.432 109.556 98.5001 109.559ZM98.5001 93.7231C97.5553 93.7231 96.6317 94.0032 95.8461 94.5281C95.0606 95.053 94.4483 95.7991 94.0868 96.6719C93.7252 97.5448 93.6306 98.5053 93.8149 99.4319C93.9992 100.359 94.4542 101.21 95.1223 101.878C95.7903 102.546 96.6415 103.001 97.5681 103.185C98.4948 103.369 99.4552 103.275 100.328 102.913C101.201 102.552 101.947 101.939 102.472 101.154C102.997 100.368 103.277 99.4448 103.277 98.5C103.276 97.2334 102.772 96.0191 101.877 95.1235C100.981 94.2279 99.7666 93.7243 98.5001 93.7231Z" fill="black"/>
</svg>
