<svg width="114" height="114" viewBox="0 0 114 114" fill="none" xmlns="http://www.w3.org/2000/svg">
    <path d="M96.1663 0L96.6092 0.00603952C101.177 0.124634 105.532 1.99045 108.771 5.22922C112.114 8.57252 113.994 13.1056 114 17.8337V64.8333C113.994 69.5607 112.114 74.0928 108.771 77.4357C105.427 80.779 100.894 82.6604 96.1663 82.666H66.9984V94.0041H92.2517C93.8645 94.0042 95.4114 94.6444 96.5518 95.7848C97.6923 96.9252 98.3324 98.4721 98.3325 100.085V107.919C98.3324 109.532 97.6922 111.079 96.5518 112.219C95.4114 113.36 93.8644 114 92.2517 114H21.096C19.4833 114 17.9363 113.36 16.7959 112.219C15.6555 111.079 15.0154 109.532 15.0153 107.919V100.085C15.0153 98.4722 15.6555 96.9252 16.7959 95.7848C17.9363 94.6444 19.4833 94.0043 21.096 94.0041H47.0016V82.666H17.8337C13.1056 82.6604 8.57252 80.779 5.22922 77.4357C1.99048 74.1969 0.124532 69.8417 0.00603952 65.2741L0 64.8312V17.8337C0.00556464 13.1056 1.88592 8.57252 5.22922 5.22922C8.46798 1.99046 12.8233 0.124634 17.3908 0.00603952L17.8337 0H96.1663ZM19.3446 98.3325V109.671H94.0041V98.3325H19.3446ZM51.3309 82.666V94.0041H62.6691V82.666H51.3309ZM17.8297 4.32933C14.2504 4.33353 10.8192 5.75727 8.28824 8.28824C5.75727 10.8192 4.33353 14.2504 4.32933 17.8297V64.8353C4.33353 68.4146 5.75727 71.8468 8.28824 74.3777C10.8192 76.9085 14.2505 78.3324 17.8297 78.3366H96.1703C99.7495 78.3324 103.181 76.9085 105.712 74.3777C108.243 71.8468 109.666 68.4146 109.671 64.8353V17.8297C109.666 14.2504 108.243 10.8192 105.712 8.28824C103.181 5.75727 99.7496 4.33353 96.1703 4.32933H17.8297Z" fill="white"/>
    <path d="M56.9983 15.6673C63.8032 15.6754 70.3272 18.3818 75.139 23.1935C79.9508 28.0053 82.6572 34.5294 82.6653 41.3343C82.665 46.4099 81.1599 51.3713 78.34 55.5916C75.5198 59.8122 71.5114 63.1019 66.8216 65.0444C62.1319 66.9869 56.9711 67.4953 51.9926 66.505C47.0141 65.5146 42.4409 63.0703 38.8516 59.481C35.2623 55.8917 32.8179 51.3185 31.8276 46.34C30.8373 41.3614 31.3457 36.2007 33.2882 31.511C35.2307 26.8212 38.5204 22.8128 42.741 19.9926C46.9612 17.1728 51.9228 15.6677 56.9983 15.6673ZM65.1648 21.6203C61.2662 20.0055 56.9758 19.5831 52.8371 20.4063C48.6984 21.2296 44.8964 23.2617 41.9126 26.2455C38.9288 29.2294 36.8967 33.0313 36.0734 37.17C35.2501 41.3088 35.6725 45.599 37.2873 49.4977C38.9022 53.3963 41.6372 56.7289 45.1458 59.0733C48.6545 61.4178 52.7804 62.6689 57.0003 62.6689H57.0024C62.6584 62.6622 68.0806 60.4123 72.08 56.4129C76.0796 52.4134 78.3303 46.9904 78.337 41.3343V41.3322C78.3369 37.1124 77.0848 32.9873 74.7404 29.4787C72.396 25.97 69.0634 23.2351 65.1648 21.6203Z" fill="white"/>
    <path d="M57.0002 29.5822C54.6762 29.5822 52.4044 30.2713 50.472 31.5625C48.5397 32.8536 47.0336 34.6888 46.1442 36.8359C45.2548 38.9831 45.0222 41.3457 45.4755 43.625C45.9289 45.9044 47.0481 47.9982 48.6914 49.6415C50.3347 51.2848 52.4285 52.404 54.7078 52.8574C56.9872 53.3107 59.3498 53.0781 61.497 52.1887C63.6441 51.2993 65.4793 49.7932 66.7704 47.8609C68.0616 45.9285 68.7507 43.6567 68.7507 41.3326C68.7471 38.2173 67.5079 35.2307 65.3051 33.0278C63.1022 30.825 60.1156 29.5858 57.0002 29.5822ZM57.0002 45.2495C56.2256 45.2495 55.4683 45.0198 54.8242 44.5894C54.1801 44.159 53.678 43.5473 53.3816 42.8316C53.0851 42.1158 53.0075 41.3283 53.1587 40.5685C53.3098 39.8087 53.6829 39.1108 54.2306 38.563C54.7784 38.0153 55.4763 37.6422 56.2361 37.4911C56.9959 37.3399 57.7834 37.4175 58.4992 37.714C59.2149 38.0104 59.8266 38.5125 60.257 39.1566C60.6874 39.8007 60.9171 40.558 60.9171 41.3326C60.9171 42.3715 60.5044 43.3677 59.7699 44.1023C59.0353 44.8368 58.0391 45.2495 57.0002 45.2495Z" fill="white"/>
</svg>
