<svg width="131" height="114" viewBox="0 0 131 114" fill="none" xmlns="http://www.w3.org/2000/svg">
    <path d="M39.1587 0.0447241C41.9397 -0.174258 44.7247 0.414187 47.1789 1.73792L122.53 42.324C125.091 43.7027 127.23 45.7482 128.72 48.2426C130.211 50.7368 130.998 53.5875 131 56.4919V57.5C131 60.4059 130.213 63.2585 128.722 65.7544C127.325 68.0942 125.357 70.0393 123.006 71.4099L122.53 71.676L47.18 112.262C44.7257 113.586 41.9397 114.174 39.1587 113.955C36.3778 113.736 33.7202 112.719 31.504 111.028C29.288 109.337 27.6072 107.044 26.6629 104.425C25.7187 101.805 25.5504 98.9681 26.1773 96.2552L26.1784 96.2481L27.5211 90.3528L17.873 92.3476C14.8356 92.9746 11.6784 92.636 8.84339 91.38C6.00839 90.124 3.63853 88.0137 2.06413 85.3461C0.489864 82.6785 -0.211489 79.5859 0.0585618 76.5016C0.32868 73.4172 1.55643 70.4929 3.57108 68.1388L3.57008 68.1378L13.1154 57L3.57008 45.8601C1.55482 43.5058 0.326675 40.5813 0.0565472 37.4964C-0.213563 34.4109 0.488618 31.3171 2.06413 28.6489C3.63973 25.9807 6.01083 23.8701 8.84742 22.6149C11.6843 21.3596 14.8438 21.0229 17.8821 21.6524L27.5413 23.6492L26.1773 17.7458C25.5505 15.0331 25.7188 12.1961 26.6629 9.5764C27.6071 6.9564 29.2879 4.66261 31.504 2.97163C33.7202 1.28067 36.3779 0.263768 39.1587 0.0447241ZM37.7756 88.2355L35.4326 98.3805C35.2168 99.3179 35.2758 100.299 35.6018 101.203C35.9279 102.108 36.5073 102.898 37.2689 103.48C38.0305 104.062 38.9428 104.412 39.896 104.488C40.849 104.565 41.8044 104.365 42.648 103.912L42.651 103.91L57.3257 96.0062L112.041 72.8662L37.7756 88.2355ZM15.7325 30.9038C14.705 30.7354 13.6492 30.8702 12.6944 31.2944C11.6756 31.747 10.8213 32.5063 10.2526 33.4694C9.68393 34.4326 9.43019 35.5505 9.52636 36.6665C9.62252 37.7825 10.0641 38.8397 10.7885 39.6906L10.7926 39.6956L25.6243 57L19.805 63.7971H19.796L10.7946 74.3024C10.0643 75.1525 9.61669 76.2115 9.51729 77.3305C9.41797 78.4495 9.67197 79.5712 10.2416 80.5377C10.8112 81.5041 11.668 82.2669 12.6903 82.7197C13.7123 83.1723 14.8493 83.2924 15.943 83.0659L117.357 62.0745L117.358 62.0755C118.522 61.8363 119.57 61.2013 120.323 60.2771C121.077 59.3528 121.49 58.1954 121.49 57C121.49 55.8046 121.077 54.6472 120.323 53.7229C119.57 52.7992 118.523 52.165 117.36 51.9255L15.943 30.9422L15.9379 30.9412L15.7325 30.9038ZM39.896 9.51163C38.9428 9.58807 38.0305 9.93787 37.2689 10.5197C36.5073 11.1016 35.9279 11.8922 35.6018 12.7968C35.2758 13.7014 35.2168 14.681 35.4326 15.6185V15.6205L37.7756 25.7655L112.041 41.1338L57.3257 17.9928L42.651 10.0895L42.648 10.0875C41.8044 9.63499 40.849 9.43531 39.896 9.51163Z" fill="#076999"/>
</svg>
